<?xml version="1.0" encoding="UTF-8" standalone="no"?>
<!-- Created with Inkscape (http://www.inkscape.org/) -->

<svg
   width="193.00624mm"
   height="25.909616mm"
   viewBox="0 0 193.00624 25.909616"
   version="1.1"
   id="svg1"
   xml:space="preserve"
   inkscape:version="1.3 (0e150ed6c4, 2023-07-21)"
   sodipodi:docname="FFL.svg"
   xmlns:inkscape="http://www.inkscape.org/namespaces/inkscape"
   xmlns:sodipodi="http://sodipodi.sourceforge.net/DTD/sodipodi-0.dtd"
   xmlns="http://www.w3.org/2000/svg"
   xmlns:svg="http://www.w3.org/2000/svg"><sodipodi:namedview
     id="namedview1"
     pagecolor="#505050"
     bordercolor="#ffffff"
     borderopacity="1"
     inkscape:showpageshadow="0"
     inkscape:pageopacity="0"
     inkscape:pagecheckerboard="1"
     inkscape:deskcolor="#505050"
     inkscape:document-units="mm"
     showgrid="true"
     inkscape:zoom="1.640912"
     inkscape:cx="324.20995"
     inkscape:cy="77.700693"
     inkscape:window-width="1848"
     inkscape:window-height="991"
     inkscape:window-x="32"
     inkscape:window-y="49"
     inkscape:window-maximized="1"
     inkscape:current-layer="layer1"><inkscape:grid
       id="grid8"
       units="mm"
       originx="-31.971112"
       originy="-547.95413"
       spacingx="0.99999998"
       spacingy="1"
       empcolor="#0099e5"
       empopacity="0.30196078"
       color="#0099e5"
       opacity="0.14901961"
       empspacing="5"
       dotted="false"
       gridanglex="30"
       gridanglez="30"
       visible="true" /></sodipodi:namedview><defs
     id="defs1" /><g
     inkscape:label="Base"
     inkscape:groupmode="layer"
     id="layer1"
     transform="translate(-8.4590235,-144.97953)"><g
       id="g3"
       transform="translate(1.1996308,9.2370924)"
       inkscape:label="FFL"><path
         style="fill:#808080"
         d="m 65.953125,160.60434 c -7.489453,-0.0537 -13.873138,-0.12618 -14.185965,-0.16103 -0.527997,-0.0588 -0.562613,-0.0805 -0.48279,-0.30227 0.102055,-0.28354 0.04267,-0.5141 -0.296657,-1.15185 -0.139135,-0.26149 -0.23488,-0.49353 -0.212766,-0.51565 0.05538,-0.0554 30.828977,-0.40238 30.883124,-0.34823 0.02393,0.0239 0.09342,0.3067 0.154429,0.62839 0.06101,0.32168 0.132647,0.6066 0.159202,0.63316 0.181961,0.18196 8.862405,0.22774 32.051738,0.16904 l 26.57812,-0.0673 0.92969,0.26145 0.92969,0.26144 -2.13282,0.0792 c -2.91013,0.10804 -7.13917,0.29707 -9.1875,0.41068 -2.53582,0.14064 -49.574617,0.21494 -65.187495,0.10297 z m 79.515625,-2.72802 v -2.11307 l 0.57422,-0.51431 0.57422,-0.5143 v -6.04345 -6.04345 l -0.57422,-0.51431 -0.57422,-0.5143 v -2.09679 -2.09678 h 0.56042 c 0.80437,0 6.79291,0.39775 10.75989,0.71466 3.12859,0.24993 10.33875,1.00169 10.42389,1.08684 0.046,0.0459 2.09653,6.86324 2.09828,6.97585 7e-4,0.0451 -1.36017,0.082 -3.02415,0.082 h -3.02542 l -0.77536,-0.5834 c -0.75385,-0.5672 -0.85881,-0.60817 -3.78318,-1.4766 -1.65429,-0.49127 -3.19003,-0.8932 -3.41274,-0.89317 -0.33873,3e-5 -0.52292,0.10478 -1.12668,0.64073 -0.39697,0.35238 -0.97764,0.92779 -1.29039,1.27868 l -0.56862,0.63798 v 2.79915 2.79915 l 0.59962,0.68121 c 0.3298,0.37467 0.91219,0.95137 1.2942,1.28155 0.56933,0.4921 0.76688,0.60035 1.09568,0.60038 0.22062,3e-5 1.75464,-0.4019 3.40893,-0.89317 2.92437,-0.86843 3.02933,-0.9094 3.78318,-1.4766 l 0.77536,-0.58339 h 3.02542 c 1.66398,0 3.02485,0.0369 3.02415,0.082 -0.002,0.1126 -2.05233,6.9299 -2.09828,6.97585 -0.0754,0.0754 -7.13046,0.82373 -9.76764,1.03603 -3.62018,0.29143 -8.48325,0.62868 -10.41797,0.72248 l -1.55859,0.0756 z m -1.53125,1.53156 c -0.15039,-0.0518 -0.67949,-0.20101 -1.17578,-0.33148 -0.49629,-0.13046 -0.90235,-0.27624 -0.90235,-0.32394 0,-0.0477 0.55372,-0.59548 1.23047,-1.21727 l 1.23047,-1.13054 0.0739,0.49097 c 0.0406,0.27003 0.0776,0.97085 0.082,1.55738 0.009,1.13302 0.004,1.14184 -0.53877,0.95488 z M 25.1917,159.30611 c -8.85355,-0.0342 -16.1217637,-0.0866 -16.1515864,-0.11639 -0.029823,-0.0298 -0.225886,-2.40417 -0.4356962,-5.27633 l -0.3814731,-5.22211 0.3814731,-5.22212 c 0.2098102,-2.87216 0.4012829,-5.24192 0.4254949,-5.26613 0.055622,-0.0556 40.8769857,-0.23506 40.9321217,-0.17993 0.02238,0.0224 -0.07418,0.35239 -0.214576,0.73334 l -0.25527,0.69265 v 9.29687 9.29688 l 0.246038,0.60156 c 0.135321,0.33086 0.246064,0.63848 0.246094,0.6836 3e-5,0.0451 -1.95639,0.0726 -4.347601,0.0611 -2.391211,-0.0115 -11.59147,-0.0488 -20.445019,-0.083 z m 59.280686,-2.74837 1.222927,-1.97729 1.53125,0.0493 c 0.842187,0.0271 3.401562,0.25949 5.6875,0.51645 4.287215,0.4819 7.033171,0.59803 7.915417,0.33475 0.2027,-0.0605 0.57609,-0.0815 0.82975,-0.0468 0.45714,0.0626 0.46209,0.0682 0.56114,0.62502 l 0.0999,0.5618 1.01172,0.097 c 0.58859,0.0564 1.43485,0.0564 2.02344,0 l 1.01172,-0.097 0.0864,-0.92968 c 0.0475,-0.51133 0.0721,-4.04105 0.0547,-7.84383 -0.0297,-6.4676 -0.0443,-6.92675 -0.22704,-7.10938 -0.1717,-0.17161 -0.41263,-0.19513 -1.99146,-0.1944 -1.12769,5.3e-4 -1.83964,0.0444 -1.91304,0.11776 -0.0643,0.0643 -0.14638,0.36569 -0.1824,0.66976 l -0.0655,0.55286 -0.46542,0.0638 c -0.25598,0.0351 -0.63126,0.0143 -0.83396,-0.0462 -0.882246,-0.26328 -3.628202,-0.14715 -7.915417,0.33476 -2.285938,0.25695 -4.845313,0.48935 -5.6875,0.51644 l -1.53125,0.0493 -1.222927,-1.97728 -1.222927,-1.97729 h 28.625491 28.6255 l 0.37868,0.32368 0.37868,0.32368 -5.25,0.0112 c -2.8875,0.006 -5.60774,0.0471 -6.04498,0.0909 l -0.79498,0.0797 -0.92768,0.92286 c -0.51022,0.50757 -0.92767,0.99777 -0.92766,1.08933 1e-5,0.14741 -0.84521,0.16648 -7.37889,0.16648 -6.79313,0 -7.39362,0.0147 -7.56447,0.18556 -0.15876,0.15874 -0.19309,0.51049 -0.23748,2.43359 l -0.0519,2.24804 h -0.25558 -0.25559 l 0.0152,-2.70703 c 0.01,-1.75398 -0.0272,-2.80864 -0.10508,-2.99562 -0.11332,-0.27198 -0.17669,-0.29306 -1.10092,-0.36621 -0.53938,-0.0427 -1.40546,-0.0422 -1.92463,0.001 -0.80294,0.0669 -0.96358,0.11342 -1.07538,0.31152 -0.0969,0.17167 -0.14211,1.9293 -0.17203,6.68601 -0.0398,6.32586 0.0149,8.72314 0.20619,9.03261 0.0767,0.12404 0.47602,0.15489 2.00467,0.15489 1.04992,0 1.94658,-0.0376 1.99258,-0.0836 0.046,-0.046 0.10577,-1.43643 0.13281,-3.08984 l 0.0492,-3.0062 h 0.24431 c 0.24324,0 0.24455,0.01 0.29622,2.24803 0.0444,1.9231 0.0787,2.27485 0.23748,2.43359 0.17085,0.17083 0.77134,0.18556 7.56447,0.18556 6.6304,0 7.3789,0.0174 7.37889,0.17162 -2e-5,0.27083 1.89709,2.06816 2.20075,2.08501 0.4103,0.0228 1.88118,0.0379 6.98674,0.072 l 4.75781,0.0318 -0.37868,0.32368 -0.37868,0.32368 h -28.6255 -28.625491 z m 84.183864,1.08826 c 0,-0.15236 1.71361,-5.96189 1.85899,-6.30238 0.0891,-0.20859 0.18878,-0.24609 0.65429,-0.24609 0.30207,0 0.54922,0.0264 0.54922,0.0586 0,0.10529 -1.75237,6.00335 -1.87548,6.31245 -0.10781,0.27065 -0.17326,0.30078 -0.65341,0.30078 -0.32326,0 -0.53361,-0.0486 -0.53361,-0.1234 z m 2.23164,-0.28675 c 0.91776,-2.98333 2.47148,-8.43228 2.47148,-8.66756 0,-0.17425 -0.5646,-2.22398 -1.25468,-4.55497 -0.69007,-2.33099 -1.2309,-4.26194 -1.20185,-4.291 0.12603,-0.12602 3.55097,0.50368 6.81436,1.25289 7.20319,1.65371 14.62266,4.06468 19.54061,6.34975 0.91078,0.42319 1.61088,0.81915 1.72776,0.9772 0.1891,0.25569 0.1891,0.27574 0,0.53143 -0.38445,0.51984 -4.56349,2.30733 -8.94749,3.82709 -5.00683,1.73567 -12.93446,3.82232 -17.083,4.49647 -2.01886,0.32807 -2.14539,0.33289 -2.06719,0.0787 z m 10.40215,-5.45211 c 0.71143,-0.46615 0.69161,-1.93169 -0.0325,-2.40617 -0.19222,-0.12595 -0.52123,-0.18753 -1.02665,-0.19216 -0.70317,-0.006 -0.76492,0.0137 -1.13119,0.36868 -0.67528,0.65451 -0.6888,1.3654 -0.0387,2.03612 0.19022,0.19626 0.47405,0.37892 0.63073,0.40593 0.46187,0.0796 1.32847,-0.0356 1.59836,-0.2124 z m -1.23691,-0.83149 c -0.29066,-0.29065 -0.0795,-0.85312 0.32031,-0.85312 0.22549,0 0.53281,0.28388 0.53281,0.49218 0,0.38258 -0.58429,0.62978 -0.85312,0.36094 z m 3.48297,-0.96204 c 0.21322,-0.0592 0.55491,-0.28025 0.75932,-0.49114 0.32209,-0.33232 0.37165,-0.45648 0.37165,-0.93119 0,-0.47472 -0.0496,-0.59887 -0.37165,-0.9312 -0.47043,-0.48536 -0.95702,-0.62676 -1.64734,-0.47871 -0.88628,0.19007 -1.2775,0.81648 -1.1192,1.792 0.10291,0.63415 0.4962,0.91986 1.56487,1.13683 0.0301,0.006 0.22914,-0.0374 0.44235,-0.0966 z m -0.52945,-1.04717 c -0.13257,-0.0928 -0.24103,-0.26167 -0.24103,-0.37516 0,-0.11349 0.10846,-0.28232 0.24103,-0.37517 0.20554,-0.14397 0.27396,-0.14694 0.46484,-0.0202 0.1231,0.0817 0.22382,0.25965 0.22382,0.39537 0,0.13571 -0.10072,0.31363 -0.22382,0.39537 -0.19088,0.12673 -0.2593,0.12376 -0.46484,-0.0202 z m 5.60272,-0.10954 c 0.21352,-0.21352 0.21368,-0.26665 0.002,-0.56941 -0.0969,-0.13842 -0.28534,-0.24309 -0.4375,-0.24309 -0.23803,0 -0.26724,0.0469 -0.26724,0.42948 0,0.41093 0.0523,0.47303 0.45703,0.54221 0.0408,0.007 0.15156,-0.0647 0.24609,-0.15919 z m -7.30667,-1.10493 c 0.70318,-0.46074 0.67145,-1.92648 -0.052,-2.40359 -0.20316,-0.13397 -0.50998,-0.19131 -1.02691,-0.19191 -0.69203,-8e-4 -0.76089,0.0221 -1.12434,0.37439 -0.67503,0.65427 -0.68846,1.36525 -0.0385,2.03588 0.19022,0.19625 0.47405,0.37803 0.63073,0.40394 0.44958,0.0743 1.3504,-0.048 1.61102,-0.21871 z m -1.24957,-0.82319 c -0.29066,-0.29066 -0.0795,-0.85313 0.32031,-0.85313 0.22549,0 0.53281,0.28389 0.53281,0.49219 0,0.38257 -0.58429,0.62977 -0.85312,0.36094 z m -129.52188,7.36385 v -3.07635 h 1.203125 1.203125 l 0.0012,0.51953 c 6.62e-4,0.28574 0.03092,0.69919 0.06723,0.91878 l 0.06603,0.39926 1.075135,0.0769 c 1.155279,0.0827 3.70484,-0.0247 3.93294,-0.1657 0.08347,-0.0516 0.159782,-0.41147 0.191262,-0.902 l 0.05238,-0.81616 1.360763,-0.0588 c 0.748419,-0.0323 1.394538,-0.0926 1.435819,-0.13383 0.09804,-0.098 0.09804,-4.82811 0,-4.92615 -0.04128,-0.0413 -0.6874,-0.1015 -1.435819,-0.13382 l -1.360763,-0.0588 -0.05238,-0.81616 c -0.03148,-0.49053 -0.10779,-0.8504 -0.191262,-0.90199 -0.2281,-0.14098 -2.777661,-0.2484 -3.93294,-0.16571 l -1.075135,0.077 -0.06603,0.39926 c -0.03631,0.21959 -0.06657,0.63304 -0.06723,0.91879 l -0.0012,0.51953 H 51.734375 50.53125 v -3.07636 -3.07636 l 3.472656,0.0689 c 1.909961,0.0379 8.960547,0.1235 15.667969,0.19019 l 12.195313,0.12125 0.300781,0.28163 c 0.417892,0.3913 0.375627,0.49625 -0.08936,0.2219 -0.25393,-0.14982 -0.653731,-0.24905 -1.145119,-0.28421 -0.658855,-0.0471 -0.830254,-0.0172 -1.346237,0.23526 -0.912226,0.44631 -1.473647,1.52687 -1.313825,2.5287 0.116079,0.72764 0.173562,0.85245 0.611325,1.32737 0.644154,0.69882 0.975962,0.84445 1.943373,0.85294 1.185249,0.0104 1.915969,-0.40281 2.357399,-1.33305 0.282792,-0.59594 0.25829,-1.75334 -0.04811,-2.27265 -0.155359,-0.26332 0.136365,-0.0122 0.836802,0.72024 l 1.075309,1.12448 1.225238,0.0505 1.225238,0.0505 v 4.89378 4.89377 l -1.225238,0.0505 -1.225238,0.0505 -1.094579,1.13935 c -0.602018,0.62664 -0.980159,0.97614 -0.840312,0.77668 0.207246,-0.29561 0.255204,-0.50816 0.259336,-1.14942 0.01066,-1.65481 -0.883115,-2.54218 -2.545844,-2.52759 -0.967411,0.008 -1.299219,0.15411 -1.943373,0.85294 -0.437763,0.47491 -0.495246,0.59973 -0.611325,1.32736 -0.159822,1.00183 0.401599,2.08239 1.313825,2.5287 0.515983,0.25245 0.687382,0.2824 1.346237,0.23526 0.491388,-0.0352 0.891189,-0.13438 1.145119,-0.28421 0.464988,-0.27435 0.507253,-0.1694 0.08936,0.2219 l -0.300781,0.28164 -12.195313,0.12125 c -6.707422,0.0667 -13.758008,0.15227 -15.667969,0.19018 l -3.472656,0.0689 z m 22.613154,-2.56451 c 0.172978,-0.17298 0.191534,-0.47687 0.191534,-3.13684 0,-2.68183 -0.01748,-2.96279 -0.19534,-3.14063 -0.178819,-0.17879 -0.472058,-0.19531 -3.467207,-0.19531 -2.329368,0 -3.308276,0.0364 -3.398258,0.12641 -0.159986,0.16001 -0.262475,4.31984 -0.137013,5.56109 l 0.08844,0.875 0.601562,0.0706 c 0.330859,0.0388 1.844279,0.0617 3.363154,0.0509 2.468838,-0.0176 2.781896,-0.04 2.953125,-0.21119 z M 72.050781,150.48809 71.75,150.32492 v -1.63433 -1.63432 l 0.328125,-0.16968 0.328125,-0.16968 v 1.97156 c 0,1.08436 -0.0123,1.96959 -0.02734,1.96718 -0.01504,-0.002 -0.162695,-0.0778 -0.328125,-0.16756 z m -4.457031,-1.79681 v -1.42188 h 1.585938 1.585937 v 1.42188 1.42187 H 69.179688 67.59375 Z m 61.19531,6.63923 -0.98437,-0.67907 v -5.96016 -5.96016 l 0.98437,-0.67907 0.98438,-0.67907 6.27065,-0.005 6.27064,-0.005 1.62957,0.84766 1.62956,0.84765 v 5.63282 5.63281 l -1.62956,0.84766 -1.62957,0.84765 -6.27064,-0.005 -6.27065,-0.005 z m -48.785928,0.37575 c -1.057068,-0.64462 -1.001542,-2.09993 0.100475,-2.63341 0.619695,-0.29999 1.130024,-0.28688 1.613184,0.0414 0.753365,0.51192 0.930804,1.42751 0.416595,2.14965 -0.437201,0.614 -1.4902,0.83263 -2.130254,0.44232 z m 28.278118,-6.5228 v -6.72656 h 1.14844 1.14844 v 6.72656 6.72657 h -1.14844 -1.14844 z M 103.25,148.19909 v -6.72656 h 1.09375 1.09375 v 6.72656 6.72656 H 104.34375 103.25 Z m -4.484375,0.49219 v -6.04297 l 0.341797,0.0684 c 0.187988,0.0376 0.50791,0.0684 0.710937,0.0684 h 0.369141 v 5.90625 5.90625 h -0.369141 c -0.203027,0 -0.522949,0.0308 -0.710937,0.0684 l -0.341797,0.0684 z m -5.46875,5.51117 c -1.894922,-0.20441 -3.556055,-0.39696 -3.691406,-0.42788 l -0.246094,-0.0562 v -5.02708 -5.02709 l 0.246094,-0.0556 c 0.341125,-0.0771 7.461188,-0.82354 7.855562,-0.82354 h 0.320219 v 5.90625 5.90625 l -0.519531,-0.0117 c -0.285742,-0.006 -2.069922,-0.17895 -3.964844,-0.38337 z m 3.5,-1.10036 c 0.09255,-0.0915 0.06038,-8.76189 -0.03286,-8.85513 -0.136119,-0.13612 -1.024333,-0.0915 -3.613956,0.18153 -1.839472,0.19394 -2.443287,0.29584 -2.625,0.44298 -0.233167,0.18881 -0.235999,0.23466 -0.235999,3.81981 0,3.58515 0.0028,3.63099 0.235999,3.8198 0.182899,0.1481 0.773526,0.24558 2.625,0.43323 1.31395,0.13318 2.487438,0.25907 2.607751,0.27976 0.248545,0.0427 0.956473,-0.0404 1.039062,-0.12198 z m -3.445312,-1.22431 -1.53125,-0.17869 v -3.00781 -3.00782 l 1.585937,-0.18283 c 0.872266,-0.10056 1.795117,-0.18669 2.050781,-0.19141 l 0.464844,-0.009 v 3.39063 3.39062 l -0.519531,-0.0127 c -0.285742,-0.007 -1.208594,-0.0931 -2.050781,-0.1914 z m 21.095217,1.32522 c 0.12251,-2.16751 0.18084,-2.54297 0.39503,-2.54297 0.16103,0 0.19769,0.15313 0.25114,1.04912 0.0344,0.57702 0.0931,1.07963 0.13037,1.1169 0.0956,0.0956 2.42899,0.0931 2.52481,-0.003 0.0434,-0.0434 0.10343,-0.54788 0.13341,-1.1211 l 0.0545,-1.04221 h 0.30536 c 0.34712,0 0.44212,0.20204 1.08569,2.30898 l 0.3545,1.16055 0.88966,0.0693 c 0.48932,0.0381 1.80961,0.0696 2.93399,0.0699 1.24418,3.9e-4 2.07079,0.0435 2.11193,0.11003 0.0447,0.0724 -1.84536,0.10937 -5.58772,0.10937 h -5.65532 z m -13.2749,-4.51172 v -5.6875 h 0.49218 0.49219 v 5.6875 5.6875 h -0.49219 -0.49218 z m 11.92187,3.82812 c 0,-1.83 0.004,-1.85937 0.23528,-1.85937 0.23394,0 0.23485,0.01 0.15952,1.6982 -0.0417,0.93401 -0.10359,1.77073 -0.13761,1.85937 -0.18142,0.47278 -0.25719,-0.0275 -0.25719,-1.6982 z m 13.31641,1.15173 c -0.17527,-0.24104 -0.19141,-0.66119 -0.19141,-4.98322 0,-4.55437 0.008,-4.72974 0.21875,-4.99808 l 0.21875,-0.27809 v 5.26475 c 0,2.89561 -0.0123,5.2632 -0.0273,5.26131 -0.015,-0.002 -0.11348,-0.12189 -0.21875,-0.26667 z m -5.76953,-1.69864 v -1.3125 h 0.5523 c 0.30377,0 0.70425,0.0786 0.88996,0.1746 0.46793,0.24198 1.68081,0.23884 2.1961,-0.006 0.21955,-0.10418 0.52432,-0.31457 0.67728,-0.46752 l 0.27811,-0.27811 v 1.60085 1.60086 h -2.29688 -2.29687 z m 33.8646,0.45068 c -0.42869,-0.43322 -0.59357,-0.66952 -0.50524,-0.72411 0.12587,-0.0778 1.42188,1.09046 1.42188,1.28172 0,0.2314 -0.34134,0.0238 -0.91664,-0.55761 z m 1.16163,-0.80705 -0.79186,-0.79718 v -2.13297 -2.13298 l 0.79297,-0.78638 0.79297,-0.78638 1.58593,0.48903 c 1.01865,0.3141 1.89893,0.51369 2.46094,0.55797 0.90516,0.0713 1.28659,0.21419 1.0169,0.38087 -0.10865,0.0671 -0.1419,0.60205 -0.1419,2.28318 0,1.68112 0.0332,2.21602 0.1419,2.28317 0.26711,0.16509 -0.10867,0.31012 -0.96221,0.37136 -0.64876,0.0465 -3.02961,0.65787 -3.9933,1.02536 -0.0608,0.0232 -0.46682,-0.3166 -0.90234,-0.75505 z m -101.744985,0.13766 v -0.4375 h 1.367188 1.367187 v 0.4375 0.4375 h -1.367187 -1.367188 z m 62.343755,-3.0625 v -3.17188 h 0.25736 c 0.2481,0 0.25964,0.038 0.32029,1.05467 0.0414,0.69442 0.1161,1.10783 0.21859,1.21033 0.0934,0.0933 0.49056,0.18099 0.99221,0.21893 l 0.83655,0.0633 v 0.62468 0.62467 l -0.83655,0.0633 c -0.50165,0.0379 -0.89886,0.12558 -0.99221,0.21893 -0.10249,0.1025 -0.17716,0.51591 -0.21859,1.21034 -0.0606,1.01667 -0.0722,1.05466 -0.32029,1.05466 h -0.25736 z m 36.96874,0 c 0,-1.25552 0.0428,-2.1875 0.10043,-2.1875 0.43295,0 0.44645,0.0661 0.44645,2.1875 0,2.12136 -0.0135,2.1875 -0.44645,2.1875 -0.0576,0 -0.10043,-0.93198 -0.10043,-2.1875 z m -102.593745,0 v -1.64063 h 4.375 4.375 v 1.64063 1.64062 h -4.375 -4.375 z m 111.781245,0 v -1.42188 h 4.32032 4.32031 v 1.42188 1.42187 h -4.32031 -4.32032 z m -38.60937,0 c 0,-1.15276 0.009,-1.19941 0.20601,-1.07633 0.30507,0.19052 0.55962,0.6801 0.55962,1.07633 0,0.39623 -0.25455,0.8858 -0.55962,1.07632 -0.19708,0.12308 -0.20601,0.0764 -0.20601,-1.07632 z m -12.03125,0 v -0.875 h 1.64063 1.64062 v 0.875 0.875 h -1.64062 -1.64063 z m 8.20313,0 v -0.875 h 1.36718 1.36719 v 0.875 0.875 h -1.36719 -1.36718 z m 52.18724,0 c 0,-0.5542 0.0305,-0.74935 0.094,-0.60157 0.0517,0.12032 0.094,0.39102 0.094,0.60157 0,0.21054 -0.0423,0.48125 -0.094,0.60156 -0.0635,0.14778 -0.094,-0.0474 -0.094,-0.60156 z m -47.23708,-1.68429 c -0.13483,-0.14225 -0.4273,-0.34508 -0.64994,-0.45073 -0.52087,-0.24717 -1.731,-0.25175 -2.20171,-0.008 -0.18571,0.096 -0.58619,0.17461 -0.88996,0.17461 h -0.5523 v -1.3125 -1.3125 h 2.29687 2.29688 v 1.58593 c 0,0.87227 -0.0123,1.58509 -0.0273,1.58405 -0.015,-0.001 -0.13766,-0.11827 -0.27249,-0.26052 z m -11.84079,-2.14384 c 0,-1.67067 0.0758,-2.17098 0.25719,-1.6982 0.034,0.0887 0.0959,0.92536 0.13761,1.85938 0.0753,1.68853 0.0744,1.6982 -0.15952,1.6982 -0.23156,0 -0.23528,-0.0294 -0.23528,-1.85938 z m 1.49259,1.23047 c -0.0368,-0.3459 -0.0996,-1.20723 -0.13956,-1.91406 l -0.0726,-1.28516 h 5.65532 c 3.74236,0 5.63245,0.037 5.58772,0.10938 -0.0411,0.0666 -0.86775,0.10963 -2.11193,0.11003 -1.12438,3.6e-4 -2.44467,0.0318 -2.93399,0.0699 l -0.88966,0.0693 -0.3545,1.16055 c -0.64357,2.10695 -0.73857,2.30899 -1.08569,2.30899 h -0.30536 l -0.0545,-1.04222 c -0.03,-0.57322 -0.09,-1.07771 -0.13341,-1.12109 -0.0958,-0.0958 -2.42923,-0.0983 -2.52481,-0.003 -0.0373,0.0373 -0.0959,0.53988 -0.13037,1.1169 -0.0534,0.896 -0.0901,1.04913 -0.25114,1.04913 -0.14887,0 -0.20264,-0.13237 -0.25547,-0.62891 z m 55.9289,-0.0547 c -0.14538,-0.34049 -1.85899,-6.15002 -1.85899,-6.30238 0,-0.0747 0.21035,-0.1234 0.53361,-0.1234 0.48015,0 0.5456,0.0301 0.65341,0.30078 0.12311,0.3091 1.87548,6.20716 1.87548,6.31245 0,0.0323 -0.24715,0.0587 -0.54922,0.0587 -0.46551,0 -0.56523,-0.0375 -0.65429,-0.2461 z M 53.921875,145.62878 v -0.4375 h 1.367188 1.367187 v 0.4375 0.4375 h -1.367187 -1.367188 z m 100.038715,0.0335 c -0.0957,-0.0957 1.13159,-1.346 1.32114,-1.346 0.25004,0 0.15127,0.15989 -0.49193,0.79639 -0.65208,0.64528 -0.70108,0.67775 -0.82921,0.54961 z m -73.865192,-1.35477 c -0.57813,-0.28617 -0.967946,-0.99738 -0.848634,-1.54831 0.230953,-1.06644 1.305616,-1.58349 2.305266,-1.10913 1.086409,0.51554 1.175506,1.93138 0.164761,2.6182 -0.48501,0.32957 -1.009226,0.34226 -1.621393,0.0392 z m 62.994442,-4.46014 c -1.07624,-0.98884 -1.37697,-1.32797 -1.1776,-1.32797 0.0291,0 0.59591,-0.14765 1.25963,-0.32812 0.66373,-0.18047 1.23057,-0.32813 1.25964,-0.32813 0.0779,0 0.0487,2.05261 -0.0373,2.62379 l -0.0739,0.49097 z m -79.697695,-0.74222 c -6.912835,-0.0813 -12.590176,-0.16916 -12.616313,-0.19529 -0.02614,-0.0261 0.08622,-0.29325 0.249683,-0.59359 0.211358,-0.38833 0.284261,-0.65695 0.25239,-0.92994 -0.04462,-0.38223 -0.04267,-0.38414 0.451921,-0.44341 0.273205,-0.0327 9.380721,-0.1171 20.238924,-0.18747 20.193845,-0.13085 55.6687,-0.0537 59.11719,0.12864 2.21242,0.11695 6.4748,0.305 9.24218,0.40773 l 2.13282,0.0792 -0.92609,0.25787 -0.92609,0.25787 -28.4411,-0.0391 c -15.642603,-0.0215 -28.847508,0.003 -29.344232,0.0544 -0.988578,0.10233 -0.913219,0.0334 -1.06427,0.97292 l -0.06594,0.41016 -2.866138,-0.0161 c -1.576376,-0.009 -8.522094,-0.0826 -15.43493,-0.16385 z"
         id="path4"
         sodipodi:nodetypes="ssssssssscccsssccccccccccsscsscssssscccssssscscssscccssscccccssscsssscccsssssccssscsccccscsssscscscccccccccccsssssccccsscsssssscssssssscccccccsssssccssssssssssscscsssccssssssscsscssssssssssccssscccssssscssssccccssccsscccsccssccsscccccsscsscssssssscccccccssscssscsscssccsssssscccssccccccscsccccccccccccccccccccccccccccscsccccccccccccccccccccccsscccsscccscccssccccccssssssscssccccsccccsccsssscscsscsccscscccccccccsssssssccscssccsccsccccccssssscccccssssccsscccccccccccsscsccccscsccsssssccccccccccccccccccscsssccccccccccccccccccssssscscscccccssccsscsscccscsscsscccccsccsssssssscccccccccsssscsssccssssscscssscssscccssscccc"
         inkscape:label="BaseDeck" /><path
         style="fill:#4d4d4d;stroke:none;stroke-width:1.32292;stroke-linecap:square;stroke-linejoin:round;stroke-dasharray:13.2292, 18.5208, 13.2292, 18.5208"
         d="m 9.7842815,146.93696 -0.708733,10.40709 0.6580867,8.80624 0.2565109,2.79088 8.6682789,0.15685 32.788541,-0.20094 -0.167203,-1.43671 -0.181004,-1.63018 0.150537,-17.1183 0.398817,-1.60416 -7.947027,-0.45012 z"
         id="path5"
         transform="translate(-1.1996308,-9.2370924)"
         inkscape:label="LandingColor" /><path
         id="rect7"
         style="opacity:1;fill:#333333;stroke:none;stroke-width:1.32292;stroke-linecap:square;stroke-linejoin:round;stroke-dasharray:13.2292, 18.5208, 13.2292, 18.5208"
         d="m 88.944944,143.43505 0.09232,10.54844 11.551536,1.29958 -3.2e-4,-12.98089 z m 2.615265,2.02726 4.800097,-0.4592 v 7.41866 l -4.814086,-0.3195 z"
         sodipodi:nodetypes="cccccccccc"
         inkscape:label="SmokeStackColor" /><path
         id="path8"
         style="opacity:1;fill:#ececec;stroke:none;stroke-width:1.51956;stroke-linecap:square;stroke-linejoin:round;stroke-dasharray:15.1956, 21.2738, 15.1956, 21.2738"
         inkscape:label="RadarDome"
         d="m 80.84084,141.17026 a 1.887448,1.9255452 0 0 0 -1.88774,1.92599 1.887448,1.9255452 0 0 0 1.88774,1.92546 1.887448,1.9255452 0 0 0 1.887223,-1.92546 1.887448,1.9255452 0 0 0 -1.887223,-1.92599 z m 0.02945,11.18847 a 1.887448,1.9255452 0 0 0 -1.887223,1.92598 1.887448,1.9255452 0 0 0 1.887223,1.92546 1.887448,1.9255452 0 0 0 1.88774,-1.92546 1.887448,1.9255452 0 0 0 -1.88774,-1.92598 z" /><path
         id="path20"
         style="opacity:1;fill:#4d4d4d;stroke:none;stroke-width:0.469;stroke-linecap:square;stroke-linejoin:round;stroke-dasharray:none"
         d="m 146.23604,146.25567 -0.23617,4.29845 1.33274,1.65158 0.0171,11.50007 -1.34979,1.29398 v 4.54546 l 8.00003,-0.23771 22.00021,-2.51768 17.99993,-5.08548 6.60735,-3.30057 0.0212,-1.09193 -10.06553,-4.31188 -12.56306,-3.31039 -11.69696,-2.01745 z m 10.12599,6.74429 6.9386,1.77302 0.69918,1.2268 h 8.76639 l -0.0879,4.00027 h -8.67854 l -0.99994,0.99994 -6.50606,2.28772 -2.49391,-3.28766 v -4.59817 z"
         transform="translate(-1.1996308,-9.2370924)"
         inkscape:label="DarkBow" /><g
         id="g2"
         inkscape:label="DeckObjects"><ellipse
           style="opacity:1;fill:#333333;fill-opacity:1;stroke:none;stroke-width:0.250724;stroke-linecap:square;stroke-linejoin:round"
           id="path1"
           cx="183.01436"
           cy="148.66335"
           rx="1.2139922"
           ry="0.99999994"
           inkscape:label="Obj1" /><ellipse
           style="opacity:1;fill:#333333;fill-opacity:1;stroke:none;stroke-width:0.250724;stroke-linecap:square;stroke-linejoin:round"
           id="ellipse1"
           cx="180.30043"
           cy="150.66335"
           rx="1.2139922"
           ry="0.99999994"
           inkscape:label="Obj2" /><ellipse
           style="opacity:1;fill:#333333;fill-opacity:1;stroke:none;stroke-width:0.250724;stroke-linecap:square;stroke-linejoin:round"
           id="ellipse2"
           cx="180.30043"
           cy="146.74039"
           rx="1.2139922"
           ry="0.99999994"
           inkscape:label="Obj3" /></g><path
         style="fill:#0a0a0a"
         d="M 76.5625,161.63927 C 58.544845,161.5133 42.435454,161.33229 20.070313,161.00451 l -9.734375,-0.14266 -1.0653073,-0.36286 c -0.7748338,-0.26392 -1.0840928,-0.42204 -1.1342041,-0.57993 -0.037893,-0.11939 -0.2507279,-2.69449 -0.4729655,-5.72243 l -0.4040684,-5.50535 0.4040684,-5.50536 c 0.2222376,-3.02794 0.4350721,-5.60303 0.4729655,-5.72243 0.050111,-0.15788 0.3593768,-0.31601 1.1342041,-0.57994 l 1.0653073,-0.36286 9.679687,-0.14204 c 36.72127,-0.53884 48.507016,-0.63472 78.203125,-0.63619 22.47258,-0.001 28.7176,0.0315 35.38281,0.18465 7.42466,0.17063 14.86449,0.4137 17.44531,0.56995 14.43174,0.87376 22.7313,2.1831 32.93602,5.19601 5.75905,1.70034 11.84822,3.8932 14.37146,5.17551 0.9566,0.48614 1.27252,0.70755 1.55581,1.09034 0.1955,0.26418 0.35547,0.59374 0.35547,0.73236 0,0.13861 -0.15997,0.46817 -0.35547,0.73235 -0.28329,0.3828 -0.59921,0.6042 -1.55581,1.09034 -2.52324,1.28232 -8.61241,3.47517 -14.37146,5.17551 -11.36075,3.35423 -21.35205,4.77241 -38.18602,5.42021 -10.01219,0.38529 -18.98104,0.49824 -42.05468,0.52962 -12.512503,0.017 -24.743362,0.017 -27.17969,-4e-5 z m 54.57812,-1.13782 c 2.04833,-0.11361 6.27737,-0.30264 9.1875,-0.41068 l 2.13282,-0.0792 -0.92969,-0.26144 -0.92969,-0.26145 -26.57812,0.0673 c -23.189333,0.0587 -31.869777,0.0129 -32.051738,-0.16904 -0.02655,-0.0266 -0.0982,-0.31148 -0.159202,-0.63316 -0.06101,-0.32169 -0.130499,-0.60446 -0.154429,-0.62839 -0.05415,-0.0542 -30.827742,0.29285 -30.883124,0.34823 -0.02211,0.0221 0.07363,0.25416 0.212766,0.51565 0.339331,0.63775 0.398712,0.86831 0.296657,1.15185 -0.07982,0.22177 -0.04521,0.24344 0.48279,0.30227 2.165081,0.24121 75.10914,0.29457 79.37346,0.0581 z m 20.50782,-0.8765 c 5.24272,-0.36531 8.40368,-0.63943 12.02946,-1.04317 1.92402,-0.21425 3.51479,-0.40611 3.53505,-0.42637 0.046,-0.0459 2.09653,-6.86325 2.09828,-6.97585 7e-4,-0.0451 -1.36017,-0.082 -3.02415,-0.082 h -3.02542 l -0.77536,0.58339 c -0.75385,0.5672 -0.85881,0.60817 -3.78318,1.4766 -1.65429,0.49127 -3.18831,0.8932 -3.40893,0.89317 -0.3288,-3e-5 -0.52635,-0.10828 -1.09568,-0.60038 -0.38201,-0.33018 -0.9644,-0.90688 -1.2942,-1.28155 l -0.59962,-0.68121 v -2.79915 -2.79915 l 0.56862,-0.63798 c 0.31275,-0.35089 0.89342,-0.9263 1.29039,-1.27868 0.60376,-0.53595 0.78795,-0.6407 1.12668,-0.64073 0.22271,-3e-5 1.75845,0.4019 3.41274,0.89317 2.92437,0.86843 3.02933,0.9094 3.78318,1.4766 l 0.77536,0.5834 h 3.02542 c 1.66398,0 3.02485,-0.0369 3.02415,-0.082 -0.002,-0.11261 -2.05233,-6.92991 -2.09828,-6.97585 -0.0851,-0.0851 -7.2953,-0.83691 -10.42389,-1.08684 -3.96698,-0.31691 -9.95552,-0.71466 -10.75989,-0.71466 h -0.56042 v 2.09678 2.09679 l 0.57422,0.5143 0.57422,0.51431 v 6.04345 6.04345 l -0.57422,0.5143 -0.57422,0.51431 v 2.11307 2.11308 l 1.55859,-0.0756 c 0.85723,-0.0416 2.93672,-0.1716 4.6211,-0.28897 z m -7.17217,-1.17195 c -0.004,-0.58653 -0.0414,-1.28735 -0.082,-1.55738 l -0.0739,-0.49097 -1.23047,1.13054 c -0.67675,0.62179 -1.23047,1.16956 -1.23047,1.21727 0,0.0477 0.40606,0.19348 0.90235,0.32394 0.49629,0.13047 1.02539,0.27964 1.17578,0.33148 0.5424,0.18696 0.54738,0.17814 0.53877,-0.95488 z m -94.49195,0.875 c -3e-5,-0.0451 -0.110773,-0.35274 -0.246094,-0.6836 l -0.246038,-0.60156 v -9.29688 -9.29687 l 0.25527,-0.69265 c 0.140398,-0.38095 0.236957,-0.71096 0.214576,-0.73334 -0.05514,-0.0551 -40.8764993,0.12431 -40.9321217,0.17993 -0.024212,0.0242 -0.2156847,2.39397 -0.4254949,5.26613 l -0.3814731,5.22212 0.3814731,5.22211 c 0.2098102,2.87216 0.4058735,5.24651 0.4356962,5.27633 0.029823,0.0298 7.2980364,0.0822 16.1515864,0.11639 8.853549,0.0342 18.053808,0.0716 20.445019,0.083 2.391211,0.0115 4.347631,-0.016 4.347601,-0.0611 z m 90.89481,-1.11665 0.37868,-0.32368 -4.75781,-0.0318 c -5.10556,-0.0341 -6.57644,-0.0493 -6.98674,-0.072 -0.30366,-0.0169 -2.20077,-1.81418 -2.20075,-2.08501 1e-5,-0.15421 -0.74849,-0.17162 -7.37889,-0.17162 -6.79313,0 -7.39362,-0.0147 -7.56447,-0.18556 -0.15876,-0.15874 -0.19309,-0.51049 -0.23748,-2.43359 -0.0517,-2.23805 -0.053,-2.24803 -0.29622,-2.24803 h -0.24431 l -0.0492,3.0062 c -0.027,1.65341 -0.0868,3.04384 -0.13281,3.08984 -0.046,0.046 -0.94266,0.0836 -1.99258,0.0836 -1.52865,0 -1.928,-0.0308 -2.00467,-0.15489 -0.19126,-0.30947 -0.24598,-2.70675 -0.20619,-9.03261 0.0299,-4.75671 0.0751,-6.51434 0.17203,-6.68601 0.1118,-0.1981 0.27244,-0.24463 1.07538,-0.31152 0.51917,-0.0433 1.38525,-0.0437 1.92463,-0.001 0.92423,0.0731 0.9876,0.0942 1.10092,0.36621 0.0779,0.18698 0.1149,1.24164 0.10508,2.99562 l -0.0152,2.70703 h 0.25559 0.25558 l 0.0519,-2.24804 c 0.0444,-1.9231 0.0787,-2.27485 0.23748,-2.43359 0.17085,-0.17083 0.77134,-0.18556 7.56447,-0.18556 6.53368,0 7.3789,-0.0191 7.37889,-0.16648 -10e-6,-0.0916 0.41744,-0.58176 0.92766,-1.08933 l 0.92768,-0.92286 0.79498,-0.0797 c 0.43724,-0.0438 3.15748,-0.0847 6.04498,-0.0909 l 5.25,-0.0112 -0.37868,-0.32368 -0.37868,-0.32368 h -28.6255 -28.625491 l 1.222927,1.97729 1.222927,1.97728 1.53125,-0.0493 c 0.842187,-0.0271 3.401562,-0.25949 5.6875,-0.51644 4.287215,-0.48191 7.033171,-0.59804 7.915417,-0.33476 0.2027,0.0605 0.57798,0.0813 0.83396,0.0462 l 0.46542,-0.0638 0.0655,-0.55286 c 0.036,-0.30407 0.11809,-0.60546 0.1824,-0.66976 0.0734,-0.0734 0.78535,-0.11723 1.91304,-0.11776 1.57883,-7.3e-4 1.81976,0.0228 1.99146,0.1944 0.18272,0.18263 0.19738,0.64178 0.22704,7.10938 0.0174,3.80278 -0.007,7.3325 -0.0547,7.84383 l -0.0864,0.92968 -1.01172,0.097 c -0.58859,0.0564 -1.43485,0.0564 -2.02344,0 l -1.01172,-0.097 -0.0999,-0.5618 c -0.0991,-0.55686 -0.104,-0.56237 -0.56114,-0.62502 -0.25366,-0.0348 -0.62705,-0.0137 -0.82975,0.0468 -0.882246,0.26328 -3.628202,0.14715 -7.915417,-0.33475 -2.285938,-0.25696 -4.845313,-0.48935 -5.6875,-0.51645 l -1.53125,-0.0493 -1.222927,1.97729 -1.222927,1.97729 h 28.625491 28.6255 z m 28.96414,-0.74273 c 0.12311,-0.3091 1.87548,-6.20716 1.87548,-6.31245 0,-0.0323 -0.24715,-0.0586 -0.54922,-0.0586 -0.46551,0 -0.56523,0.0375 -0.65429,0.24609 -0.14538,0.34049 -1.85899,6.15002 -1.85899,6.30238 0,0.0748 0.21035,0.1234 0.53361,0.1234 0.48015,0 0.5456,-0.0301 0.65341,-0.30078 z m 3.11181,-0.18807 c 4.14854,-0.67415 12.07617,-2.7608 17.083,-4.49647 4.384,-1.51976 8.56304,-3.30725 8.94749,-3.82709 0.1891,-0.25569 0.1891,-0.27574 0,-0.53143 -0.11688,-0.15805 -0.81698,-0.55401 -1.72776,-0.9772 -4.91795,-2.28507 -12.33742,-4.69604 -19.54061,-6.34975 -3.26339,-0.74921 -6.68833,-1.37891 -6.81436,-1.25289 -0.029,0.0291 0.51178,1.96001 1.20185,4.291 0.69008,2.33099 1.25468,4.38072 1.25468,4.55497 0,0.23528 -1.55372,5.68423 -2.47148,8.66756 -0.0782,0.25419 0.0483,0.24937 2.06719,-0.0787 z m 6.7366,-5.16101 c -0.15668,-0.027 -0.44051,-0.20967 -0.63073,-0.40593 -0.65009,-0.67072 -0.63657,-1.38161 0.0387,-2.03612 0.36627,-0.35499 0.42802,-0.37512 1.13119,-0.36868 0.85788,0.008 1.23374,0.19453 1.45184,0.72107 0.28013,0.67629 0.0959,1.55716 -0.39265,1.87726 -0.26989,0.17684 -1.13649,0.292 -1.59836,0.2124 z m 1.04269,-1.08451 c 0.0945,-0.0945 0.17188,-0.23868 0.17188,-0.32032 0,-0.0816 -0.0773,-0.22578 -0.17188,-0.32031 -0.33035,-0.33036 -0.8125,-0.14028 -0.8125,0.32031 0,0.4606 0.48215,0.65067 0.8125,0.32032 z m 1.85042,-0.93794 c -0.82054,-0.18425 -1.20932,-0.84254 -1.05591,-1.78791 0.0845,-0.52036 0.49009,-0.89289 1.1192,-1.02781 0.69032,-0.14805 1.17691,-0.007 1.64734,0.47871 0.32209,0.33233 0.37165,0.45648 0.37165,0.9312 0,0.47471 -0.0496,0.59887 -0.37165,0.93119 -0.30485,0.31452 -0.96266,0.63626 -1.20167,0.58773 -0.0301,-0.006 -0.25911,-0.057 -0.50896,-0.11311 z m 1.11052,-1.40581 c 0,-0.13572 -0.10072,-0.31364 -0.22382,-0.39537 -0.19088,-0.12674 -0.2593,-0.12377 -0.46484,0.0202 -0.13257,0.0928 -0.24103,0.26168 -0.24103,0.37517 0,0.11349 0.10846,0.28231 0.24103,0.37516 0.20554,0.14397 0.27396,0.14694 0.46484,0.0202 0.1231,-0.0817 0.22382,-0.25966 0.22382,-0.39537 z m 4.40235,0.3621 c -0.14131,-0.0369 -0.19141,-0.16244 -0.19141,-0.4795 0,-0.38254 0.0292,-0.42948 0.26724,-0.42948 0.15216,0 0.34055,0.10467 0.4375,0.24309 0.21206,0.30276 0.2119,0.35589 -0.002,0.56941 -0.17753,0.17753 -0.19149,0.18017 -0.51171,0.0965 z m -8.40598,-0.9827 c -0.15668,-0.0259 -0.44051,-0.20769 -0.63073,-0.40394 -0.65,-0.67063 -0.63657,-1.38161 0.0385,-2.03588 0.36345,-0.35226 0.43231,-0.37519 1.12434,-0.37439 0.85203,9.9e-4 1.23803,0.19321 1.45894,0.72654 0.27695,0.66862 0.0964,1.55684 -0.37999,1.86896 -0.26062,0.17076 -1.16144,0.29306 -1.61102,0.21871 z m 1.04269,-1.08253 c 0.0945,-0.0945 0.17188,-0.23867 0.17188,-0.32031 0,-0.0816 -0.0773,-0.22578 -0.17188,-0.32031 -0.33035,-0.33036 -0.8125,-0.14029 -0.8125,0.32031 0,0.46059 0.48215,0.65067 0.8125,0.32031 z m -111.062495,10.22173 12.195313,-0.12125 0.300781,-0.28164 c 0.417892,-0.3913 0.375627,-0.49625 -0.08936,-0.2219 -0.25393,0.14983 -0.653731,0.24905 -1.145119,0.28421 -0.658855,0.0471 -0.830254,0.0172 -1.346237,-0.23526 -0.912226,-0.44631 -1.473647,-1.52687 -1.313825,-2.5287 0.116079,-0.72763 0.173562,-0.85245 0.611325,-1.32736 0.644154,-0.69883 0.975962,-0.84446 1.943373,-0.85294 1.662729,-0.0146 2.556508,0.87278 2.545844,2.52759 -0.0041,0.64126 -0.05209,0.85381 -0.259336,1.14942 -0.139847,0.19946 0.238294,-0.15004 0.840312,-0.77668 l 1.094579,-1.13935 1.225238,-0.0505 1.225238,-0.0505 v -4.89377 -4.89378 l -1.225238,-0.0505 -1.225238,-0.0505 -1.075309,-1.12448 c -0.700437,-0.73247 -0.992161,-0.98356 -0.836802,-0.72024 0.306401,0.51931 0.330903,1.67671 0.04811,2.27265 -0.44143,0.93024 -1.17215,1.34345 -2.357399,1.33305 -0.967411,-0.008 -1.299219,-0.15412 -1.943373,-0.85294 -0.437763,-0.47492 -0.495246,-0.59973 -0.611325,-1.32737 -0.159822,-1.00183 0.401599,-2.08239 1.313825,-2.5287 0.515983,-0.25245 0.687382,-0.2824 1.346237,-0.23526 0.491388,0.0352 0.891189,0.13439 1.145119,0.28421 0.464988,0.27435 0.507253,0.1694 0.08936,-0.2219 l -0.300781,-0.28163 -12.195313,-0.12125 c -6.707422,-0.0667 -13.758008,-0.15227 -15.667969,-0.19019 l -3.472656,-0.0689 v 3.07636 3.07636 h 1.203125 1.203125 l 0.0012,-0.51953 c 6.62e-4,-0.28575 0.03092,-0.6992 0.06723,-0.91879 l 0.06603,-0.39926 1.075135,-0.077 c 1.155279,-0.0827 3.70484,0.0247 3.93294,0.16571 0.08347,0.0516 0.159782,0.41146 0.191262,0.90199 l 0.05238,0.81616 1.360763,0.0588 c 0.748419,0.0323 1.394538,0.0925 1.435819,0.13382 0.09804,0.098 0.09804,4.82811 0,4.92615 -0.04128,0.0413 -0.6874,0.10151 -1.435819,0.13383 l -1.360763,0.0588 -0.05238,0.81616 c -0.03148,0.49053 -0.10779,0.85041 -0.191262,0.902 -0.2281,0.14097 -2.777661,0.24839 -3.93294,0.1657 l -1.075135,-0.0769 -0.06603,-0.39926 c -0.03631,-0.21959 -0.06657,-0.63304 -0.06723,-0.91878 l -0.0012,-0.51953 H 51.734375 50.53125 v 3.07635 3.07636 l 3.472656,-0.0689 c 1.909961,-0.0379 8.960547,-0.1235 15.667969,-0.19018 z m -2.84375,-5.22148 -0.601562,-0.0706 -0.08844,-0.875 c -0.125462,-1.24125 -0.02297,-5.40108 0.137013,-5.56109 0.08998,-0.09 1.06889,-0.12641 3.398258,-0.12641 2.995149,0 3.288388,0.0165 3.467207,0.19531 0.177865,0.17784 0.19534,0.4588 0.19534,3.14063 0,2.65997 -0.01856,2.96386 -0.191534,3.13684 -0.171229,0.17123 -0.484287,0.19362 -2.953125,0.21119 -1.518875,0.0108 -3.032295,-0.0121 -3.363154,-0.0509 z m 5.578125,-3.29993 v -1.97156 l -0.328125,0.16968 -0.328125,0.16968 v 1.63432 1.63433 l 0.300781,0.16317 c 0.16543,0.0898 0.313086,0.16515 0.328125,0.16756 0.01504,0.002 0.02734,-0.88282 0.02734,-1.96718 z m -1.640625,0.003 V 147.2694 H 69.179688 67.59375 v 1.42188 1.42187 h 1.585938 1.585937 z m 73.178675,6.48047 1.62956,-0.84766 v -5.63281 -5.63282 l -1.62956,-0.84765 -1.62957,-0.84766 -6.27064,0.005 -6.27065,0.005 -0.98438,0.67907 -0.98437,0.67907 v 5.96016 5.96016 l 0.98437,0.67907 0.98438,0.67907 6.27065,0.005 6.27064,0.005 z m -62.39227,0.56073 c 1.086409,-0.51553 1.175506,-1.93138 0.164761,-2.61819 -0.770805,-0.52378 -1.892948,-0.19971 -2.31299,0.66798 -0.640814,1.32375 0.769788,2.60432 2.148229,1.95021 z m 29.0261,-6.54902 v -6.72656 h -1.14844 -1.14844 v 6.72656 6.72657 h 1.14844 1.14844 z m -5.14063,-0.98437 v -6.72656 H 104.34375 103.25 v 6.72656 6.72656 h 1.09375 1.09375 z m -5.619141,6.39844 h 0.369141 v -5.90625 -5.90625 h -0.369141 c -0.203027,0 -0.522949,-0.0308 -0.710937,-0.0684 l -0.341797,-0.0684 v 6.04297 6.04297 l 0.341797,-0.0684 c 0.187988,-0.0376 0.50791,-0.0684 0.710937,-0.0684 z m -2.037109,-5.90625 v -5.90625 h -0.320219 c -0.394374,0 -7.514437,0.74643 -7.855562,0.82354 l -0.246094,0.0556 v 5.02709 5.02708 l 0.246094,0.0562 c 0.391335,0.0894 7.081772,0.79831 7.65625,0.81125 l 0.519531,0.0117 z m -2.023437,4.53279 c -0.120313,-0.0207 -1.293801,-0.14658 -2.607751,-0.27976 -1.851474,-0.18765 -2.442101,-0.28513 -2.625,-0.43323 -0.233167,-0.18881 -0.235999,-0.23465 -0.235999,-3.8198 0,-3.58515 0.0028,-3.631 0.235999,-3.81981 0.181713,-0.14714 0.785528,-0.24904 2.625,-0.44298 2.589623,-0.27303 3.477837,-0.31765 3.613956,-0.18153 0.09324,0.0932 0.12541,8.76366 0.03286,8.85513 -0.08259,0.0816 -0.790517,0.16473 -1.039062,0.12198 z m 0.164062,-4.53279 v -3.39063 l -0.464844,0.009 c -0.255664,0.005 -1.178515,0.0908 -2.050781,0.19141 l -1.585937,0.18283 v 3.00782 3.00781 l 1.53125,0.17869 c 0.842187,0.0983 1.765039,0.18441 2.050781,0.1914 l 0.519531,0.0127 z m 29.695315,5.6875 c -0.0411,-0.0666 -0.86775,-0.10964 -2.11193,-0.11003 -1.12438,-3.6e-4 -2.44467,-0.0318 -2.93399,-0.0699 l -0.88966,-0.0693 -0.3545,-1.16055 c -0.64357,-2.10694 -0.73857,-2.30898 -1.08569,-2.30898 h -0.30536 l -0.0545,1.04221 c -0.03,0.57322 -0.09,1.07771 -0.13341,1.1211 -0.0958,0.0958 -2.42923,0.0983 -2.52481,0.003 -0.0373,-0.0373 -0.0959,-0.53988 -0.13037,-1.1169 -0.0534,-0.89599 -0.0901,-1.04912 -0.25114,-1.04912 -0.21419,0 -0.27252,0.37546 -0.39503,2.54297 l -0.0726,1.28515 h 5.65532 c 3.74236,0 5.63245,-0.037 5.58772,-0.10937 z m -23.46094,-5.6875 v -5.6875 h -0.49219 -0.49218 v 5.6875 5.6875 h 0.49218 0.49219 z m 11.19469,5.52632 c 0.034,-0.0886 0.0959,-0.92536 0.13761,-1.85937 0.0753,-1.68854 0.0744,-1.6982 -0.15952,-1.6982 -0.23156,0 -0.23528,0.0294 -0.23528,1.85937 0,1.67067 0.0758,2.17098 0.25719,1.6982 z m 13.30531,-5.54107 v -5.26475 l -0.21875,0.27809 c -0.21107,0.26834 -0.21875,0.44371 -0.21875,4.99808 0,4.32203 0.0161,4.74218 0.19141,4.98322 0.10527,0.14478 0.20371,0.26478 0.21875,0.26667 0.015,0.002 0.0273,-2.3657 0.0273,-5.26131 z m -1.42187,3.00764 v -1.60085 l -0.27811,0.27811 c -0.15296,0.15295 -0.45773,0.36334 -0.67728,0.46752 -0.51529,0.24452 -1.72817,0.24766 -2.1961,0.006 -0.18571,-0.096 -0.58619,-0.1746 -0.88996,-0.1746 h -0.5523 v 1.3125 1.3125 h 2.29687 2.29688 z m 30.18749,1.29665 c 0,-0.19126 -1.29601,-1.35952 -1.42188,-1.28172 -0.0883,0.0546 0.0765,0.29089 0.50524,0.72411 0.5753,0.58137 0.91664,0.78901 0.91664,0.55761 z m 2.78907,-1.11397 c 0.93192,-0.28129 1.85232,-0.48523 2.35156,-0.52104 0.85354,-0.0612 1.22932,-0.20627 0.96221,-0.37136 -0.10865,-0.0671 -0.1419,-0.60205 -0.1419,-2.28317 0,-1.68113 0.0332,-2.21603 0.1419,-2.28318 0.26969,-0.16668 -0.11174,-0.30954 -1.0169,-0.38087 -0.56201,-0.0443 -1.44229,-0.24387 -2.46094,-0.55797 l -1.58593,-0.48903 -0.79297,0.78638 -0.79297,0.78638 v 2.13298 2.13297 l 0.79186,0.79718 c 0.43552,0.43845 0.84157,0.77822 0.90234,0.75505 0.0608,-0.0232 0.79955,-0.25012 1.64174,-0.50432 z M 56.65625,151.75378 v -0.4375 h -1.367187 -1.367188 v 0.4375 0.4375 h 1.367188 1.367187 z m 60.18703,-0.94529 c 0.0414,-0.69443 0.1161,-1.10784 0.21859,-1.21034 0.0934,-0.0934 0.49056,-0.18099 0.99221,-0.21893 l 0.83655,-0.0633 v -0.62467 -0.62468 l -0.83655,-0.0633 c -0.50165,-0.0379 -0.89886,-0.12558 -0.99221,-0.21893 -0.10249,-0.1025 -0.17716,-0.51591 -0.21859,-1.21033 -0.0606,-1.01668 -0.0722,-1.05467 -0.32029,-1.05467 h -0.25736 v 3.17188 3.17187 h 0.25736 c 0.2481,0 0.25964,-0.038 0.32029,-1.05466 z m 36.76496,0.004 c 0.14927,-0.0573 0.17301,-0.34837 0.17301,-2.12111 0,-2.12137 -0.0135,-2.1875 -0.44645,-2.1875 -0.0576,0 -0.10043,0.93198 -0.10043,2.1875 0,1.25552 0.0428,2.1875 0.10043,2.1875 0.0552,0 0.17829,-0.0299 0.27344,-0.0664 z m -94.217615,-2.12111 v -1.64063 h -4.375 -4.375 v 1.64063 1.64062 h 4.375 4.375 z m 111.671875,0 v -1.42188 h -4.32031 -4.32032 v 1.42188 1.42187 h 4.32032 4.32031 z m -46.66118,0.64836 c 0.32972,-0.55816 0.14379,-1.39582 -0.38281,-1.72469 -0.19708,-0.12308 -0.20601,-0.0764 -0.20601,1.07633 0,1.15276 0.009,1.1994 0.20601,1.07632 0.1133,-0.0708 0.28557,-0.26334 0.38281,-0.42796 z m -9.33882,-0.64836 v -0.875 h -1.64062 -1.64063 v 0.875 0.875 h 1.64063 1.64062 z m 7.65625,0 v -0.875 h -1.36719 -1.36718 v 0.875 0.875 h 1.36718 1.36719 z m 49.64088,0 c 0,-0.21055 -0.0423,-0.48125 -0.094,-0.60157 -0.0635,-0.14778 -0.094,0.0474 -0.094,0.60157 0,0.55419 0.0305,0.74934 0.094,0.60156 0.0517,-0.12031 0.094,-0.39102 0.094,-0.60156 z m -47.12525,-3.00782 v -1.58593 h -2.29688 -2.29687 v 1.3125 1.3125 h 0.5523 c 0.30377,0 0.70425,-0.0786 0.88996,-0.17461 0.47071,-0.24341 1.68084,-0.23883 2.20171,0.008 0.22264,0.10565 0.51511,0.30848 0.64994,0.45073 0.13483,0.14225 0.25745,0.25948 0.27249,0.26052 0.015,0.001 0.0273,-0.71178 0.0273,-1.58405 z m -11.74583,-0.65913 c -0.0417,-0.93402 -0.10359,-1.77073 -0.13761,-1.85938 -0.18142,-0.47278 -0.25719,0.0275 -0.25719,1.6982 0,1.83001 0.004,1.85938 0.23528,1.85938 0.23394,0 0.23485,-0.01 0.15952,-1.6982 z m 1.6044,0.64907 c 0.0344,-0.57702 0.0931,-1.07962 0.13037,-1.1169 0.0956,-0.0956 2.42899,-0.0931 2.52481,0.003 0.0434,0.0434 0.10343,0.54787 0.13341,1.12109 l 0.0545,1.04222 h 0.30536 c 0.34712,0 0.44212,-0.20204 1.08569,-2.30899 l 0.3545,-1.16055 0.88966,-0.0693 c 0.48932,-0.0381 1.80961,-0.0696 2.93399,-0.0699 1.24418,-4e-4 2.07079,-0.0435 2.11193,-0.11003 0.0447,-0.0724 -1.84536,-0.10938 -5.58772,-0.10938 h -5.65532 l 0.0726,1.28516 c 0.12251,2.1675 0.18084,2.54297 0.39503,2.54297 0.16103,0 0.19769,-0.15313 0.25114,-1.04913 z m 56.6258,0.55298 c 0,-0.10529 -1.75237,-6.00335 -1.87548,-6.31245 -0.10781,-0.27065 -0.17326,-0.30078 -0.65341,-0.30078 -0.32326,0 -0.53361,0.0487 -0.53361,0.1234 0,0.15236 1.71361,5.96189 1.85899,6.30238 0.0891,0.20859 0.18878,0.2461 0.65429,0.2461 0.30207,0 0.54922,-0.0264 0.54922,-0.0587 z m -115.0625,-0.5976 v -0.4375 h -1.367187 -1.367188 v 0.4375 0.4375 h 1.367188 1.367187 z m 98.13355,-0.51611 c 0.6432,-0.6365 0.74197,-0.79639 0.49193,-0.79639 -0.18955,0 -1.41681,1.25034 -1.32114,1.346 0.12813,0.12814 0.17713,0.0957 0.82921,-0.54961 z m -73.073009,-0.8444 c 1.309842,-0.89006 0.670486,-2.79574 -0.937971,-2.79574 -1.606798,0 -2.118926,2.12441 -0.683422,2.83498 0.612167,0.30302 1.136383,0.29033 1.621393,-0.0392 z m 62.759479,-5.33871 c 0.004,-0.58653 -0.0157,-1.06641 -0.0448,-1.06641 -0.0291,0 -0.59591,0.14766 -1.25964,0.32813 -0.66372,0.18047 -1.23056,0.32812 -1.25963,0.32812 -0.19937,0 0.10136,0.33913 1.1776,1.32797 l 1.23047,1.13054 0.0739,-0.49097 c 0.0406,-0.27004 0.0776,-0.97086 0.082,-1.55738 z m -62.717112,-0.0547 c 0.151051,-0.93948 0.07569,-0.87059 1.06427,-0.97292 0.496724,-0.0514 13.701629,-0.0759 29.344232,-0.0544 l 28.4411,0.0391 0.92609,-0.25787 0.92609,-0.25787 -2.13282,-0.0792 c -2.76738,-0.10273 -7.02976,-0.29078 -9.24218,-0.40773 -3.44849,-0.1823 -38.923345,-0.25949 -59.11719,-0.12864 -10.858203,0.0704 -19.965719,0.15472 -20.238924,0.18747 -0.494596,0.0593 -0.496543,0.0612 -0.451921,0.44341 0.03187,0.27299 -0.04103,0.54161 -0.25239,0.92994 -0.163463,0.30034 -0.275821,0.56745 -0.249683,0.59359 0.0449,0.0449 21.892724,0.32461 28.051243,0.35914 l 2.866138,0.0161 z"
         id="path3"
         inkscape:label="Outline" /></g></g><g
     inkscape:groupmode="layer"
     id="layer2"
     inkscape:label="DeckMarkings"
     transform="translate(-8.4590235,-144.97953)"><path
       id="path19"
       style="opacity:1;fill:none;stroke:#d4aa00;stroke-width:0.469;stroke-linecap:square;stroke-linejoin:round;stroke-dasharray:none"
       d="m 159.00011,167.00014 c 4.04715,-0.002 7.92372,-2.40312 8.99989,-6.30457 M 168,155 c -1.06322,-3.9218 -4.93649,-5.99949 -8.99986,-5.99979"
       sodipodi:nodetypes="cccc"
       inkscape:label="GunArc" /><path
       style="opacity:1;fill:none;stroke:#ffffff;stroke-width:0.923;stroke-linecap:square;stroke-linejoin:round;stroke-dasharray:none"
       d="m 10.697452,148 29.302549,-1e-5 v 20 L 10.697452,168 10,157.99999 Z"
       id="path9"
       inkscape:label="HeloArea"
       sodipodi:nodetypes="cccccc" /><path
       style="opacity:1;fill:none;stroke:#ffffff;stroke-width:0.922999;stroke-linecap:square;stroke-linejoin:round;stroke-dasharray:none"
       d="M 21,157.99999 H 50.15136"
       id="path10"
       inkscape:label="MiddleMark"
       sodipodi:nodetypes="cc" /><circle
       style="opacity:1;fill:none;stroke:#ffffff;stroke-width:0.469;stroke-linecap:square;stroke-linejoin:round;stroke-dasharray:none"
       id="path11"
       r="4.0000005"
       cy="158"
       cx="25"
       inkscape:label="HeloSpot" /><path
       style="opacity:1;fill:none;stroke:#ffffff;stroke-width:0.469;stroke-linecap:square;stroke-linejoin:round;stroke-dasharray:none"
       d="m 34.000001,154.99999 v 6"
       id="path12"
       inkscape:label="HeloMarking" /><g
       id="g18"
       inkscape:label="HeloTriangles"><path
         sodipodi:type="star"
         style="opacity:1;fill:#ffffff;stroke:none;stroke-width:0.469;stroke-linecap:square;stroke-linejoin:round;stroke-dasharray:none"
         id="path13"
         inkscape:flatsided="false"
         sodipodi:sides="3"
         sodipodi:cx="20"
         sodipodi:cy="151.99998"
         sodipodi:r1="1"
         sodipodi:r2="0.5"
         sodipodi:arg1="3.1415927"
         sodipodi:arg2="4.1887902"
         inkscape:rounded="0"
         inkscape:randomized="0"
         d="m 19,151.99998 0.75,-0.43301 0.75,-0.43301 0,0.86602 0,0.86603 -0.75,-0.43301 z"
         inkscape:transform-center-x="0.25000025"
         inkscape:transform-center-y="-1.9149605e-06"
         transform="matrix(1.99584,0,0,1.8144,-20.04284,-119.46766)"
         inkscape:label="HeloTri" /><path
         sodipodi:type="star"
         style="opacity:1;fill:#ffffff;stroke:none;stroke-width:0.469;stroke-linecap:square;stroke-linejoin:round;stroke-dasharray:none"
         id="path14"
         inkscape:flatsided="false"
         sodipodi:sides="3"
         sodipodi:cx="20"
         sodipodi:cy="151.99998"
         sodipodi:r1="1"
         sodipodi:r2="0.5"
         sodipodi:arg1="3.1415927"
         sodipodi:arg2="4.1887902"
         inkscape:rounded="0"
         inkscape:randomized="0"
         d="m 19,151.99998 0.75,-0.43301 0.75,-0.43301 0,0.86602 0,0.86603 -0.75,-0.43301 z"
         inkscape:transform-center-x="0.25000025"
         inkscape:transform-center-y="-1.9149605e-06"
         transform="matrix(1.99584,0,0,1.8144,-20.04284,-125.78878)"
         inkscape:label="HeloTri" /><path
         sodipodi:type="star"
         style="opacity:1;fill:#ffffff;stroke:none;stroke-width:0.469;stroke-linecap:square;stroke-linejoin:round;stroke-dasharray:none"
         id="path15"
         inkscape:flatsided="false"
         sodipodi:sides="3"
         sodipodi:cx="20"
         sodipodi:cy="151.99998"
         sodipodi:r1="1"
         sodipodi:r2="0.5"
         sodipodi:arg1="3.1415927"
         sodipodi:arg2="4.1887902"
         inkscape:rounded="0"
         inkscape:randomized="0"
         d="m 19,151.99998 0.75,-0.43301 0.75,-0.43301 0,0.86602 0,0.86603 -0.75,-0.43301 z"
         inkscape:transform-center-x="0.25000025"
         inkscape:transform-center-y="-1.9149605e-06"
         transform="matrix(1.99584,0,0,1.8144,-20.04284,-122.61029)"
         inkscape:label="HeloTri" /><path
         sodipodi:type="star"
         style="opacity:1;fill:#ffffff;stroke:none;stroke-width:0.469;stroke-linecap:square;stroke-linejoin:round;stroke-dasharray:none"
         id="path16"
         inkscape:flatsided="false"
         sodipodi:sides="3"
         sodipodi:cx="20"
         sodipodi:cy="151.99998"
         sodipodi:r1="1"
         sodipodi:r2="0.5"
         sodipodi:arg1="3.1415927"
         sodipodi:arg2="4.1887902"
         inkscape:rounded="0"
         inkscape:randomized="0"
         d="m 19,151.99998 0.75,-0.43301 0.75,-0.43301 0,0.86602 0,0.86603 -0.75,-0.43301 z"
         inkscape:transform-center-x="0.25000025"
         inkscape:transform-center-y="-1.9149605e-06"
         transform="matrix(1.99584,0,0,1.8144,-20.04284,-109.89634)"
         inkscape:label="HeloTri" /><path
         sodipodi:type="star"
         style="opacity:1;fill:#ffffff;stroke:none;stroke-width:0.469;stroke-linecap:square;stroke-linejoin:round;stroke-dasharray:none"
         id="path17"
         inkscape:flatsided="false"
         sodipodi:sides="3"
         sodipodi:cx="20"
         sodipodi:cy="151.99998"
         sodipodi:r1="1"
         sodipodi:r2="0.5"
         sodipodi:arg1="3.1415927"
         sodipodi:arg2="4.1887902"
         inkscape:rounded="0"
         inkscape:randomized="0"
         d="m 19,151.99998 0.75,-0.43301 0.75,-0.43301 0,0.86602 0,0.86603 -0.75,-0.43301 z"
         inkscape:transform-center-x="0.25000025"
         inkscape:transform-center-y="-1.9149605e-06"
         transform="matrix(1.99584,0,0,1.8144,-20.04284,-116.21746)"
         inkscape:label="HeloTri" /><path
         sodipodi:type="star"
         style="opacity:1;fill:#ffffff;stroke:none;stroke-width:0.469;stroke-linecap:square;stroke-linejoin:round;stroke-dasharray:none"
         id="path18"
         inkscape:flatsided="false"
         sodipodi:sides="3"
         sodipodi:cx="20"
         sodipodi:cy="151.99998"
         sodipodi:r1="1"
         sodipodi:r2="0.5"
         sodipodi:arg1="3.1415927"
         sodipodi:arg2="4.1887902"
         inkscape:rounded="0"
         inkscape:randomized="0"
         d="m 19,151.99998 0.75,-0.43301 0.75,-0.43301 0,0.86602 0,0.86603 -0.75,-0.43301 z"
         inkscape:transform-center-x="0.25000025"
         inkscape:transform-center-y="-1.9149605e-06"
         transform="matrix(1.99584,0,0,1.8144,-20.04284,-113.03897)"
         inkscape:label="HeloTri" /></g><g
       id="g4"
       inkscape:label="ShipID"><text
         xml:space="preserve"
         style="font-weight:bold;font-size:2.11667px;font-family:'DejaVu Sans';-inkscape-font-specification:'DejaVu Sans Bold';text-align:center;text-anchor:middle;fill:#000000;stroke-width:0.469;stroke-linecap:square;stroke-linejoin:round"
         x="-156.88422"
         y="13.896958"
         id="text4"
         transform="rotate(-90)"
         inkscape:label="ShipIDShadow"><tspan
           sodipodi:role="line"
           id="tspan3"
           style="font-size:3.52778px;fill:#000000;stroke-width:0.469"
           x="-156.88422"
           y="13.896958">201</tspan><tspan
           sodipodi:role="line"
           style="font-size:2.11667px;fill:#000000;stroke-width:0.469"
           x="-156.88422"
           y="17.058182"
           id="tspan4" /></text><text
         xml:space="preserve"
         style="font-weight:bold;font-size:2.11667px;font-family:'DejaVu Sans';-inkscape-font-specification:'DejaVu Sans Bold';text-align:center;text-anchor:middle;display:inline;fill:#000000;stroke-width:0.469;stroke-linecap:square;stroke-linejoin:round"
         x="-157.04352"
         y="13.772073"
         id="text1"
         transform="rotate(-90)"
         inkscape:label="ShipIDLight"><tspan
           sodipodi:role="line"
           id="tspan1"
           style="font-size:3.52778px;fill:#ffffff;stroke-width:0.469"
           x="0"
           y="0">201</tspan><tspan
           sodipodi:role="line"
           style="font-size:2.11667px;fill:#000000;stroke-width:0.469"
           x="0"
           y="0"
           id="tspan2" /></text></g></g></svg>
