<?xml version="1.0" encoding="UTF-8" standalone="no"?>
<!-- Created with Inkscape (http://www.inkscape.org/) -->

<svg
   width="433.39337mm"
   height="312.79794mm"
   viewBox="0 0 433.39337 312.79794"
   version="1.1"
   id="svg1"
   xml:space="preserve"
   inkscape:version="1.3 (0e150ed6c4, 2023-07-21)"
   sodipodi:docname="Helo.svg"
   xmlns:inkscape="http://www.inkscape.org/namespaces/inkscape"
   xmlns:sodipodi="http://sodipodi.sourceforge.net/DTD/sodipodi-0.dtd"
   xmlns="http://www.w3.org/2000/svg"
   xmlns:svg="http://www.w3.org/2000/svg"><sodipodi:namedview
     id="namedview1"
     pagecolor="#505050"
     bordercolor="#ffffff"
     borderopacity="1"
     inkscape:showpageshadow="0"
     inkscape:pageopacity="0"
     inkscape:pagecheckerboard="1"
     inkscape:deskcolor="#505050"
     inkscape:document-units="mm"
     inkscape:zoom="0.53696246"
     inkscape:cx="974.92849"
     inkscape:cy="561.49177"
     inkscape:window-width="1912"
     inkscape:window-height="1055"
     inkscape:window-x="0"
     inkscape:window-y="17"
     inkscape:window-maximized="1"
     inkscape:current-layer="layer1" /><defs
     id="defs1" /><g
     inkscape:label="Helo"
     inkscape:groupmode="layer"
     id="layer1"
     transform="translate(158.63313,-5.3813965)"><g
       id="g2"
       inkscape:label="Helo"
       transform="rotate(180,58.190177,161.65261)"><path
         style="fill:#6c767c;stroke-width:0.998706"
         d="m 4.807004,6.3878882 c 1.76033,0.92998 2.21608,2.66914 2.85457,4.7833898 0.2926,0.96888 1.05034,3.47962 1.23096,5.90183 0.18157,2.43488 -0.15184,28.26501 0.17233,57.92012 l 0.58669,53.670562 3.01987,0.80505 c 3.86349,1.02994 3.43396,-0.87225 3.43396,4.27895 0,4.05686 -2.1e-4,3.52507 -0.86238,4.38723 -0.76631,0.76632 -0.67913,1.1883 -2.09341,1.0632 -0.91118,-0.0806 -1.64403,-0.25204 -1.9561,-0.39365 -0.67003,-0.30406 -2.10997,1.50872 -2.11623,4.7792 l 0.42093,2.40462 3.57842,0.0159 c 1.69553,0.008 5.91682,0.68361 9.55014,0.55663 6.19776,-0.21661 7.24108,-0.45599 7.4733,-1.04621 0.51166,-1.30048 0.21901,-1.4666 0.75655,-2.00413 0.97018,-0.97016 0.37878,-0.54715 6.07836,-0.72901 3.55662,-0.11348 6.31846,-0.83084 6.56486,-1.07724 0.27954,-0.27955 3.34406,0.18686 11.57111,0.18686 10.23997,0 12.1503,-0.5546 12.64117,-0.0637 0.69469,0.69469 -2.27041,1.75079 41.371846,-12.35339 55.3474,-17.88701 53.16935,-16.68368 54.54383,-16.3387 1.41934,0.35623 2.2953,3.77353 2.29977,7.36289 0.002,1.86829 0.009,2.30156 -0.98109,3.73868 -1.42718,2.07098 -4.08623,3.31734 -9.12076,5.26197 -2.04789,0.79102 -16.91524,5.75857 -32.75943,10.91941 -15.8442,5.16084 -29.116766,9.82526 -28.953876,9.98814 0.16288,0.16288 2.53635,2.58263 5.32782,4.27002 5.033286,3.04251 5.246356,2.62503 5.195796,3.84714 -0.028,0.67778 -0.1546,1.54712 -0.22345,1.90742 -0.20954,1.0966 2.062,2.64867 4.07416,2.58484 5.39678,-0.17118 9.62018,0.0541 12.74206,0.55032 1.93777,0.30797 7.58774,0.46537 12.33527,0.67715 4.74753,0.21179 10.61901,0.76381 12.94433,0.94548 2.32533,0.18165 9.39531,0.51072 15.59616,0.90221 13.09914,0.82701 16.95541,1.13076 19.14969,1.89778 0.9795,0.34237 2.79306,1.0588 4.38625,1.02014 1.53307,-0.0372 2.86793,0.0364 4.0511,0.38039 1.48231,0.43092 4.10202,0.36631 8.76013,0.39664 6.00506,0.039 6.97695,0.22264 7.72356,-0.52333 0.77681,-0.77591 0.96704,-1.3323 1.19454,-20.36363 0.2202,-18.42077 0.18275,-18.98493 1.03309,-19.77192 l 0.76232,-0.70552 8.3004,-0.44428 c 10.12371,-0.54187 10.56172,-0.30792 11.35346,1.58694 0.60692,1.45258 0.59854,24.36087 0.007,26.49188 -0.20279,0.73023 -1.51273,3.7376 -3.37007,6.49535 l -3.377,5.0141 0.94239,0.28837 c 0.59556,0.18223 2.1332,0.21569 3.04177,-0.0144 0.90857,-0.23006 2.55603,-0.54974 3.67025,-0.64071 1.30334,-0.10641 2.88157,-0.61262 2.88157,-0.89735 0,-0.98567 0.55254,-1.31039 4.33282,-2.04308 3.88494,-0.75297 3.84344,-0.8263 7.04192,-0.21043 4.2666,0.82154 5.27948,0.78869 5.53345,1.80058 0.21023,0.83761 0.6933,1.75909 3.15346,1.56287 0.42541,-0.034 1.44711,0.0909 1.8573,0.31048 0.44577,0.23856 4.43282,0.31793 9.84202,0.51841 7.87624,0.29193 8.70593,0.30013 9.47247,0.86071 1.26029,0.92168 1.6521,1.61884 0.3994,2.4329 -1.56611,1.01772 -1.46332,0.74987 -5.05967,0.7865 -4.43753,0.0452 -6.97366,0.29858 -6.24911,0.75522 0.75026,0.47286 0.67242,2.49085 -0.20784,3.06761 -1.24674,0.8169 -6.70391,2.35263 -9.68264,2.59282 -2.48358,0.20026 -2.7967,0.40209 -2.9929,1.1838 -0.36293,1.446 -2.64852,2.84413 -4.22295,3.26808 -2.69552,0.72583 -6.31044,-2.17165 -6.99716,-2.70675 l -1.9793,-1.54231 -8.56683,0.50202 c -3.94004,0.23089 -8.63922,-0.6825 -8.75275,-0.56898 -0.11354,0.11354 2.99291,3.84362 5.22603,7.13899 2.23312,3.29536 4.22841,6.59722 4.43397,7.33748 0.59656,2.14836 0.12938,25.02859 -0.48174,26.4912 -0.79174,1.89491 -0.97134,1.35076 -11.10674,1.11268 l -7.36529,-0.173 -0.71297,-0.95526 c -0.68795,-0.92175 -2.02791,-0.51039 -2.28947,-19.64658 -0.14909,-10.90744 -0.1241,-20.27272 -0.13655,-20.35189 -0.0625,-0.39723 -14.92582,-0.32035 -16.56571,0.16664 -0.98686,0.29306 -2.95978,0.51333 -4.38426,0.48948 -1.42449,-0.0239 -6.53838,0.4577 -11.28591,0.95648 -10.87982,1.14305 -21.56836,1.96336 -38.5606,2.65544 -7.36351,0.29991 -15.90923,0.89344 -19.20344,1.11057 -3.2942,0.21712 -7.15595,-0.0247 -8.61831,-0.0589 l -2.78516,0.8904 -1.10673,0.97492 c -0.86077,0.75825 -0.65817,1.39941 -0.20863,2.25738 1.12922,2.1552 1.18349,1.69417 -4.929686,5.40816 -3.10043,1.88362 -5.57589,3.38358 -6.00191,3.38928 -0.42601,0.006 -0.86237,0.29686 -1.37823,-0.18123 -0.86494,-0.80159 -1.52161,-1.14533 -2.5416,-0.7159 -4.07563,1.71593 -5.27315,2.66155 -5.39782,2.75729 -0.0772,0.0593 -0.1722,0.94183 0.28382,1.81014 l 0.63618,1.21135 -0.31676,1.39016 c -0.22655,0.99426 -1.41873,1.67333 -2.77346,2.43825 -1.92013,1.08416 -1.82979,0.93939 -4.14428,0.75385 -7.20955,-0.57795 -9.64455,-0.3971 -10.20612,0.16446 -0.47086,0.47087 -2.04974,0.30102 -10.07926,0.32739 -5.16969,0.017 -9.98686,0.27148 -10.89585,0.39985 l -2.73987,0.0824 2.05195,2.81962 c 3.25302,4.29878 56.740896,78.23964 63.877106,88.25081 3.62365,5.08351 4.16491,5.27615 3.90629,6.30658 -0.21366,0.85127 -3.47266,3.80287 -5.62679,4.70293 -2.92182,1.22081 -5.71327,0.28914 -9.256206,-3.08935 -2.9894,-2.85065 -7.70469,-8.24141 -45.6035,-60.42609 l -31.52295,-43.40545 -9.01918,-0.40983 -8.98413,0.32214 -0.0253,3.05199 0.0684,3.47038 3.47009,0.97398 c 1.81277,0.5088 3.84695,0.0131 4.18437,-0.16751 1.22662,-0.65646 2.66136,-0.34232 3.5811,0.57742 0.82147,0.82147 1.31033,-0.0287 1.31033,3.96156 0,3.47326 -0.0526,3.91102 -0.53322,4.31082 -0.81802,0.68049 -4.53443,1.16915 -17.99792,1.50415 -6.44235,0.1603 -11.84623,0.0272 -11.91406,0.10865 -0.0678,0.0815 -2.96054,3.9455 -5.93129,8.1117 -5.43043,7.61565 -54.073,74.81704 -60.5347,83.55395 -3.61702,4.8906 -4.36862,5.30441 -5.74046,4.65272 -1.90524,-0.90509 -5.17388,-3.19457 -6.12698,-4.69744 -0.86703,-1.36719 -0.26345,-2.12543 -0.26345,-3.98762 0,-1.90037 0.18258,-2.2398 1.39057,-4.64238 0.77926,-1.54989 2.16065,-4.67535 3.57621,-6.75569 2.17876,-3.20193 31.07598,-43.12316 58.64769,-81.06 4.1343,-5.68852 8.34874,-10.58633 8.39034,-10.79639 0.0456,-0.23042 -2.53616,-1.59014 -4.94509,-1.93786 -3.75424,-0.54192 -4.74602,0.0279 -4.76314,-0.97256 -0.008,-0.49247 -4.76907,-0.43173 -5.69255,0.17339 -0.69738,0.45694 -1.03574,0.59121 -3.51743,0.28003 -6.24077,-0.78252 -18.33833,-4.13822 -21.0971,-5.71776 -0.7751,-0.44378 -2.9173,-0.99878 -3.59551,-1.14389 -0.67822,-0.1451 -2.5792,-1.24965 -4.51696,-2.11791 -2.2723,-1.01816 -3.98416,-1.56633 -4.82148,-1.54392 -1.63578,0.0437 -2.25275,-1.01997 -5.90007,-5.38968 -2.34658,-2.81134 -2.8281,-3.25885 -3.02051,-4.67566 -0.33963,-2.50091 -0.98397,-3.4904 -2.56985,-2.82778 -2.56634,1.0723 -6.19893,0.8892 -7.12023,-0.86503 -0.17777,-0.33847 -0.28474,-1.69278 -0.28474,-4.115 0,-2.42221 0.12998,-4.56166 0.30775,-4.90013 0.9213,-1.75423 4.15676,-2.13937 6.7231,-1.06708 1.58144,0.66077 2.48554,-0.019 2.81945,-2.4763 0.17129,-1.26053 0.60333,-2.21767 2.09291,-4.08684 1.05836,-1.32806 2.37969,-2.67769 2.2201,-2.71905 -0.88416,-0.22919 -67.212604,-22.96443 -72.083974,-24.61836 -6.292,-2.13629 -7.49858,-1.73949 -7.84804,-2.84052 -0.23905,-0.75319 0.59487,-4.02046 1.69126,-6.20629 0.77714,-1.54933 3.33367,-3.51942 4.57081,-3.82992 0.5057,-0.12693 1.93482,-0.21877 3.80777,-0.11879 4.47026,0.23861 5.25407,0.74051 52.181124,16.0097 l 38.38453,12.48961 3.41481,-0.83664 c 3.81046,-0.93358 11.38367,-2.73334 14.8681,-3.17025 2.47045,-0.30977 2.51133,-0.28459 3.20817,0.172 0.45395,0.29744 1.78705,0.66173 3.02025,0.77688 2.07171,0.19346 2.93487,-0.37472 3.15514,-1.06876 0.25809,-0.81315 0.33652,-0.38615 4.14154,-0.9346 4.12011,-0.59386 6.13227,-0.58738 7.19674,0.24994 0.71784,0.56465 1.62128,0.69943 3.0734,0.75149 l 1.99301,0.0715 0.67015,-1.79981 c 0.37655,-1.0113 0.0851,-1.86027 1.01209,-2.72083 1.88681,-1.75166 1.16669,-2.90218 -1.59578,-2.90218 -2.79592,0 -3.52703,-0.60095 -4.48556,-2.46793 -0.97562,-1.90028 -1.02825,-4.43776 0.0143,-5.99829 1.36916,-2.04951 2.29711,-1.84345 7.62242,-2.30972 l 4.69391,-0.41098 0.11631,-11.61924 c 0.0645,-6.44382 -0.13577,-33.840692 0.009,-60.891362 0.21882,-40.88181 0.61258,-48.8980498 1.01451,-49.3821198 0.75484,-0.90911 6.49342,-1.31543 8.27676,-0.3733 z M -12.118256,208.96343 c 0,0.70465 0.17616,1.05697 0.52848,1.05697 0.61847,0 0.67338,-0.48022 0.16376,-1.43245 -0.50919,-0.95143 -0.69224,-0.85214 -0.69224,0.37548 z"
         id="path3"
         inkscape:label="Body"
         sodipodi:nodetypes="cssscsssssccssssssscssssssssssssssssssccsscsssscssssssscssssssssssscsssssscsssscsssccssscscsscssssscccssssscccccscsssscsssssssssscssssscsssssssssssssssscsssssssscsssssscsssccssss" /><path
         style="fill:#004455;stroke-width:5.16901;stroke-linecap:square;stroke-linejoin:round"
         d="m -52.760936,197.1244 -19.83679,-4.99971 -8.24328,-9.30339 -2.63181,-3.79406 -0.14922,-3.07705 1.02436,-8.68952 4.31636,-6.18614 2.51751,-2.22882 18.21693,6.49529 -2.3581,8.55928 z"
         id="path4"
         inkscape:label="Windows" /><path
         id="path5"
         style="fill:#808000;stroke-width:5.16901;stroke-linecap:square;stroke-linejoin:round"
         inkscape:label="Torp"
         d="m 43.981594,206.99107 0.1385,-4.46433 -10.84068,-0.97927 -0.91674,2.85616 z m 23.56032,-1.69964 10.73733,-0.26717 3.15485,-4.52065 -14.05806,0.83354 z m -23.94944,-56.96758 0.0165,-4.65088 -12.13725,0.64286 0.77153,3.50056 z" /><path
         id="path6"
         style="fill:#666666;stroke-width:5.16901;stroke-linecap:square;stroke-linejoin:round"
         inkscape:label="Vent"
         d="m 67.262864,196.40309 17.971,-4.99505 2.24224,-3.41633 -4.32325,-3.57807 -12.70827,-0.2279 -7.04918,8.67803 z m 2.98793,-30.78469 11.7228,-0.70383 4.516,-2.69958 -0.67851,-3.04632 -10.99416,-3.57963 -11.25978,3.20911 z" /><path
         style="fill:#6f7c91;stroke-width:5.16901;stroke-linecap:square;stroke-linejoin:round"
         d="m 111.18529,181.71669 -7.46473,-5.03289 6.28176,-9.52996 4.26064,2.39124 4.05996,2.54908 -1.72484,9.52669 z"
         id="path7"
         inkscape:label="Radar" /><path
         style="fill:#010101"
         d="m 1.901754,4.9875282 c 2.32819,0.27466 2.86667,0.51081 4.41122,1.93452 1.74785,1.61112 2.47251,3.3760998 3.04933,7.4270298 0.23771,1.66938 0.42763,22.39745 0.53503,58.39244 l 0.16649,55.804342 1.02631,0.22542 c 0.56448,0.12398 1.33958,0.12599 1.72246,0.004 0.38287,-0.12152 1.31741,-0.0537 2.07674,0.15081 1.28042,0.34478 1.39473,0.4805 1.5754,1.87035 0.22187,1.70692 -0.16503,7.85573 -0.51642,8.20713 -0.12778,0.12778 -0.76085,0.34776 -1.40681,0.48884 -1.0357,0.22619 -1.80184,0.15403 -3.82031,-0.35987 -0.43849,-0.11164 -0.54647,0.45466 -0.63013,3.30486 l -0.10097,3.43958 h 6.48496 c 8.59021,0 12.94336,-0.31251 12.94336,-0.9292 0,-0.25893 0.43858,-0.96164 0.97463,-1.56158 l 0.97463,-1.0908 5.63996,-0.19604 c 3.32649,-0.11562 5.84312,-0.35782 6.13526,-0.59046 0.74941,-0.59675 24.44065,-0.55199 24.64013,0.0465 0.0808,0.24254 0.49167,0.44098 0.91297,0.44098 0.42131,0 4.89277,-1.33574 9.93658,-2.9683 25.526686,-8.26241 76.275326,-24.61647 79.359306,-25.57403 1.93257,-0.60006 4.17372,-1.09101 4.98035,-1.09101 h 1.46659 l 0.97171,2.91042 c 1.13926,3.41221 1.31149,6.88448 0.42639,8.59608 -0.76404,1.47748 -2.69,3.1091 -5.11225,4.33093 -3.22024,1.62436 -9.15667,3.66122 -38.17293,13.09759 -15.03715,4.89023 -27.560256,9.01095 -27.829126,9.15717 -0.33111,0.18006 1.29094,1.33345 5.02709,3.5746 5.347826,3.20792 5.515926,3.34446 5.515926,4.48029 0,0.64434 -0.1513,1.45424 -0.33623,1.79978 -0.26602,0.49706 -0.12,0.78813 0.69922,1.3938 1.29146,0.95482 3.55927,1.2764 5.63423,0.79896 1.65595,-0.38102 7.63171,-0.002 10.40695,0.65998 0.77611,0.18514 4.98299,0.50289 9.34861,0.70612 4.36563,0.20322 11.43,0.60532 15.69861,0.89355 4.26861,0.28823 12.52361,0.83959 18.34444,1.22525 11.1451,0.73842 15.76656,1.25116 16.93334,1.87871 0.38805,0.20872 2.37243,0.49902 4.40972,0.64511 2.03729,0.1461 4.57729,0.41965 5.64444,0.60789 1.06716,0.18825 4.49536,0.35385 7.61824,0.36802 5.34054,0.0242 5.7179,-0.0183 6.35,-0.71643 0.63511,-0.7014 0.684,-1.69486 0.88971,-18.07986 0.11972,-9.53572 0.33239,-18.31814 0.47259,-19.51647 0.41739,-3.56755 0.10896,-3.46831 10.72393,-3.45032 6.47019,0.011 9.27069,0.13887 9.83259,0.44906 1.64363,0.90736 1.6809,1.23802 1.67715,14.88144 -0.004,14.88011 0.38571,13.07209 -4.2709,19.80939 -3.59535,5.20184 -3.56695,4.9844 -0.62277,4.76897 4.28102,-0.31325 6.89703,-0.99828 7.88696,-2.06527 0.75743,-0.81638 1.47737,-1.06696 4.71586,-1.64136 3.70793,-0.65767 3.91845,-0.65909 7.05555,-0.0478 4.54441,0.88546 5.17315,1.0709 5.17927,1.52755 0.022,1.63808 1.95813,1.92943 17.74521,2.67029 7.1268,0.33444 8.00217,0.58807 8.00217,2.31855 0,1.66456 -0.91678,1.95601 -6.88592,2.18913 -4.44846,0.17373 -5.44485,0.30181 -4.98179,0.6404 0.3467,0.25352 0.57882,0.921 0.57882,1.66448 0,1.02252 -0.17094,1.31126 -0.97014,1.63871 -1.73132,0.70935 -7.61209,2.07962 -10.02719,2.33642 -2.12855,0.22633 -2.39269,0.34306 -2.75488,1.21747 -0.22033,0.53192 -1.10175,1.65526 -1.95871,2.4963 -1.41277,1.38653 -1.75047,1.54308 -3.62036,1.67833 -2.54919,0.1844 -4.75276,-0.82198 -7.11231,-3.24821 l -1.57276,-1.6172 h -7.68766 c -4.22821,0 -7.68766,0.0956 -7.68766,0.21232 0,0.11678 1.64387,2.61802 3.65305,5.5583 5.88811,8.61682 5.32191,6.34558 5.33316,21.39327 0.0102,13.65003 -0.026,13.97157 -1.67415,14.88144 -0.56208,0.31029 -3.36809,0.43809 -9.85983,0.44906 -8.81066,0.0149 -9.09608,-0.007 -9.82882,-0.73926 -0.68633,-0.68626 -0.78137,-1.30912 -1.04971,-6.87916 -0.16227,-3.36852 -0.30475,-11.60146 -0.3166,-18.29541 -0.0119,-6.69396 -0.12167,-13.00427 -0.24402,-14.02292 l -0.22247,-1.85208 -6.21266,0.0257 c -3.41697,0.0142 -7.08579,0.17882 -8.15295,0.3659 -1.06715,0.18708 -3.84527,0.48117 -6.17361,0.65353 -2.32833,0.17237 -7.24958,0.63318 -10.93611,1.02402 -7.49917,0.79505 -13.63438,1.28358 -22.75416,1.81185 -9.13783,0.52931 -40.31158,1.90714 -43.54537,1.92464 -2.79069,0.0151 -2.8017,0.0188 -3.48562,1.1849 -0.56211,0.95836 -0.61402,1.32795 -0.28728,2.04507 0.21935,0.48142 0.39882,1.3846 0.39882,2.00705 0,1.08377 -0.23046,1.26998 -5.436946,4.39312 -5.75037,3.44939 -6.98557,3.83699 -8.14499,2.55583 -0.83686,-0.92471 -1.01381,-0.90556 -4.08627,0.44221 -3.69131,1.61925 -3.58675,1.51271 -2.78125,2.83379 1.36795,2.24353 0.48407,4.21128 -2.60025,5.78886 -2.02451,1.03549 -5.409,1.28792 -6.84864,0.51079 -0.93494,-0.50469 -7.17665,-0.16641 -7.55088,0.40924 -0.14369,0.22103 -4.58431,0.42001 -11.73451,0.52583 l -11.50332,0.17076 0.83717,1.09772 c 2.83106,3.71216 38.95259,53.40241 59.908776,82.413 10.55944,14.61789 10.20773,13.65505 6.01973,16.47969 -3.27105,2.20619 -4.32551,2.63164 -6.49366,2.61998 -2.36777,-0.0127 -3.93481,-0.97095 -7.383236,-4.5147 -3.67531,-3.77691 -3.47734,-3.51052 -43.68696,-58.78628 l -32.25885,-44.34591 h -8.75156 -8.75157 v 3.12428 3.12428 l 2.91042,0.27281 c 3.46028,0.32436 3.6161,0.32195 5.20347,-0.0804 1.18214,-0.29961 3.32704,-0.0566 3.81601,0.4324 0.35049,0.35049 0.73855,6.49815 0.51754,8.19889 -0.22309,1.71679 -0.62899,1.94765 -3.62799,2.06349 -1.06715,0.0412 -3.92465,0.24579 -6.35,0.4546 -2.42535,0.20882 -8.01198,0.38453 -12.41474,0.39047 l -8.00501,0.0108 -4.32235,6.08542 c -3.62012,5.09674 -40.01406,55.19525 -58.62282,80.69791 -6.1543,8.43427 -7.42748,9.87778 -8.71218,9.87778 -1.54058,0 -6.20891,-3.71346 -7.3108,-5.81544 -0.33724,-0.64334 -0.55135,-1.94707 -0.55037,-3.35139 0.001,-1.99256 0.19709,-2.68673 1.47056,-5.2161 0.80793,-1.6047 2.62866,-4.62195 4.04607,-6.70498 2.17927,-3.20268 31.08265,-43.17035 58.6298,-81.07342 4.1023,-5.6445 7.56235,-10.43039 7.689,-10.63531 0.14872,-0.24065 -0.8623,-0.51621 -2.85497,-0.77814 -5.69704,-0.74887 -5.65204,-0.73765 -5.83988,-1.45594 -0.15131,-0.57863 -0.50127,-0.68039 -2.34003,-0.68039 -1.4098,0 -2.46935,0.20132 -3.04512,0.57858 -0.70596,0.46256 -1.37762,0.5326 -3.34978,0.34931 -5.62406,-0.5227 -19.72827,-4.20343 -23.21049,-6.05716 -0.89674,-0.47737 -1.86983,-0.8694 -2.16242,-0.87118 -0.29258,-0.002 -2.34906,-0.79553 -4.56994,-1.76389 -2.4087,-1.05026 -4.55605,-1.76066 -5.32198,-1.76066 -1.12529,0 -1.56529,-0.29436 -3.55941,-2.38125 -3.9674,-4.15198 -4.90021,-5.49079 -5.21555,-7.48564 -0.38778,-2.45309 -0.71106,-2.71881 -2.56384,-2.10733 -0.82145,0.2711 -2.06968,0.49291 -2.77383,0.49291 -1.6351,0 -4.14245,-1.12264 -4.41329,-1.97601 -0.11474,-0.36151 -0.20862,-2.56072 -0.20862,-4.88712 0,-2.3264 0.0939,-4.52561 0.20862,-4.88712 0.27084,-0.85337 2.77819,-1.97601 4.41329,-1.97601 0.70415,0 1.95238,0.22181 2.77383,0.49291 1.85044,0.61071 2.17619,0.34493 2.56103,-2.08952 0.22034,-1.39385 0.68628,-2.3044 2.06733,-4.03999 0.98059,-1.23233 1.78289,-2.32838 1.78289,-2.43568 0,-0.1073 -7.34219,-2.59516 -16.31597,-5.52857 -43.832844,-14.32837 -62.373294,-20.52846 -62.868694,-21.02386 -0.75552,-0.75552 -0.68469,-1.64882 0.38866,-4.90124 0.76947,-2.33161 1.24571,-3.1372 2.73403,-4.62478 1.62456,-1.62376 1.99751,-1.82351 3.78267,-2.02591 2.74571,-0.31131 6.47469,0.23444 11.24875,1.64631 2.23132,0.65988 21.7896,6.95522 43.462854,13.98963 l 39.40591,12.78985 4.51492,-1.27483 c 5.34704,-1.50979 10.5686,-2.60454 13.89905,-2.91407 1.91174,-0.17768 2.58865,-0.10467 3.28998,0.35486 0.57577,0.37726 1.63532,0.57858 3.04512,0.57858 1.84861,0 2.18825,-0.1 2.34241,-0.68948 0.19154,-0.73247 0.33027,-0.76477 6.10364,-1.42107 3.2207,-0.36613 5.28228,-0.0905 6.31538,0.84449 0.39351,0.35612 1.26782,0.5605 2.39777,0.5605 h 1.77843 l 0.1884,-1.67152 c 0.14768,-1.31025 0.42447,-1.8686 1.2806,-2.58333 0.60071,-0.5015 1.0922,-1.23441 1.0922,-1.6287 0,-0.63364 -0.29087,-0.74128 -2.50453,-0.92687 -2.81719,-0.23618 -3.91923,-0.79895 -4.76417,-2.43288 -0.84396,-1.63204 -0.7855,-5.36533 0.10265,-6.5549 1.49009,-1.99582 2.05914,-2.18333 7.35654,-2.42412 l 4.95298,-0.22513 0.0691,-55.951972 c 0.0648,-52.4909 0.20987,-65.4288698 0.74333,-66.2920198 0.24464,-0.39584 5.17078996,-0.77849 7.0969,-0.55126 z m -4.009,4.94333 c -0.31437,2.2936098 -0.23086,115.6079218 0.0868,117.8347818 0.23492,1.6466 0.54144,2.12876 3.21516,5.05746 l 2.95547,3.23734 0.15636,11.78767 0.15635,11.78768 h 0.84259 0.84259 L 6.036844,86.698978 c -0.0881,-57.74732 -0.20495,-73.28284 -0.56125,-74.5984 -0.29861,-1.10254 -0.86098,-2.02242 -1.67145,-2.7340298 -1.08554,-0.95311 -1.46987,-1.07243 -3.45427004,-1.07243 H -1.882956 Z M 153.77258,118.41854 c -11.73701,3.71701 -79.269116,25.58438 -91.545836,29.64319 -6.49993,2.14894 -12.69118,4.35083 -13.75833,4.89308 -1.89936,0.96513 -3.17941,2.40369 -3.70465,4.1634 -0.13689,0.4586 -0.81538,1.66282 -1.50777,2.67603 -1.0312,1.50903 -1.61479,1.97992 -3.2267,2.60358 -1.83714,0.7108 -19.28923,6.41019 -19.62864,6.41019 -0.39167,0 -0.0997,1.45427 0.32466,1.61711 0.40317,0.15471 46.59838,-14.73303 115.043616,-37.07612 20.86026,-6.80957 24.82325,-8.38773 26.4637,-10.53846 1.02745,-1.34706 1.10629,-2.53018 0.34045,-5.10904 -0.48569,-1.63549 -0.63634,-1.82063 -1.32292,-1.62568 -0.42614,0.121 -3.79106,1.17523 -7.47758,2.34272 z m -306.84237,7.87486 c -1.0331,1.06374 -2.01457,3.1715 -2.01457,4.32637 0,0.66773 -0.58508,0.47064 59.795834,20.14204 34.20593,11.14389 46.64292,15.14669 50.44722,16.23623 4.58652,1.31357 4.68936,1.31015 8.07319,-0.26782 3.8907,-1.81435 5.36041,-2.20455 6.91987,-1.83722 0.6791,0.15997 5.47848,1.67301 10.66529,3.36232 5.18681,1.68932 9.59213,2.97163 9.78958,2.8496 0.19746,-0.12204 0.35902,-0.51689 0.35902,-0.87745 0,-0.52086 -0.77929,-0.91202 -3.79236,-1.90355 -12.43117,-4.09079 -120.640834,-39.16883 -126.382644,-40.96912 -4.42917,-1.38872 -8.38279,-2.22791 -10.65455,-2.2615 -1.85134,-0.0274 -2.10658,0.0682 -3.20588,1.2001 z m 363.67879,9.08891 c -0.11453,2.37684 -0.25642,10.63184 -0.31531,18.34445 l -0.10708,14.02291 h 3.91474 3.91473 l 2.60167,-3.96875 c 1.43091,-2.18281 2.97363,-4.42159 3.42826,-4.97506 0.45463,-0.55347 1.14066,-1.69569 1.5245,-2.53828 0.65104,-1.42912 0.6979,-2.32674 0.6979,-13.36938 v -11.83741 h -7.72559 -7.72559 z M -15.313806,131.8369 c -0.55785,0.55785 -0.54497,3.27455 0.0176,3.71986 0.56213,0.44493 4.14514,0.9125 4.14514,0.54093 0,-0.15348 -0.14767,-0.79395 -0.32815,-1.42326 -0.19008,-0.66275 -0.20044,-1.58952 -0.0246,-2.20253 l 0.30353,-1.05834 h -1.8451 c -1.0148,0 -2.03559,0.1905 -2.26843,0.42334 z m 7.69056,6.10305 v 6.17361 h 3.49892 c 1.92441,0 3.75003996,-0.0964 4.05694996,-0.21413 0.45153,-0.17327 0.55802,-0.81885 0.55802,-3.38307 v -3.16895 L -2.029066,134.55688 c -2.41368,-2.6731 -2.58441,-2.79054 -4.05695,-2.79054 h -1.53723 z m 53.62222,7.76111 v 1.23473 h 4.34354 c 3.89176,0 4.66805,-0.10969 7.46336,-1.05457 1.7159,-0.58001 3.20089,-1.13563 3.29997,-1.23472 0.0991,-0.0991 -3.25942,-0.18016 -7.46336,-0.18016 h -7.64351 z m -12.52362,0.52917 c 0.57006,0.62991 1.08655,0.70556 4.81718,0.70556 3.94347,0 4.17866,-0.0397 4.17866,-0.70556 0,-0.67111 -0.23519,-0.70556 -4.81718,-0.70556 -4.79483,0 -4.81421,0.003 -4.17866,0.70556 z m -8.15131,4.05694 c 0.33309,1.06423 0.53823,1.23473 1.48562,1.23473 0.60454,0 1.8357,0.10095 2.7359,0.22434 l 1.63674,0.22434 v -1.22388 c 0,-0.67313 -0.10583,-1.32971 -0.23519,-1.45906 -0.12935,-0.12935 -1.53441,-0.23519 -3.12236,-0.23519 h -2.88718 z m -31.40575,-0.44097 c 0.11699,0.43656 0.21488,1.94469 0.21753,3.35139 l 0.005,2.55764 h 1.52504 1.52503 l 0.37577,-2.73403 c 0.20668,-1.50371 0.48989,-3.01184 0.62938,-3.35139 0.2267,-0.55189 0.002,-0.61736 -2.11835,-0.61736 -2.28763,0 -2.36438,0.0282 -2.15922,0.79375 z m -34.96724,-0.21862 c -0.47045,0.12608 -0.79375,0.48607 -0.79375,0.88385 0,0.54849 0.17728,0.63229 0.97014,0.45856 1.66339,-0.36448 1.85209,-0.46886 1.85209,-1.02452 0,-0.56651 -0.69459,-0.67536 -2.02848,-0.31789 z m 75.75903,1.52072 c 0,0.3766 0.12248,0.76043 0.27217,0.85295 0.1497,0.0925 1.96647,0.28171 4.03726,0.42042 l 3.76508,0.25221 1.10516,-1.10516 1.10516,-1.10516 h -5.14242 c -4.85511,0 -5.14241,0.0383 -5.14241,0.68474 z m -50.8,-0.11084 c -1.06957,0.37975 -2.796,0.56364 -5.29167,0.56364 -2.49566,0 -4.22209,-0.18389 -5.29166,-0.56364 -1.05126,-0.37324 -2.79764,-0.56536 -5.17,-0.56876 l -3.58249,-0.005 -0.47445,1.49062 -0.47445,1.49061 -2.97966,0.66811 c -2.78333,0.62409 -2.92279,0.69744 -2.11666,1.11318 0.47464,0.24479 8.52451,2.92909 17.88859,5.96511 l 17.02561,5.52004 0.76963,-0.71703 c 1.09071,-1.01614 3.37613,-2.05458 5.13123996,-2.33148 l 1.4993,-0.23655 v -2.61316 c 0,-2.46988 -0.0372,-2.59323 -0.67908,-2.24973 -0.37349,0.19989 -2.15942996,0.50201 -3.96874996,0.67137 -5.13132,0.48033 -5.45891,0.15817 -5.54098,-5.4491 -0.023,-1.56839 -0.14757,-2.95745 -0.27693,-3.0868 -0.45248,-0.45249 -4.89433,-0.21986 -6.46759,0.33871 z m 106.3625,0.83721 c -0.11992,0.19403 0.0201,0.35278 0.31113,0.35278 0.29104,0 0.62728,-0.15875 0.7472,-0.35278 0.11991,-0.19402 -0.0201,-0.35277 -0.31114,-0.35277 -0.29104,0 -0.62728,0.15875 -0.74719,0.35277 z m -7.43369,2.33995 c -2.19499,0.7273 -2.55471,1.05295 -1.50947,1.36652 1.76127,0.52838 6.16672,2.79295 7.09107,3.64509 1.60865,1.48296 1.32952,2.48719 -1.38189,4.9717 -2.9029,2.65999 -4.1974,3.07986 -10.87714,3.52804 -4.94184,0.33157 -12.10117,0.12842 -25.04722,-0.71073 l -6.35,-0.41161 -9.91467,3.21724 -9.91467,3.21724 -0.20494,2.4446 c -0.11272,1.34452 -0.4452,2.90919 -0.73884,3.47702 -0.70509,1.36349 -2.62523,3.02007 -4.41673,3.81048 -0.79468,0.35061 -1.44134,0.72598 -1.43702,0.83416 0.004,0.10818 0.30311,0.58079 0.66398,1.05025 l 0.65615,0.85355 7.00893,-0.76009 c 20.15951,-2.18623 41.43169,-3.41638 49.61424,-2.86915 2.67195,0.1787 5.29132,0.42899 5.82083,0.55622 2.99189,0.71884 7.48913,4.40777 7.48913,6.14306 0,1.71081 -2.59025,3.36491 -9.04304,5.77476 -8.05341,3.0076 -12.01891,3.74351 -14.54159,2.69858 -0.95325,-0.39485 -3.49095,-0.43656 -13.92593,-0.22893 -7.01815,0.13965 -13.71277,0.36256 -14.87694,0.49534 -1.86283,0.21248 -2.13061,0.33991 -2.23298,1.06258 l -0.11633,0.82115 20.57744,-0.15582 c 22.51347,-0.17047 22.03805,-0.13005 28.34726,-2.41022 4.02736,-1.45549 11.76836,-5.38079 14.28433,-7.24327 2.412716,-1.78605 4.634796,-4.18384 5.242176,-5.65668 0.41628,-1.00943 0.37032,-1.35635 -0.45189,-3.41156 -0.50341,-1.25832 -0.91529,-2.46262 -0.91529,-2.67622 0,-0.21361 -0.39687,-0.5692 -0.88194,-0.79021 -0.74041,-0.33735 -0.881946,-0.64371 -0.881946,-1.90894 0,-1.18045 0.147966,-1.55407 0.682686,-1.72378 0.42774,-0.13576 0.90438,-0.88412 1.2763,-2.00386 0.32648,-0.98295 0.81204,-2.20583 1.07903,-2.71751 0.63815,-1.22307 0.61689,-1.59119 -0.1824,-3.15793 -1.11677,-2.18906 -4.676366,-5.18103 -9.381996,-7.88594 -1.01383,-0.58277 -1.54474,-0.83646 -5.11528,-2.44436 -0.87313,-0.39319 -1.82563,-0.85449 -2.11667,-1.02511 -0.78284,-0.45894 -1.44797,-0.41475 -3.37674,0.22434 z m -23.02025,14.82478 c 2.05285,0.25465 2.23171,0.7201 2.23171,5.80745 0,5.99865 0.22537,5.78193 -6.00092,5.77053 -3.28153,-0.006 -4.875,-0.1428 -5.17659,-0.44438 -0.54435,-0.54436 -0.61672,-10.11881 -0.0805,-10.655 0.38851,-0.38851 6.94858,-0.73634 9.02634,-0.4786 z m -5.70579,5.76583 v 2.46944 h 2.29306 2.29306 v -2.46944 -2.46944 h -2.29306 -2.29306 z m -14.46388,0 v 1.4537 l -1.32292,-0.10949 c -1.25587,-0.10394 -1.32292,-0.17207 -1.32292,-1.34421 0,-1.17214 0.0671,-1.24027 1.32292,-1.34421 l 1.32292,-0.10949 z m -25.31181,-19.56389 c -0.29239,0.0921 -0.44097,0.90001 -0.44097,2.39765 v 2.25868 l 1.6757,0.20246 c 0.92162,0.11135 4.63847,0.55671 8.25964,0.9897 l 6.58395,0.78724 4.49295,-1.38523 c 4.19323,-1.29282 4.55172,-1.47395 5.37392,-2.71531 0.48454,-0.73155 0.80118,-1.40989 0.70364,-1.50742 -0.1586,-0.1586 -9.78085,-0.99773 -15.27175,-1.33181 -2.32085,-0.14121 -10.67244,0.082 -11.37708,0.30404 z m 56.05686,3.02431 -3.29974,1.09931 1.88776,1.92648 c 2.61973,2.67347 3.23081,2.93046 6.96815,2.93046 4.3378,0 6.37561,-0.49131 8.02739,-1.93535 l 1.35611,-1.18557 -2.46945,-1.13378 c -3.41198,-1.56652 -6.85296,-2.74331 -8.11301,-2.7746 -0.58161,-0.0144 -2.54235,0.46843 -4.35721,1.07305 z m -11.518,3.70713 c -2.13467,0.70327 -4.00761,1.39322 -4.16208,1.53323 -0.31256,0.28328 5.21409,0.71124 9.22135,0.71406 l 2.59049,0.002 -1.47682,-1.76389 c -0.81224,-0.97014 -1.66016,-1.76389 -1.88427,-1.76389 -0.2241,0 -2.15401,0.5754 -4.28867,1.27866 z m -135.73551,1.36717 c -1.92852,2.51962 -3.63459,5.7207 -4.11465,7.72028 -0.3819,1.5907 -0.3548,1.78572 0.3528,2.53892 0.66882,0.71193 0.83151,0.75084 1.27692,0.30542 0.28075,-0.28075 1.04685,-0.51045 1.70245,-0.51045 0.71101,0 1.31575,-0.22115 1.4987,-0.54806 0.25473,-0.45518 1.55177,-0.5897 7.65293,-0.79375 l 7.34622,-0.24569 0.81549,-2.82222 c 0.60145,-2.08146 0.70389,-2.8647 0.3903,-2.98404 -4.0402,-1.53758 -13.73816,-4.53316 -14.52453,-4.48646 -0.80556,0.0478 -1.35743,0.46833 -2.39663,1.82605 z m 86.73648,-0.6767 c -0.37818,0.98552 -0.23024,1.55856 0.40323,1.56186 0.33955,0.002 2.18886,0.40354 4.10957,0.89282 3.36005,0.85593 3.55683,0.86814 5.19932,0.32259 1.68081,-0.55828 2.55174,-1.20809 1.64804,-1.22963 -2.19451,-0.0523 -8.92372,-1.10061 -9.70605,-1.51208 -1.30485,-0.68628 -1.40359,-0.6884 -1.65411,-0.0356 z m -11.49588,4.94834 c -0.91395,0.36569 -1.41825,0.79131 -1.41825,1.19698 0,0.851 1.02845,1.19184 1.72671,0.57224 0.31148996,-0.2764 1.16165996,-0.74837 1.88925996,-1.04884 0.72760004,-0.30046 1.32292004,-0.71314 1.32292004,-0.91707 0,-0.55416 -1.91089004,-0.44741 -3.52064,0.19669 z m -55.59805,2.76335 c -0.44368,1.54091 -0.99219,3.14825 -1.2189,3.57187 -0.28356,0.52984 -0.3024,0.97667 -0.0604,1.43168 0.45751,0.86008 5.01184,16.53401 5.01184,17.24848 0,0.44722 0.43116,0.53105 2.38125,0.463 1.80695,-0.0631 3.52984,0.22201 7.14375,1.182 2.61937,0.69581 5.3943,1.40263 6.1665,1.57071 1.40083,0.30491 1.52465,0.46899 2.16085,2.86324 0.18173,0.68394 6.95679,0.57929 8.95876,-0.13838 1.16035,-0.41596 2.79411,-0.56354 6.07191,-0.5485 l 4.48441,0.0206 1.67197,-2.35678 c 0.91959,-1.29623 3.22148,-4.44928 5.11532,-7.00678 l 3.44335,-4.64999 -1.19209,-2.28703 c -0.69662,-1.33648 -1.29465,-3.108 -1.43887,-4.26231 -0.13574,-1.0864 -0.40497,-2.07304 -0.5983,-2.19252 -0.19333,-0.11948 -5.20096,-1.78813 -11.12807,-3.70812 -12.11688,-3.92504 -11.03744,-3.82341 -15.49349,-1.4587 -3.4906,1.85237 -5.27766,1.75318 -13.16114,-0.73049 -3.39549,-1.06974 -6.47475,-1.91543 -6.84281,-1.8793 -0.51707,0.0507 -0.85258,0.70258 -1.47588,2.86733 z m 39.12795,3.25436 c 0.12935,0.12936 0.23518,1.00248 0.23518,1.94028 v 1.70509 h -1.36998 c -1.16561,0 -1.39411,-0.12619 -1.53169,-0.8459 -0.0889,-0.46525 -0.0894,-1.33838 -10e-4,-1.94028 0.1415,-0.96413 0.2958,-1.09437 1.29651,-1.09437 0.62473,0 1.24172,0.10583 1.37107,0.23518 z m -9.71315,0.18815 c 0.23283,0.23284 0.42333,0.94721 0.42333,1.5875 0,1.15432 -0.0142,1.16413 -1.67569,1.15935 -2.60789,-0.008 -3.2632,-0.284 -3.2632,-1.37688 0,-1.34755 0.61382,-1.7933 2.46945,-1.7933 0.89253,0 1.81328,0.1905 2.04611,0.42333 z m 147.638216,-3.96022 c 0.8906,1.79684 1.04461,2.51688 1.04461,4.88385 0,2.36536 -0.15813,3.10577 -1.06837,5.00227 l -1.06836,2.22597 8.51848,-0.2404 c 20.60201,-0.58141 37.54541,-1.7199 55.6143,-3.73694 9.52211,-1.06295 14.44359,-1.41883 16.75695,-1.2117 1.87128,0.16756 2.04509,0.13112 1.4993,-0.31429 -0.79289,-0.64707 -0.79289,-2.289 0,-3.18405 0.60888,-0.68732 0.58828,-0.69391 -1.4993,-0.47957 -2.28951,0.23507 -7.06517,-0.10222 -16.75695,-1.1835 -10.76518,-1.20103 -16.16821,-1.69517 -25.19137,-2.3039 -7.23495,-0.48809 -9.11232,-0.51481 -10.6277,-0.15127 -1.59648,0.38298 -1.97494,0.36506 -2.85447,-0.13516 -1.07369,-0.61067 -9.3648,-1.11192 -20.26839,-1.22536 l -5.14333,-0.0535 z m 56.86705,4.24244 c 0.12317,0.38806 0.12317,1.02306 0,1.41112 -0.19068,0.60076 -0.53376,0.70555 -2.31011,0.70555 -1.93054,0 -2.10267,-0.0657 -2.30732,-0.88115 -0.40209,-1.60206 -0.002,-1.94107 2.28953,-1.94107 1.79414,0 2.13694,0.1039 2.3279,0.70555 z m -28.04583,0.72791 c 0,1.40473 -0.023,1.43125 -1.14653,1.32292 -1.04673,-0.10093 -1.15606,-0.2257 -1.25602,-1.43346 -0.10771,-1.3015 -0.0891,-1.32292 1.14653,-1.32292 1.23343,0 1.25602,0.0258 1.25602,1.43346 z M 9.023284,168.36704 c 0.0958,0.50225 0.56103,0.63681 2.49531,0.72167 2.69453,0.11822 3.19382,-0.40917 0.8783,-0.92772 -2.51303,-0.56277 -3.50861,-0.50197 -3.37361,0.20605 z m 101.085136,1.56977 c -3.8125,1.14226 -4.67249,6.71102 -1.39662,9.04364 2.18489,1.55578 4.59312,1.29026 6.69619,-0.73828 1.0552,-1.01781 1.14653,-1.28296 1.14653,-3.32874 0,-2.05209 -0.0965,-2.32963 -1.25614,-3.61323 -1.59056,-1.76056 -2.80207,-2.07882 -5.18996,-1.36339 z M 3.536824,172.71417 c -1.92866,1.51709 -0.7464,4.91328 1.71038,4.91328 0.60819,0 1.41396,-0.23307 1.79059,-0.51794 0.64955,-0.4913 0.62806,-0.51853 -0.41764,-0.52917 -0.60634,-0.006 -1.59852,-0.11044 -2.20486,-0.23171 -1.0004,-0.20008 -1.10243,-0.34338 -1.10243,-1.54824 0,-1.25742 0.0701,-1.34017 1.32291,-1.56221 2.30388,-0.40831 2.71502,-0.58612 2.16328,-0.93556 -0.84049,-0.53232 -2.29568,-0.34874 -3.26223,0.41155 z m 199.521336,1.01865 c 0.31154,0.49887 0.50741,0.57257 0.70314,0.26459 0.44171,-0.69504 0.32528,-0.95607 -0.42644,-0.95607 -0.61543,0 -0.65179,0.0909 -0.2767,0.69148 z m 3.45469,1.07241 v 1.41111 l 2.73403,-0.005 c 3.73807,-0.007 4.32153,-0.19851 4.32153,-1.42157 0,-1.2029 -0.29963,-1.30084 -4.14514,-1.35491 l -2.91042,-0.0409 z m -295.451376,0 c 0,0.64676 0.19844,1.24207 0.44097,1.32292 0.30574,0.10191 0.44098,-0.30378 0.44098,-1.32292 0,-1.01914 -0.13524,-1.42483 -0.44098,-1.32292 -0.24253,0.0808 -0.44097,0.67616 -0.44097,1.32292 z m 306.034706,0 v 1.05833 h 8.81945 c 4.85069,0 8.81944,-0.0892 8.81944,-0.19822 0,-0.10902 -0.27781,-0.58028 -0.61736,-1.04725 l -0.61736,-0.84902 -8.20208,-0.0111 -8.20209,-0.0111 z m 26.08237,-0.34037 c -1.51038,0.80833 -0.56036,1.04583 4.16833,1.04204 5.04586,-0.004 7.49653,-0.24085 7.49653,-0.7244 0,-0.42706 -1.48438,-0.57178 -6.46139,-0.62997 -2.55186,-0.0298 -4.81832,0.10621 -5.20347,0.31233 z m -223.661106,0.35278 c -0.3753,0.20086 -0.68236,0.57696 -0.68236,0.83579 0,0.60848 -2.1503,0.95797 -3.50451,0.56958 -1.00086,-0.28704 -1.07178,-0.23235 -1.64484,1.26818 -0.47349,1.2398 -0.51574,1.75063 -0.20177,2.4397 0.52428,1.15067 1.47861,1.11754 4.14505,-0.14391 2.52706,-1.19551 3.67551,-2.49141 3.67551,-4.14738 0,-1.27312 -0.50773,-1.50665 -1.78708,-0.82196 z m -24.55794,0.90671 c -0.34252,0.8926 0.53891,4.09391 1.37109,4.97973 1.5786,1.68034 2.63802,0.48377 1.22507,-1.38367 -0.4843,-0.64009 -1.06005,-1.83848 -1.27944,-2.6631 -0.41193,-1.5483 -0.93765,-1.9208 -1.31672,-0.93296 z m -75.71041,3.4057 c 0.89489,2.93179 3.66644,7.37197 5.52706,8.85465 2.2677,1.80706 9.37334,4.9607 13.21495,5.86508 1.73516,0.40848 4.77148,0.34832 5.2233,-0.10349 0.18705,-0.18706 -1.34103,-5.82642 -3.42092,-12.6248 l -1.03565,-3.38514 -7.29432,-0.20681 c -6.11257,-0.17331 -7.34448,-0.29644 -7.60391,-0.76001 -0.20031,-0.35794 -0.80534,-0.55319 -1.71423,-0.55319 -0.95734,0 -1.47306,-0.17828 -1.61948,-0.55983 -0.18161,-0.47327 -0.35065,-0.42401 -1.09325,0.31859 l -0.87842,0.87842 z m 283.885046,-2.61794 c 0.75329,0.14701 1.05957,-0.11995 0.7368,-0.64221 -0.17451,-0.28236 -0.3991,-0.26409 -0.79582,0.0647 -0.49795,0.41272 -0.4921,0.46992 0.059,0.57748 z m 36.58482,1.70333 c 1.04198,1.26539 3.26292,2.58673 4.32946,2.57579 0.97776,-0.01 2.32832,-0.66198 2.32832,-1.12394 0,-0.0965 -0.98418,-0.27831 -2.18707,-0.40403 -1.20289,-0.12573 -2.7507,-0.53459 -3.43958,-0.90858 -1.56854,-0.85155 -1.62381,-0.85901 -1.03113,-0.13924 z m -28.31591,1.52561 -1.28342,0.003 0.14529,15.08125 c 0.0799,8.29469 0.23687,17.02594 0.3488,19.40278 l 0.20351,4.32152 h 7.73861 7.73861 l -0.10121,-12.25902 -0.10122,-12.25903 -1.05834,-1.65296 c -0.58208,-0.90912 -2.78393,-4.22304 -4.893,-7.36426 l -3.83467,-5.71131 -1.80977,0.21745 c -0.99538,0.11959 -2.38731,0.21883 -3.09319,0.22051 z m -205.759626,2.3256 c -0.13185,0.34358 -0.053,0.50486 0.20479,0.41893 0.52734,-0.17579 0.8177,-0.97757 0.35401,-0.97757 -0.18944,0 -0.4409,0.25139 -0.5588,0.55864 z m 65.93193,3.8682 c -1.41793,1.05277 -6.17361,5.95976 -6.17361,6.37004 0,0.23227 0.59532,0.77473 1.32292,1.20545 1.22817,0.72705 1.48178,0.75401 3.54103,0.37643 2.83912,-0.52058 11.53714,-3.55471 13.43531,-4.68664 l 1.45494,-0.86763 -0.79307,-0.72233 c -1.88044,-1.7127 -3.51736,-2.12791 -8.55418,-2.16982 -2.60465,-0.0217 -3.71241,0.10773 -4.23334,0.4945 z m -23.78081,0.34523 c -10.65535,0.78011 -25.2081,2.27835 -25.5654,2.63202 -0.27578,0.27297 0.67413,1.72738 3.15908,4.83688 l 0.73231,0.91636 17.61213,-1.31217 c 9.68668,-0.72169 17.66175,-1.44968 17.72239,-1.61774 0.15937,-0.44173 1.76334,-2.51114 3.58758,-4.62861 l 1.58116,-1.83532 -5.78281,0.23839 c -3.18055,0.13112 -9.05144,0.4777 -13.04644,0.77019 z m -44.78105,0.22342 c -0.0676,0.18067 -0.71732,1.21265 -1.44374,2.2933 -1.26883004,1.88756 -1.30276004,2.01524 -0.86265004,3.24704 0.25197,0.70522 0.46509004,1.58144 0.47361004,1.94716 0.0133,0.57068 0.11911,0.53319 0.74657,-0.2645 0.46813,-0.59513 1.21496,-1.00681 2.07635,-1.14455 1.2994,-0.20778 1.35288,-0.27264 1.56918,-1.90315 0.25155,-1.89629 0.50041,-2.17993 2.50255,-2.85225 0.77611,-0.26061 1.46366,-0.50531 1.52789,-0.54376 0.0642,-0.0385 -0.0686,-0.41631 -0.2952,-0.83969 -0.39016,-0.72902 -0.56444,-0.75649 -3.29178,-0.51893 -1.58389,0.13796 -2.93514,0.39866 -3.00278,0.57933 z m 11.82635,1.05591 c -0.25587,0.40565 0.003,0.99194 1.03313,2.33891 1.6243,2.12408 2.35878,3.13308 10.58412,14.54024 2.02866,2.81341 4.39104,6.06778 5.24973,7.23195 2.0291,2.75094 14.0961,19.35079 16.49461,22.69064 1.01996,1.42028 2.98027,4.11903 4.35625,5.99723 1.37597,1.87819 3.67784,5.02007 5.11527,6.98193 1.43743,1.96187 3.48664,4.79224 4.55379,6.28971 1.06716,1.49746 2.90452,4.0198 4.08303,5.60518 1.17851,1.58539 4.83969,6.61315 8.13595,11.1728 3.29626,4.55966 7.88827,10.86291 10.20447,14.00723 2.3162,3.14432 4.92565,6.71528 5.79877,7.93546 5.43401,7.59394 10.461796,13.68996 12.153186,14.7353 1.7178,1.06165 3.62517,0.93402 5.60115,-0.37481 0.90613,-0.6002 1.71322,-1.19759 1.79353,-1.32753 0.12512,-0.20245 -1.59628,-2.77592 -5.2253,-7.81176 -0.48938,-0.6791 -1.9206,-2.66347 -3.18047,-4.40972 -1.25988,-1.74625 -2.746086,-3.81 -3.302686,-4.58611 -0.55659,-0.77611 -1.88368,-2.60174 -2.94908,-4.05695 -2.24733,-3.06957 -6.89572,-9.4461 -8.97242,-12.30811 -0.78995,-1.08866 -2.24977,-3.09064 -3.24405,-4.44883 -0.99428,-1.35819 -3.36421,-4.63027 -5.26651,-7.27128 -4.30747,-5.98016 -9.93198,-13.74778 -13.63785,-18.83428 -1.55499,-2.1343 -3.28528,-4.51555 -3.84508,-5.29166 -0.55981,-0.77611 -2.3165,-3.18622 -3.90376,-5.35578 -1.58726,-2.16957 -3.75906,-5.15536 -4.82621,-6.63509 -5.9574,-8.26059 -11.2626,-15.22308 -12.44822,-16.33692 -0.58197,-0.54672 -1.71744,-0.94299 -3.70184,-1.29188 -5.4995,-0.9669 -6.50328,-1.52875 -8.8003,-4.92582 -0.81911,-1.21139 -3.49569,-4.91193 -9.77078,-13.50871 -1.12316,-1.53872 -1.5,-1.67468 -2.08243,-0.75134 z m -23.8742,6.8221 c -2.23132,3.06745 -4.63976,6.38671 -5.35208,7.37614 -1.86174,2.586 -5.01036,6.92869 -7.57087,10.44202 -0.77774,1.06716 -3.37585,4.63903 -5.77357,7.9375 -2.39772,3.29847 -5.17601,7.10847 -6.17398,8.46667 -0.99796,1.35819 -2.95556,4.05694 -4.3502,5.99722 -1.39465,1.94028 -4.20583,5.82965 -6.24706,8.64305 -2.04124,2.81341 -4.57225,6.30591 -5.62445,7.76112 -1.05221,1.4552 -3.18894,4.39208 -4.7483,6.52638 -1.55936,2.13431 -3.34203,4.59493 -3.96148,5.46806 -1.4696,2.07143 -10.61697,14.70797 -13.91764,19.22639 -1.41736,1.94028 -3.14443,4.32153 -3.83795,5.29167 -0.69351,0.97013 -2.25405,3.11326 -3.46787,4.7625 -1.21383,1.64923 -3.37246,4.74486 -4.79696,6.87916 -1.4245,2.13431 -2.89283,4.31998 -3.26295,4.85706 -1.01167,1.46801 -2.0537,4.07695 -2.05221,5.13816 7.2e-4,0.51749 0.31297,1.45203 0.69388,2.07675 0.7872,1.29107 3.54632,3.42806 3.89492,3.01669 0.36381,-0.42931 3.25627,-4.31378 4.79954,-6.4456 0.77254,-1.06716 2.2808,-3.13091 3.35169,-4.58611 3.90408,-5.30516 5.88739,-8.02512 8.97686,-12.31109 1.73394,-2.40547 4.10512,-5.67312 5.26929,-7.26145 2.43772,-3.32589 11.01889,-15.14257 15.15451,-20.86847 5.12932,-7.10171 14.1718,-19.51542 14.99798,-20.58955 1.88464,-2.45025 14.30143,-19.8423 16.84609,-23.59611 l 1.28818,-1.90029 -0.37521,-3.92055 c -0.60154,-6.28534 -0.72706,-5.9358 4.82869,-13.44554 8.45336,-11.42645 8.07912,-10.83346 7.3736,-11.68356 -0.57568,-0.69366 -0.45228,-0.83319 -5.96245,6.74178 z m 23.21865,-0.0971 c 0.25314,0.25314 0.41746,0.27397 0.41746,0.0529 0,-0.47088 -0.4172,-0.88808 -0.65264,-0.65264 -0.10025,0.10025 0.006,0.37012 0.23518,0.59972 z m -19.02054,3.54862 c -0.75674,1.17083 -1.37589,2.26292 -1.37589,2.42686 0,0.16395 1.04886,0.29809 2.3308,0.29809 2.07695,0 2.3044,-0.0672 2.08842,-0.61736 -0.13331,-0.33955 -0.4052,-1.52917 -0.60421,-2.6436 -0.21044,-1.17843 -0.50857,-1.93555 -0.71253,-1.8095 -0.19288,0.11921 -0.96985,1.17469 -1.72659,2.34551 z m 9.913,0.96106 v 1.41114 h 2.12908 c 1.37669,0 2.44022,-0.20387 3.00955,-0.57691 0.66553,-0.43607 1.7409,-0.57773 4.40501,-0.58026 1.9385,-0.002 3.43256,-0.0994 3.32014,-0.21684 -0.54418,-0.56839 -5.68668,-1.3642 -9.07142,-1.40382 l -3.79236,-0.0444 z m 23.71896,-0.55322 c -0.26282,0.26281 1.46138,2.33148 1.83989,2.20749 0.20367,-0.0667 0.42089,-0.72637 0.48272,-1.4659 0.11236,-1.34404 0.11194,-1.34449 -1.03261,-1.11558 -0.62976,0.12595 -1.21026,0.29424 -1.29,0.37399 z m -70.63841,0.86485 c 0,0.64715 0.88057,1.08433 2.20486,1.09466 1.0682,0.008 0.6701,-1.01811 -0.52916,-1.36439 -1.63496,-0.47207 -1.6757,-0.46552 -1.6757,0.26973 z m 110.06666,4.27451 c 0,0.64623 0.23519,0.70556 2.79703,0.70556 2.07238,0 2.94065,-0.14363 3.35139,-0.55437 0.3049,-0.3049 0.55436,-0.6224 0.55436,-0.70556 0,-0.0832 -1.50812,-0.15119 -3.35139,-0.15119 -3.1162,0 -3.35139,0.0495 -3.35139,0.70556 z m -22.22499,0.52917 v 1.23472 h 9.34861 9.34861 v -1.23472 -1.23473 h -9.34861 -9.34861 z m -10.58334,-0.84918 c 0.87313,0.17049 2.26447,0.47099 3.09187,0.66777 0.8274,0.19679 2.05772,0.3578 2.73403,0.3578 0.99447,0 1.22966,-0.13495 1.22966,-0.70556 0,-0.66921 -0.22259,-0.70361 -4.32153,-0.66778 -3.52407,0.0308 -4.02858,0.095 -2.73403,0.34777 z m -43.03888,8.61029 v 6.17361 h 4.05694 4.05694996 v -5.96783 c 0,-4.44417 -0.11259,-6.01325 -0.44098,-6.14576 -0.24253,-0.0979 -2.06815996,-0.19046 -4.05693996,-0.20578 l -3.61597,-0.0279 z m -4.58611,-2.64584 c 0,0.70556 0.17639,1.05834 0.52916,1.05834 0.53395,0 0.75578,-1.41969 0.29398,-1.88148 -0.50573,-0.50574 -0.82314,-0.18832 -0.82314,0.82314 z m 16.36238,6.74329 0.0418,2.50996 2.49957,-0.16019 c 1.37476,-0.0881 2.68445,-0.27446 2.91042,-0.41411 0.22596,-0.13966 0.41085,-1.03111 0.41085,-1.981 0,-1.89119 0.12437,-1.80842 -3.35139,-2.23041 -2.73322,-0.33183 -2.55729,-0.49127 -2.51123,2.27575 z m -15.54504,-1.73825 c 0.11262,0.28142 0.19621,0.19783 0.21314,-0.21314 0.0153,-0.37188 -0.0681,-0.58024 -0.18529,-0.46302 -0.11722,0.11723 -0.12975,0.4215 -0.0279,0.67616 z"
         id="path2"
         inkscape:label="Outline" /></g></g></svg>
