<?xml version="1.0" encoding="UTF-8" standalone="no"?>
<!-- Created with Inkscape (http://www.inkscape.org/) -->

<svg
   width="519.77917mm"
   height="66.635193mm"
   viewBox="0 0 519.77917 66.635193"
   version="1.1"
   id="svg1"
   xml:space="preserve"
   inkscape:version="1.3 (0e150ed6c4, 2023-07-21)"
   sodipodi:docname="LightTorp.svg"
   xmlns:inkscape="http://www.inkscape.org/namespaces/inkscape"
   xmlns:sodipodi="http://sodipodi.sourceforge.net/DTD/sodipodi-0.dtd"
   xmlns="http://www.w3.org/2000/svg"
   xmlns:svg="http://www.w3.org/2000/svg"><sodipodi:namedview
     id="namedview1"
     pagecolor="#505050"
     bordercolor="#ffffff"
     borderopacity="1"
     inkscape:showpageshadow="0"
     inkscape:pageopacity="0"
     inkscape:pagecheckerboard="1"
     inkscape:deskcolor="#505050"
     inkscape:document-units="mm"
     inkscape:zoom="0.37186"
     inkscape:cx="1370.1393"
     inkscape:cy="-434.30323"
     inkscape:window-width="1848"
     inkscape:window-height="991"
     inkscape:window-x="32"
     inkscape:window-y="49"
     inkscape:window-maximized="1"
     inkscape:current-layer="layer1" /><defs
     id="defs1" /><g
     inkscape:label="LightTorp"
     inkscape:groupmode="layer"
     id="layer1"
     transform="translate(153.23333,-115.36221)"><g
       id="g5"
       inkscape:label="LightTorp"><path
         id="path8"
         style="display:inline;fill:#cdb600"
         inkscape:label="YellowBody"
         d="m -111.52291,117.38922 -4.01164,2.41225 -1.3286,7.67137 -4.63486,-2.65669 -4.93355,3.52382 -4.12016,3.47834 -5.54333,-1.8681 -9.02219,6.09575 -1.96215,6.87917 -1.92443,5.04155 2.08721,8.61963 4.3372,6.40581 7.50962,3.66592 7.64243,1.24696 7.48171,4.09329 3.98425,-0.56948 1.3286,6.53242 8.68319,1.73633 26.323979,0.56275 3.415296,-1.68051 -0.313676,-8.96741 10.438639,0.85679 50.424312,3.84576 73.477686,-0.26613 283.514994,0.28267 11.28872,-1.54513 5.82755,-4.33668 4.38009,-6.71587 0.73226,-18.14411 -0.2465,-8.64392 -5.51129,-7.90856 -17.7121,-3.87625 -37.56205,0.0315 H -17.65887 l -43.309502,4.02559 -15.666744,1.2206 -0.493509,-10.25984 z" /><path
         id="path7"
         style="display:inline;fill:#a59a00"
         inkscape:label="YellowShadow"
         d="m -111.52291,117.38922 -4.01164,2.41225 -1.3286,7.67137 -4.63486,-2.65669 -4.93355,3.52382 -4.12016,3.47834 -5.54333,-1.8681 -9.02219,6.09575 -1.96215,6.87917 -1.92443,5.04155 2.08721,8.61963 4.3372,6.40581 7.50962,3.66592 7.64243,1.24696 7.48171,4.09329 3.98425,-0.56948 1.3286,6.53242 8.68319,1.73633 26.323979,0.56275 3.415296,-1.68051 -0.313676,-8.96741 10.438639,0.85679 50.424312,3.84576 73.477686,-0.26613 283.514994,0.28267 11.28872,-1.54513 5.82755,-4.33668 4.38009,-6.71587 0.73226,-18.14411 -0.2465,-8.64392 -5.51129,-7.90856 -17.7121,-3.87625 -37.56205,0.0315 H -17.65887 l -43.309502,4.02559 -15.666744,1.2206 -0.493509,-10.25984 z m 17.511077,2.55178 c 7.388949,-0.0517 14.475148,0.0136 14.704012,0.24185 0.140304,0.13992 0.332711,1.74306 0.427881,3.56257 l 0.173116,3.30832 -2.364713,0.24237 c -3.694487,0.37852 -9.733725,1.48373 -20.832833,3.8132 -5.62681,1.18095 -10.61326,2.22807 -11.08098,2.32647 l -0.85008,0.1788 0.21549,-6.2668 c 0.11844,-3.44666 0.2695,-6.3208 0.3359,-6.3872 0.0664,-0.0664 1.30471,-0.31802 2.75177,-0.55914 1.43987,-0.23992 9.13149,-0.40878 16.520437,-0.46044 z m 107.182089,10.13065 c 27.619893,-0.0603 73.972672,-0.0474 154.800374,0.005 145.25663,0.0936 184.20407,0.21069 185.7375,0.55862 4.17511,0.94732 5.12668,1.40223 5.93193,2.83497 0.41842,0.74448 1.11135,2.76487 1.53996,4.48965 0.6828,2.74766 0.77925,4.07476 0.77825,10.72027 -0.001,6.69776 -0.0956,7.96733 -0.80512,10.85412 -2.10628,8.56933 -6.6781,11.2072 -20.9243,12.07368 -6.7917,0.41312 -338.5060712,0.39068 -352.150086,-0.0238 -19.154518,-0.58183 -41.022687,-2.20326 -56.998071,-4.2261 -11.164382,-1.41366 -27.076578,-4.27959 -41.980903,-7.56181 -7.84027,-1.72658 -8.46472,-1.90351 -8.47752,-2.3983 -0.006,-0.23505 -0.3902,-1.20151 -0.85369,-2.14767 -1.13565,-2.31832 -0.89566,-2.8343 1.18287,-2.54455 6.82186,0.95093 25.589208,1.51287 32.678111,0.97823 4.748049,-0.35809 6.157146,-0.87238 7.234701,-2.63963 1.503012,-2.46502 0.453232,-5.39165 -2.405021,-6.70553 -1.623116,-0.74615 -2.013699,-0.76516 -15.071949,-0.72296 -12.294312,0.0397 -20.165502,0.4414 -22.659082,1.15652 l -0.97668,0.28009 0.0326,-2.0867 c 0.021,-1.33413 0.2214,-2.27501 0.55501,-2.60862 0.60982,-0.60981 8.15322,-1.98464 21.942327,-3.99821 21.32304,-3.11371 39.47903,-4.66519 68.486776,-5.85235 5.895302,-0.24126 14.782169,-0.37435 42.402063,-0.4346 z M -132.487,144.47128 c 0.84766,0.0221 0.87391,0.0574 0.24391,0.32815 -0.98009,0.42117 -1.67157,0.42117 -1.41128,0 0.11992,-0.19402 0.64524,-0.34174 1.16737,-0.32815 z m 33.798967,3.58583 c 7.561126,-0.0594 15.210329,0.0583 15.563391,0.41135 0.116415,0.11642 0.09497,0.32825 -0.04754,0.47077 -0.276174,0.27622 -19.004968,0.42084 -26.228378,0.20257 -2.37684,-0.0718 -4.3217,-0.26681 -4.3217,-0.43305 0,-0.35583 7.4731,-0.59221 15.034229,-0.65164 z m -14.695227,15.84916 c 0.11115,-0.0367 0.25881,-0.007 0.45475,0.0367 10.17156,2.25083 31.527192,6.25395 33.371609,6.25595 0.818566,7.5e-4 0.826267,0.0378 0.705383,3.32331 -0.06724,1.82743 -0.254035,3.45446 -0.415478,3.6158 -0.161444,0.16135 -5.718046,0.31519 -12.347567,0.34159 -11.379117,0.0453 -17.475557,-0.17707 -20.382737,-0.74259 l -1.27382,-0.24753 -0.22531,-2.66909 c -0.12409,-1.46797 -0.22583,-4.33073 -0.22583,-6.36137 0,-2.73425 0.006,-3.44261 0.339,-3.55276 z" /><path
         id="path6"
         style="display:inline;fill:#9b132a"
         inkscape:label="PropRed"
         d="m -120.99417,124.70815 -5.09581,6.39703 -9.05578,-1.8986 -8.97257,6.77633 -3.28146,5.88543 0.16898,3.62045 -1.38699,3.9734 5.29425,11.65821 7.07554,5.46736 6.07198,-0.81287 9.05061,5.30511 0.48059,-7.16029 -2.35335,-10.03815 0.41858,-15.61041 5.78311,-7.88376 z m -12.54497,19.59984 c 0.44921,-0.27763 1.84248,0.17855 1.62419,0.53175 -0.25864,0.41848 -1.91564,0.40146 -1.91564,-0.0196 0,-0.18257 0.13109,-0.41301 0.29145,-0.51211 z" /><path
         style="display:inline;fill:#020101"
         d="m -100.60426,181.83199 c -9.05916,-0.32652 -12.73915,-0.76303 -14.34646,-1.70175 -1.44484,-0.84383 -2.52187,-2.54137 -2.80336,-4.41845 l -0.23422,-1.56191 -2.05008,0.18589 c -1.98547,0.18004 -2.09678,0.14371 -3.53172,-1.15268 -1.43548,-1.29687 -6.62042,-4.74753 -7.1336,-4.74753 -0.13938,0 -0.57195,0.40494 -0.96127,0.89988 -0.89426,1.13687 -2.50283,1.61566 -4.01089,1.19384 -0.63432,-0.17742 -2.34392,-1.40681 -3.79913,-2.73198 -1.45521,-1.32517 -3.59834,-3.05639 -4.7625,-3.84714 -3.34168,-2.26983 -4.19036,-3.32641 -3.97309,-4.94635 0.14345,-1.06949 0.006,-1.57312 -0.65495,-2.39915 -0.46008,-0.57502 -0.8373,-1.4806 -0.83827,-2.01239 -0.001,-0.7105 -0.32196,-1.1768 -1.2093,-1.75847 -1.62007,-1.06198 -2.32023,-2.3503 -2.32023,-4.26936 0,-1.89073 1.08565,-3.40464 3.22374,-4.49542 1.23402,-0.62955 1.3447,-0.79553 1.10705,-1.66022 -0.45476,-1.65461 -0.19795,-3.00137 1.02104,-5.35444 1.26071,-2.43361 2.44524,-3.49451 6.32007,-5.66047 1.21489,-0.6791 3.06072,-2.01043 4.10184,-2.95852 1.60741,-1.46377 2.10702,-1.7238 3.31193,-1.7238 1.12295,0 1.66566,0.23909 2.60145,1.14609 1.37806,1.33567 1.21361,1.39679 4.77122,-1.77319 1.45521,-1.29665 3.02224,-2.55336 3.48231,-2.79268 1.30019,-0.67635 3.16912,-0.53579 4.06486,0.30571 0.43372,0.40746 0.88182,0.74083 0.99579,0.74083 0.11396,0 0.31771,-0.95208 0.45276,-2.11573 0.42924,-3.69831 2.11383,-5.32359 6.19166,-5.97363 3.64347,-0.5808 23.206674,-1.11785 28.55706,-0.78395 7.398012,0.46169 8.045954,1.01143 8.367101,7.09902 l 0.206979,3.92343 0.916432,-0.18066 c 5.790306,-1.14144 27.084477,-3.00939 51.363653,-4.50568 9.233648,-0.56905 351.654895,-0.84797 361.949985,-0.29482 7.7122,0.41437 10.76375,0.89168 14.34817,2.24427 2.99268,1.1293 3.91302,1.70725 6.2305,3.91261 3.56019,3.38795 5.38113,8.34154 6.02695,16.39543 0.43416,5.41429 -0.005,12.43452 -1.02793,16.43437 -0.94909,3.7109 -2.7916,7.1032 -4.99902,9.20382 -2.31748,2.20536 -3.23782,2.78331 -6.2305,3.91261 -3.58442,1.35259 -6.63597,1.82991 -14.34817,2.24428 -10.29509,0.55314 -352.716337,0.27422 -361.949985,-0.29483 -24.389633,-1.5031 -45.628628,-3.36913 -51.41736,-4.51748 l -0.970138,-0.19245 -0.02103,2.58567 c -0.04559,5.60552 -0.820046,7.24994 -3.776957,8.01971 -2.003983,0.52169 -13.044979,0.70916 -22.24239,0.37767 z m 21.807043,-7.90035 v -3.67614 l -0.970139,-0.1911 c -0.533576,-0.1051 -2.954513,-0.51928 -5.379861,-0.92039 -2.425347,-0.40111 -9.531866,-1.75648 -15.792263,-3.01193 -6.2604,-1.25545 -11.69759,-2.28264 -12.08264,-2.28264 -0.67071,0 -0.7001,0.25072 -0.7001,5.97203 0,6.75298 0.0551,6.90842 2.56186,7.23144 0.8223,0.10597 1.89196,0.25254 2.37703,0.32572 0.48507,0.0732 7.43038,0.15468 15.43403,0.18111 l 14.552083,0.048 z m 426.770747,-2.77793 c 3.38641,-0.70183 6.9356,-2.05108 8.57292,-3.25906 1.77504,-1.30957 3.43218,-3.90842 4.48172,-7.02852 0.94207,-2.8006 0.95449,-2.95916 0.95449,-12.18613 0,-9.28032 -0.007,-9.36987 -0.97758,-12.25923 -2.35182,-7.00225 -6.85963,-9.68354 -17.92696,-10.66313 -5.4049,-0.4784 -344.975505,-0.48402 -358.375339,-0.006 -35.228724,1.25691 -61.279551,4.27058 -89.958331,10.40676 -15.74377,3.36858 -15.23737,3.14063 -15.08625,6.79101 0.091,2.1985 0.11376,2.24659 0.97514,2.06213 3.58732,-0.7682 9.05688,-1.03386 21.872222,-1.06235 15.61812,-0.0347 16.177843,0.0269 17.803732,1.95913 1.256108,1.4928 1.256108,4.05042 0,5.54322 -1.625876,1.93224 -2.185643,1.99384 -17.803732,1.95921 -12.892122,-0.0286 -17.289252,-0.24099 -21.942822,-1.05993 -1.18567,-0.20866 -1.32575,-0.14837 -1.52806,0.65769 -0.15222,0.60648 0.0656,1.42896 0.68797,2.59813 0.50088,0.9409 0.91069,1.89621 0.91069,2.12291 0,0.43951 2.20721,0.99624 13.75833,3.47031 24.513278,5.25034 45.258155,7.9666 74.265675,9.72407 14.368255,0.87052 28.0691321,0.93143 198.607935,0.88297 166.20264,-0.0472 177.98969,-0.0898 180.70825,-0.65326 z m -470.37654,-3.62895 c 0.31062,-0.80948 0.26252,-2.54543 -0.0763,-2.75486 -0.15976,-0.0987 -1.21258,0.0942 -2.33961,0.42879 l -2.04915,0.60831 1.72225,1.1072 c 1.98989,1.27926 2.44718,1.38105 2.74285,0.61056 z m -15.42969,-9.55895 c -0.0898,-0.0898 -0.64917,-0.11247 -1.24295,-0.0503 l -1.07959,0.11307 1.13387,1.76389 1.13388,1.76389 0.10907,-1.71361 c 0.06,-0.94249 0.0356,-1.78712 -0.0543,-1.87697 z m 12.94788,2.26766 c 0.96275,-1.54277 1.00212,-2.66834 0.1378,-3.94029 -0.73596,-1.08307 -0.8734,-1.1477 -1.48687,-0.69912 -0.7998,0.58483 -2.71081,0.6529 -3.24801,0.1157 -0.26958,-0.26958 -0.75928,0.086 -1.7009,1.23514 -1.15529,1.40988 -1.26121,1.68758 -0.83851,2.19838 0.79675,0.9628 3.19617,1.86794 4.9736,1.87619 1.3522,0.006 1.76124,-0.14236 2.16289,-0.786 z m -18.04752,-5.62693 c -0.19895,-0.19895 -0.55836,-0.2402 -0.79869,-0.0917 -0.32448,0.20054 -0.26533,0.39555 0.22977,0.75758 0.73745,0.53923 1.21504,-0.0198 0.56892,-0.66591 z m 4.29134,-4.0355 c 0.32523,-2.37277 0.28022,-2.94937 -0.23023,-2.94937 -0.25002,0 -1.08346,-0.32557 -1.85209,-0.72348 -1.05348,-0.54537 -1.76457,-0.67062 -2.88859,-0.50878 -1.5084,0.21718 -2.2924,0.77158 -1.44169,1.01948 3.06935,0.89442 3.73326,1.32747 4.66795,3.0448 0.52508,0.96475 1.08196,1.75409 1.2375,1.75409 0.15555,0 0.38376,-0.73653 0.50715,-1.63674 z m 11.7528,0.17292 1.61034,-0.40549 -0.16797,-2.61729 c -0.10534,-1.64145 -0.36191,-2.81123 -0.68814,-3.13746 -0.45839,-0.45839 -0.59494,-0.35439 -1.14951,0.87542 -0.87671,1.9442 -2.72532,3.63572 -4.25236,3.891 -1.65084,0.27598 -1.72213,0.81186 -0.17804,1.33842 1.59293,0.54322 2.83188,0.55744 4.82568,0.0554 z m 43.504872,-1.71658 c 1.315328,-0.86346 -0.858554,-1.04228 -12.734967,-1.04753 -12.315265,-0.005 -17.603925,0.2149 -17.603925,0.73348 0,0.43972 2.71454,0.53717 16.756948,0.60157 8.078745,0.037 13.254428,-0.0725 13.581944,-0.28752 z m -48.529792,-4.19097 c 0.10735,-0.1737 -0.055,-0.41182 -0.36081,-0.52917 -0.94347,-0.36204 -1.55662,-0.23764 -1.55662,0.31582 0,0.57734 1.58357,0.75355 1.91743,0.21335 z m -5.58929,-2.287 c 0.33639,-0.8766 -0.39768,-2.79851 -1.33664,-3.49954 -0.82405,-0.61524 -1.10119,-0.64382 -2.64714,-0.27295 -0.9497,0.22783 -2.19071,0.7842 -2.7578,1.23639 -1.47273,1.17431 -0.80386,1.81025 2.2172,2.10805 1.30648,0.12878 2.61353,0.38473 2.90458,0.56877 0.75664,0.47847 1.40377,0.42225 1.6198,-0.14072 z m 8.76637,-2.52368 c 0.37663,-0.28488 1.42835,-0.51795 2.33715,-0.51795 1.56843,0 1.66357,-0.056 1.87286,-1.10243 0.3339,-1.66955 0.26381,-5.53193 -0.10453,-5.75958 -0.17876,-0.11048 -0.90138,0.74793 -1.60582,1.90757 -0.70445,1.15964 -2.14663,2.88014 -3.20486,3.82332 -1.05824,0.94319 -1.81728,1.82166 -1.68678,1.95217 0.40233,0.40232 1.67204,0.24143 2.39198,-0.3031 z m -7.21658,-5.36865 c -0.003,-0.33954 -0.15203,-0.84917 -0.33124,-1.1325 -0.27809,-0.43965 -0.43581,-0.41562 -1.07631,0.16403 -0.7078,0.64056 -0.71522,0.70494 -0.1305,1.1325 0.86963,0.63589 1.54442,0.56393 1.53805,-0.16403 z m 30.39354,-2.53848 c 6.754513,-1.45157 18.104235,-3.60781 22.352141,-4.2465 1.358195,-0.20421 2.906007,-0.46046 3.439583,-0.56945 l 0.970139,-0.19815 v -3.70426 -3.70426 l -15.963194,0.1442 c -15.885719,0.14351 -17.965749,0.30005 -18.667019,1.4049 -0.15619,0.24608 -0.28641,3.10648 -0.28938,6.35645 l -0.005,5.90903 h 0.843 c 0.46365,0 3.75771,-0.62639 7.32014,-1.39196 z m -15.92425,-4.1193 c 0,-0.7857 -0.0804,-0.8584 -0.53351,-0.48236 -0.4058,0.33679 -0.43769,0.55825 -0.1332,0.92514 0.56346,0.67893 0.66671,0.61036 0.66671,-0.44278 z"
         id="path5"
         inkscape:label="Outline" /></g></g></svg>
