<?xml version="1.0" encoding="UTF-8" standalone="no"?>
<!-- Created with Inkscape (http://www.inkscape.org/) -->

<svg
   width="200.08382mm"
   height="30.89102mm"
   viewBox="0 0 200.08382 30.89102"
   version="1.1"
   id="svg1"
   xml:space="preserve"
   inkscape:version="1.3 (0e150ed6c4, 2023-07-21)"
   sodipodi:docname="SSN.svg"
   xmlns:inkscape="http://www.inkscape.org/namespaces/inkscape"
   xmlns:sodipodi="http://sodipodi.sourceforge.net/DTD/sodipodi-0.dtd"
   xmlns="http://www.w3.org/2000/svg"
   xmlns:svg="http://www.w3.org/2000/svg"><sodipodi:namedview
     id="namedview1"
     pagecolor="#505050"
     bordercolor="#ffffff"
     borderopacity="1"
     inkscape:showpageshadow="0"
     inkscape:pageopacity="0"
     inkscape:pagecheckerboard="1"
     inkscape:deskcolor="#505050"
     inkscape:document-units="mm"
     inkscape:zoom="1"
     inkscape:cx="206.5"
     inkscape:cy="74.5"
     inkscape:window-width="1848"
     inkscape:window-height="991"
     inkscape:window-x="32"
     inkscape:window-y="49"
     inkscape:window-maximized="1"
     inkscape:current-layer="layer1" /><defs
     id="defs1" /><g
     inkscape:label="Submarine"
     inkscape:groupmode="layer"
     id="layer1"
     transform="translate(-8.8164131,-157.75354)"><g
       id="g1041"
       transform="translate(4.0585956,1.5435239)"
       inkscape:label="VirginiaSSN"><path
         style="fill:#2c2c2c"
         d="m 33.52414,186.7095 c 0,-0.10277 0.08049,-0.34958 0.05106,-3.04857 l -0.04038,-3.70277 -0.464844,-0.0529 c -0.255664,-0.0291 -1.974376,-0.13324 -3.81936,-0.23149 -1.844983,-0.0982 -4.41397,-0.28219 -5.456487,-0.36913 -1.042516,-0.087 -2.41228,-0.21029 -3.043921,-0.27409 -0.631641,-0.0638 -1.911328,-0.21116 -2.84375,-0.32746 -0.932422,-0.1163 -2.408984,-0.3364 -3.28125,-0.48911 -0.872266,-0.15272 -2.084501,-0.34743 -2.776298,-0.50138 -0.691797,-0.15392 -1.685659,-0.37137 -2.2571437,-0.58434 -0.5714844,-0.21297 -1.2851562,-0.54467 -1.5859375,-0.73712 -0.3007813,-0.19245 -0.8939274,-0.72184 -1.3181025,-1.17642 -0.4241751,-0.45458 -0.9308898,-1.12607 -1.1260328,-1.49219 -0.1951429,-0.36613 -0.3952182,-0.70554 -0.5128143,-1.04734 -0.117596,-0.3418 -0.2138109,-0.80291 -0.2138109,-1.0247 0,-0.22179 0.1467797,-0.58114 0.2643756,-0.92294 0.1175961,-0.3418 0.3734734,-0.92101 0.5686163,-1.28714 0.195143,-0.36612 0.7018577,-1.03761 1.1260328,-1.49219 0.4241751,-0.45458 1.0173212,-0.98397 1.3181025,-1.17642 0.3007813,-0.19244 0.7484251,-0.4719 1.3199095,-0.68487 0.571484,-0.21297 1.625998,-0.48304 2.317795,-0.63699 0.691797,-0.15396 1.876502,-0.51828 2.748768,-0.67099 0.872266,-0.15272 2.338691,-0.37742 3.271113,-0.49372 0.932422,-0.1163 2.25975,-0.26451 2.891391,-0.32831 0.631641,-0.0638 2.085385,-0.1947 3.127901,-0.28164 1.042517,-0.087 3.313113,-0.25663 5.158096,-0.35487 1.844984,-0.0982 3.626214,-0.0343 3.881879,-0.0634 l 0.464844,-0.0529 0.168813,-3.51989 c 0.130353,-2.71796 0.10558,-3.0406 0.232234,-3.14572 0.111395,-0.0925 0.672384,-0.2314 2.688668,-0.20781 1.69139,0.0198 2.628825,0.16034 2.695653,0.22727 0.06864,0.0687 -0.06555,1.08709 0.0802,3.08755 l 0.182869,3.40565 3.388829,0.0662 c 1.814881,-0.0377 26.714992,-0.12292 55.409523,-0.12982 32.050819,-0.008 53.181509,0.053 54.827719,0.11832 1.47383,0.0584 3.51641,0.15962 4.53907,0.22494 1.02265,0.0653 2.86504,0.22638 4.12832,0.34429 1.26328,0.1179 3.33047,0.3383 4.59375,0.48977 1.26328,0.15147 3.30586,0.42348 4.53906,0.60446 1.2332,0.18098 3.50228,0.4098 4.58483,0.58436 1.08256,0.17456 1.99872,0.28271 2.03591,0.24035 0.0372,-0.0424 0.12718,-0.32247 0.19997,-0.62245 0.0728,-0.29998 0.0994,-0.56807 0.16245,-0.64407 0.0804,-0.0968 0.49544,-0.13817 1.38706,-0.13817 h 1.27238 l 0.50756,-2.39407 c 0.32618,-1.53853 0.40974,-2.37524 0.52266,-2.48828 0.14284,-0.14298 0.67673,-0.17391 3.50806,-0.20325 2.46357,-0.0255 2.59468,0.0651 2.71026,0.16103 0.13092,0.10865 0.0377,0.80946 0.15668,4.24927 l 0.1381,3.99261 2.44395,0.38443 c 1.01025,0.1589 1.9156,0.32084 2.01774,0.3244 0.11759,0.004 0.29811,-0.2121 0.49218,-0.5895 0.16857,-0.32779 0.42953,-0.68373 0.57992,-0.79097 0.15039,-0.10725 0.82285,-0.36276 1.49435,-0.56778 l 1.22092,-0.37278 1.67738,0.27325 c 1.28227,0.20889 2.94708,0.49137 3.69668,0.64586 1.09088,0.22482 1.42221,0.33771 1.66003,0.56555 0.16342,0.15657 0.40284,0.53041 0.53206,0.83077 0.12921,0.30036 0.30419,0.8729 0.38885,1.2723 0.0846,0.3994 0.16303,0.65997 0.16408,0.92139 10e-4,0.26142 0.0863,0.61826 0.18954,0.79297 0.17728,0.3001 0.17728,0.33521 0,0.63531 -0.1032,0.17471 -0.1885,0.53155 -0.18954,0.79297 -0.001,0.26142 -0.0712,0.8021 -0.15582,1.2015 -0.0847,0.39941 -0.12787,0.80429 -0.25708,1.10465 -0.12922,0.30036 -0.36864,0.67421 -0.53206,0.83077 -0.23782,0.22785 -0.56915,0.34073 -1.66003,0.56555 -0.7496,0.15449 -2.41483,0.43437 -3.69668,0.64586 l -2.04848,0.33799 -1.22092,-0.37278 c -0.6715,-0.20503 -1.22434,-0.49086 -1.37473,-0.59811 -0.15039,-0.10724 -0.41135,-0.46318 -0.57992,-0.79096 -0.19407,-0.3774 -0.37459,-0.59361 -0.49218,-0.58951 -0.10214,0.004 -1.02017,0.0992 -2.01774,0.3244 l -2.23515,0.50455 -0.0871,4.17943 c -0.0717,3.44113 0.0837,3.94102 -0.0472,4.04967 -0.11558,0.0959 -1.03268,0.12096 -3.49625,0.0954 -2.83133,-0.0293 -2.90624,0.0372 -3.04908,-0.10573 -0.11292,-0.11303 -0.28528,-0.93358 -0.52266,-2.48828 l -0.35417,-2.31964 -1.30063,-0.20948 c -0.88027,-0.14178 -1.3067,-0.0413 -1.38706,-0.13817 -0.0631,-0.076 -0.17423,-0.38361 -0.24701,-0.6836 -0.0728,-0.29998 -0.16277,-0.58008 -0.19997,-0.62244 -0.0372,-0.0424 -0.95335,0.0658 -2.03591,0.24034 -1.08255,0.17456 -2.97727,0.46546 -4.21047,0.64643 -1.2332,0.18098 -3.45244,0.55911 -4.71572,0.71058 -1.26328,0.15147 -3.33047,0.37187 -4.59375,0.48978 -1.26328,0.1179 -3.10594,0.22465 -4.12859,0.28998 -1.02266,0.0653 -3.06524,0.16655 -4.53907,0.22494 -1.64621,0.0652 -22.57285,0.17489 -54.623664,0.16725 -28.694531,-0.007 -53.334187,-0.0671 -55.149068,-0.10483 l -4.131047,-0.006 0.100014,3.4489 c -0.0081,2.00585 -0.335914,2.95383 -0.404562,3.02259 -0.0669,0.067 -0.75296,0.11811 -2.456936,0.13773 -2.134456,0.0246 -2.947843,0.0424 -2.947843,-0.10391 z"
         id="path1042"
         sodipodi:nodetypes="sscsccsssssssssssssssssssccscscsssccccssssssscscssssscscssscsssscsssscsssscssscscsscsscssssssssssccccssss"
         inkscape:label="Color" /><path
         style="fill:#010101"
         d="m 34.617187,187.07343 -1.203125,-0.0558 -0.03195,-0.4375 c -0.01757,-0.24062 -0.06679,-1.7664 -0.109375,-3.39062 l -0.07742,-2.95313 -1.09375,-0.0706 c -0.601562,-0.0388 -2.127343,-0.12814 -3.390625,-0.19845 -1.263281,-0.0703 -3.478125,-0.22406 -4.921875,-0.34168 -1.443749,-0.11761 -3.510937,-0.31201 -4.59375,-0.432 -1.082812,-0.11998 -3.002343,-0.38935 -4.265624,-0.5986 -1.263282,-0.20924 -2.893816,-0.52628 -3.623411,-0.70452 -0.729594,-0.17824 -1.6647506,-0.45776 -2.0781249,-0.62115 -0.4133743,-0.16338 -0.9976833,-0.45274 -1.2984646,-0.64301 -0.3007813,-0.19026 -0.9275589,-0.75111 -1.3928392,-1.24632 -0.6110341,-0.65034 -0.9755244,-1.16185 -1.3125,-1.8419 -0.4406211,-0.88921 -0.4665358,-0.99406 -0.4665358,-1.88768 0,-0.89363 0.025915,-0.99848 0.4665358,-1.88769 0.3369756,-0.68005 0.7014659,-1.19155 1.3125,-1.8419 0.4652803,-0.49521 1.0920579,-1.05606 1.3928392,-1.24632 0.3007813,-0.19027 0.8850903,-0.47962 1.2984646,-0.64301 0.4133743,-0.16339 1.3485309,-0.4429 2.0781249,-0.62115 0.729595,-0.17824 2.360129,-0.49528 3.623411,-0.70452 1.263281,-0.20925 3.182812,-0.47862 4.265624,-0.5986 1.082813,-0.11998 3.150001,-0.31438 4.59375,-0.432 1.44375,-0.11762 3.658594,-0.27137 4.921875,-0.34168 1.263282,-0.0703 2.789063,-0.15961 3.390625,-0.19845 l 1.09375,-0.0706 0.08504,-3.33348 c 0.04677,-1.83342 0.127726,-3.37617 0.179894,-3.42833 0.05217,-0.0522 1.336651,-0.0939 2.854408,-0.0927 1.517756,0.001 2.801506,0.0441 2.852779,0.0954 0.05127,0.0513 0.126829,1.55607 0.167903,3.34398 l 0.07468,3.25076 3.892646,-0.0819 c 2.140955,-0.045 27.296161,-0.0819 55.900458,-0.0819 40.783065,0 52.621575,0.0303 54.851565,0.1404 1.56406,0.0772 3.53281,0.18867 4.375,0.24766 0.84218,0.059 2.31875,0.18203 3.28125,0.27342 0.9625,0.0914 2.61133,0.26539 3.66406,0.38668 1.05273,0.1213 2.97227,0.3685 4.26562,0.54935 1.29336,0.18085 3.42353,0.49833 4.7337,0.7055 1.31017,0.20717 2.47558,0.37668 2.58981,0.37668 0.16256,0 0.237,-0.13099 0.3426,-0.60285 0.0742,-0.33157 0.19034,-0.64887 0.2581,-0.7051 0.0677,-0.0562 0.69963,-0.1367 1.40418,-0.17882 0.70454,-0.0421 1.28099,-0.0862 1.28099,-0.098 0,-0.0118 0.14962,-0.97661 0.3325,-2.1441 0.18287,-1.16749 0.35847,-2.2089 0.39022,-2.31423 0.0317,-0.10534 0.15675,-0.24453 0.27778,-0.3093 0.14237,-0.0762 1.35937,-0.11924 3.44712,-0.12193 1.95042,-0.003 3.26912,0.0379 3.33341,0.10221 0.0627,0.0627 0.13336,1.79472 0.17214,4.21871 l 0.0658,4.11236 0.28349,0.0574 c 0.15592,0.0316 0.97991,0.18144 1.83109,0.33302 0.85118,0.15158 1.6411,0.2756 1.75537,0.2756 0.1389,0 0.25452,-0.12929 0.34881,-0.39005 0.0776,-0.21453 0.28965,-0.5593 0.47127,-0.76615 0.27417,-0.31226 0.54342,-0.44325 1.58626,-0.77169 l 1.25605,-0.39559 1.98607,0.29411 c 1.09234,0.16176 2.74896,0.44209 3.68138,0.62297 1.43594,0.27854 1.74286,0.37363 2.00611,0.62153 0.17094,0.16098 0.40519,0.4762 0.52057,0.70051 0.11537,0.2243 0.27906,0.71649 0.36376,1.09375 0.0847,0.37726 0.18541,1.00585 0.2238,1.39686 0.0384,0.39102 0.1246,0.82168 0.19158,0.95703 0.0894,0.18077 0.0894,0.31143 0,0.49219 -0.067,0.13535 -0.15318,0.56602 -0.19158,0.95703 -0.0384,0.39102 -0.1391,1.01961 -0.2238,1.39686 -0.0847,0.37726 -0.24839,0.86945 -0.36376,1.09375 -0.11538,0.22431 -0.34963,0.53953 -0.52057,0.70051 -0.26325,0.2479 -0.57017,0.34299 -2.00611,0.62154 -0.93242,0.18087 -2.58904,0.4612 -3.68138,0.62296 l -1.98607,0.29411 -1.25605,-0.39559 c -1.04284,-0.32844 -1.31209,-0.45942 -1.58626,-0.77169 -0.18162,-0.20685 -0.39369,-0.55162 -0.47127,-0.76615 -0.0943,-0.26076 -0.20991,-0.39005 -0.34881,-0.39005 -0.11427,0 -0.90419,0.12402 -1.75537,0.2756 -0.85118,0.15159 -1.67509,0.30143 -1.83092,0.33298 l -0.28331,0.0574 -0.0676,4.11404 c -0.0391,2.37658 -0.11183,4.15826 -0.17232,4.21875 -0.0622,0.0622 -1.41605,0.10302 -3.33176,0.10056 -2.08775,-0.003 -3.30475,-0.0457 -3.44712,-0.12193 -0.12103,-0.0648 -0.24604,-0.20396 -0.27778,-0.30929 -0.0318,-0.10534 -0.20735,-1.14674 -0.39022,-2.31423 -0.18288,-1.16749 -0.3325,-2.13234 -0.3325,-2.14411 0,-0.0118 -0.57645,-0.0559 -1.28099,-0.098 -0.70455,-0.0421 -1.33643,-0.12259 -1.40418,-0.17882 -0.0678,-0.0562 -0.1839,-0.37352 -0.2581,-0.70509 -0.1056,-0.47187 -0.18004,-0.60286 -0.3426,-0.60286 -0.11423,0 -1.27964,0.16951 -2.58981,0.37668 -1.31017,0.20717 -3.44034,0.52465 -4.7337,0.7055 -1.29335,0.18085 -3.21289,0.42806 -4.26562,0.54935 -1.05273,0.12129 -2.70156,0.2953 -3.66406,0.38669 -0.9625,0.0914 -2.43907,0.21441 -3.28125,0.27341 -0.84219,0.059 -2.81094,0.17044 -4.375,0.24766 -2.22999,0.1101 -14.0685,0.1404 -54.851565,0.1404 -28.604297,0 -53.759589,-0.0368 -55.900648,-0.0819 l -3.892836,-0.0819 -0.07618,3.25245 c -0.0419,1.78885 -0.111216,3.28384 -0.154039,3.32219 -0.04282,0.0384 -0.816141,0.0886 -1.718485,0.11174 -0.902343,0.0231 -2.182031,0.0169 -2.84375,-0.0137 z M 38.0625,183.2591 v -3.15701 l -0.507453,-0.0695 c -0.279099,-0.0383 -1.165037,-0.0696 -1.96875,-0.0696 H 34.125 v 3.22656 3.22656 h 1.96875 1.96875 z m 149.29687,-3.47203 v -3.7853 l -0.24609,0.0602 c -0.13535,0.0331 -1.45195,0.26578 -2.92578,0.51704 -1.47383,0.25126 -2.72038,0.49414 -2.77011,0.53973 -0.0497,0.0456 0.0876,1.20869 0.30507,2.58466 0.21752,1.37598 0.44783,2.80939 0.51181,3.18537 l 0.11631,0.68359 h 2.5044 2.50439 z M 150.5,179.74151 c 2.31602,-0.0602 5.34297,-0.18262 6.72656,-0.27208 1.3836,-0.0895 3.35235,-0.23946 4.375,-0.33333 1.02266,-0.0939 2.86836,-0.29151 4.10156,-0.43919 1.23321,-0.14767 3.3004,-0.41858 4.59375,-0.60202 1.29336,-0.18343 4.00992,-0.59897 6.03679,-0.92342 2.02687,-0.32445 3.97101,-0.66079 4.32031,-0.74741 0.3493,-0.0866 2.11165,-0.40574 3.91634,-0.70915 1.80469,-0.3034 4.36407,-0.72969 5.6875,-0.94731 1.32344,-0.21761 2.64094,-0.44615 2.92778,-0.50786 0.39386,-0.0847 0.55869,-0.18408 0.6734,-0.4059 0.0835,-0.16154 0.20568,-0.58476 0.27144,-0.94049 0.0658,-0.35574 0.11957,-0.92402 0.11957,-1.26286 0,-0.33884 -0.0538,-0.90713 -0.11957,-1.26287 -0.0658,-0.35573 -0.18791,-0.77895 -0.27144,-0.94049 -0.11471,-0.22181 -0.27954,-0.32117 -0.6734,-0.4059 -0.28684,-0.0617 -1.60434,-0.29035 -2.92778,-0.5081 -1.32343,-0.21774 -4.00586,-0.66687 -5.96094,-0.99806 -1.95507,-0.33119 -3.82539,-0.66978 -4.15625,-0.75242 -0.33085,-0.0826 -2.32421,-0.42148 -4.42968,-0.75298 -2.10547,-0.3315 -4.71406,-0.72751 -5.79688,-0.88003 -1.08281,-0.15252 -2.97773,-0.39809 -4.21094,-0.5457 -1.2332,-0.14761 -3.0789,-0.34519 -4.10156,-0.43906 -1.02265,-0.0939 -2.9914,-0.24442 -4.375,-0.33454 -1.38359,-0.0901 -4.43515,-0.21235 -6.78125,-0.27162 -2.52853,-0.0639 -22.8169,-0.10717 -49.82031,-0.1063 -25.055078,8.2e-4 -49.115785,0.0469 -53.468238,0.10235 -7.217982,0.092 -7.938967,0.11752 -8.202713,0.29033 -0.228863,0.14996 -0.688387,0.2095 -2.203637,0.28552 -1.052961,0.0528 -2.22776,0.0697 -2.610664,0.0375 -0.382904,-0.0322 -0.763143,-0.11415 -0.844976,-0.18206 -0.103815,-0.0862 -0.571095,-0.10169 -1.545998,-0.0514 -0.768466,0.0397 -2.578462,0.14474 -4.022212,0.23353 -1.443749,0.0888 -3.486328,0.23484 -4.539062,0.32457 -1.052734,0.0897 -2.8,0.26238 -3.882813,0.38368 -1.082812,0.12129 -2.608593,0.31788 -3.390624,0.43687 -0.782032,0.11898 -1.938672,0.31695 -2.570313,0.43993 -0.631641,0.12298 -1.614142,0.34792 -2.183337,0.49987 -0.569195,0.15195 -1.3566951,0.40434 -1.7500003,0.56086 -0.3933051,0.15653 -0.9631668,0.44236 -1.2663593,0.63519 -0.3031925,0.19282 -0.7379503,0.55723 -0.9661283,0.8098 -0.228178,0.25256 -0.6060326,0.75498 -0.8396769,1.11647 -0.2336443,0.36149 -0.5248631,0.92468 -0.647153,1.25153 -0.1222899,0.32685 -0.2223452,0.78745 -0.2223452,1.02357 0,0.23611 0.1000553,0.69671 0.2223452,1.02356 0.1222899,0.32685 0.4135087,0.89004 0.647153,1.25153 0.2336443,0.3615 0.6114989,0.86391 0.8396769,1.11647 0.228178,0.25257 0.6629358,0.61698 0.9661283,0.80981 0.3031925,0.19282 0.871181,0.47615 1.2621966,0.62962 0.3910156,0.15347 1.055469,0.3804 1.476563,0.5043 0.421093,0.12389 1.27199,0.32862 1.890881,0.45496 0.618891,0.12634 1.898578,0.34991 2.84375,0.49683 0.945171,0.14691 2.604431,0.36621 3.687243,0.48733 1.082813,0.12111 2.830079,0.29362 3.882813,0.38336 1.052734,0.0897 3.095313,0.23578 4.539062,0.32457 1.44375,0.0888 3.253746,0.19386 4.022212,0.23352 0.974903,0.0503 1.442183,0.0348 1.545998,-0.0514 0.08183,-0.0679 0.462072,-0.14985 0.844976,-0.18207 0.382904,-0.0322 1.557703,-0.0154 2.610664,0.0375 1.542685,0.0774 1.972531,0.13408 2.213426,0.29192 0.275255,0.18036 0.817053,0.20217 6.835525,0.27523 3.595116,0.0437 27.676028,0.087 53.513137,0.0964 28.93425,0.0105 48.59386,-0.025 51.1875,-0.0924 z m -104.726563,-4.20547 -1.53125,-0.15037 -1.960448,-0.88322 c -1.691336,-0.76197 -2.044165,-0.88344 -2.570312,-0.88489 -0.335426,-9.2e-4 -0.679721,-0.0459 -0.7651,-0.0999 -0.122699,-0.0777 -0.157086,-0.45967 -0.164063,-1.82256 -0.0066,-1.29293 0.02733,-1.76046 0.135705,-1.86882 0.08629,-0.0863 0.39814,-0.14451 0.773927,-0.14451 0.5519,0 0.870777,-0.10846 2.589843,-0.8809 l 1.960448,-0.88089 1.859375,-0.16907 c 1.174999,-0.10685 2.322336,-0.1449 3.117188,-0.10339 0.99555,0.052 1.691116,0.176 3.335937,0.59476 1.142969,0.29099 2.619532,0.72872 3.28125,0.97273 0.661719,0.24401 1.646094,0.599 2.1875,0.78888 0.541407,0.18987 1.119727,0.39792 1.285157,0.46232 0.299436,0.11657 0.300781,0.12184 0.300781,1.17919 v 1.0621 l -2.488281,0.90952 c -1.374776,0.50251 -3.418242,1.14851 -4.566407,1.44357 -1.915182,0.49218 -2.202475,0.53765 -3.664062,0.57995 -0.907987,0.0263 -2.24051,-0.0184 -3.117188,-0.10447 z m 4.765908,-1.15645 c 0.988126,-0.24352 2.916319,-0.84471 4.284874,-1.33598 L 57.3125,172.1504 v -0.49993 -0.49992 l -1.777344,-0.63932 c -0.977539,-0.35162 -2.171094,-0.77624 -2.652344,-0.94359 -0.481249,-0.16735 -1.632842,-0.48085 -2.559094,-0.69665 -1.075604,-0.25061 -1.94502,-0.39028 -2.40625,-0.38656 -0.397185,0.003 -1.33739,0.0719 -2.089343,0.15261 -1.326122,0.14238 -1.418108,0.16978 -3.0625,0.91218 l -1.695313,0.7654 v 1.33746 1.33746 l 1.804688,0.79849 c 1.713535,0.75816 1.862694,0.80366 2.953125,0.90093 0.631641,0.0563 1.54583,0.10941 2.031533,0.11792 0.699765,0.0123 1.256067,-0.0764 2.679687,-0.42729 z m -10.39872,-2.7291 c 0,-1.06899 -0.0057,-1.09375 -0.252038,-1.09375 -0.246332,0 -0.252038,0.0248 -0.252038,1.09375 0,1.06898 0.0057,1.09375 0.252038,1.09375 0.246331,0 0.252038,-0.0248 0.252038,-1.09375 z m 18.59375,0 c 0,-0.25521 -0.04861,-0.32813 -0.21875,-0.32813 -0.170139,0 -0.21875,0.0729 -0.21875,0.32813 0,0.2552 0.04861,0.32812 0.21875,0.32812 0.170139,0 0.21875,-0.0729 0.21875,-0.32812 z m 124.878905,1.67032 c -0.22558,-0.0236 -0.41264,-0.10146 -0.41567,-0.17302 -0.003,-0.0716 -0.007,-0.78622 -0.009,-1.58813 -0.002,-0.80191 0.029,-1.49097 0.0693,-1.53125 0.0402,-0.0403 2.18139,-0.0732 4.75807,-0.0732 2.57668,0 4.72355,0.0386 4.77081,0.0859 0.0473,0.0472 0.13011,0.41637 0.18411,0.82031 0.054,0.40395 0.10055,0.8821 0.10344,1.06257 0.003,0.18047 -0.0402,0.54936 -0.0958,0.81975 -0.0872,0.42385 -0.14592,0.50122 -0.42629,0.56128 -0.17886,0.0383 -2.1709,0.0672 -4.42676,0.0642 -2.25586,-0.003 -4.28613,-0.0247 -4.51172,-0.0483 z m 3.85547,-1.67032 v -0.875 h -1.69531 -1.69532 v 0.875 0.875 h 1.69532 1.69531 z m 4.59375,0 v -0.875 h -1.85938 -1.85937 v 0.875 0.875 h 1.85937 1.85938 z m -12.07898,6.42776 c -0.0418,-0.31473 -0.0968,-0.59309 -0.12225,-0.61858 -0.0255,-0.0255 -0.45247,0.0228 -0.94883,0.10739 -0.65269,0.11119 -0.91157,0.20153 -0.93531,0.32642 -0.0181,0.095 0.0172,0.30415 0.0783,0.46484 0.10857,0.28557 0.13244,0.29217 1.05757,0.29217 h 0.94648 z m 18.1203,-1.6163 c 1.18131,-0.18105 2.63086,-0.42799 3.22123,-0.54876 0.59036,-0.12078 1.2282,-0.27009 1.41741,-0.33179 0.26366,-0.086 0.39468,-0.23246 0.56088,-0.62703 0.11926,-0.28315 0.28394,-0.78552 0.36594,-1.11638 0.0918,-0.37029 0.1486,-1.21128 0.14781,-2.1875 -7.1e-4,-0.87227 -0.0621,-1.84827 -0.13647,-2.1689 -0.0744,-0.32063 -0.23845,-0.82301 -0.36466,-1.11639 -0.17667,-0.41068 -0.30864,-0.55925 -0.5735,-0.64562 -0.18921,-0.0617 -0.82705,-0.21102 -1.41741,-0.33179 -0.59037,-0.12078 -2.03938,-0.36764 -3.22004,-0.54858 -2.09217,-0.32063 -2.16292,-0.32442 -2.78765,-0.14913 -0.51211,0.14369 -0.62607,0.21513 -0.56676,0.35529 0.0408,0.0965 0.1661,0.40897 0.27836,0.6944 0.11225,0.28544 0.28074,0.94989 0.37442,1.47657 0.0985,0.55364 0.17031,1.58045 0.17031,2.43415 0,0.86672 -0.0718,1.88065 -0.17395,2.45497 -0.0957,0.53813 -0.29334,1.27402 -0.43928,1.63532 -0.14594,0.3613 -0.25475,0.66687 -0.2418,0.67904 0.0129,0.0122 0.26962,0.0973 0.5704,0.18909 0.30078,0.0918 0.57389,0.17039 0.6069,0.17458 0.033,0.004 1.02654,-0.1405 2.20786,-0.32154 z m -3.90994,-1.03803 c 0.0766,-0.18047 0.17174,-0.43455 0.21141,-0.56463 l 0.0721,-0.23651 -0.41027,0.20916 c -0.22565,0.11505 -0.49539,0.20917 -0.59944,0.20917 -0.10404,0 -0.21896,0.0482 -0.25537,0.10712 -0.0364,0.0589 -0.008,0.21887 0.0623,0.35546 0.0707,0.1366 0.20657,0.33775 0.30201,0.44701 0.16767,0.19196 0.17865,0.19196 0.32574,0 0.0837,-0.10926 0.21491,-0.34631 0.29151,-0.52678 z m 0.11955,-7.24867 c -0.0867,-0.24577 -0.24112,-0.57423 -0.34313,-0.72991 -0.14993,-0.22882 -0.21563,-0.25802 -0.34291,-0.15239 -0.0866,0.0719 -0.23003,0.27105 -0.31876,0.44263 -0.0887,0.17157 -0.13524,0.35415 -0.10337,0.40572 0.0319,0.0516 0.22221,0.12458 0.42297,0.16224 0.20076,0.0377 0.45962,0.13766 0.57525,0.22221 0.11563,0.0846 0.22315,0.14082 0.23892,0.12504 0.0158,-0.0158 -0.0423,-0.22977 -0.12897,-0.47554 z m -6.95406,-4.6732 v -3.77344 h -2.51562 c -1.38359,0 -2.51563,0.0197 -2.51563,0.0438 0,0.0241 -0.22228,1.43674 -0.49396,3.1392 -0.27168,1.70247 -0.47691,3.14701 -0.45608,3.2101 0.0208,0.0631 1.31363,0.34235 2.87287,0.62059 1.55925,0.27824 2.89651,0.51203 2.97171,0.51953 0.10699,0.0107 0.13671,-0.80668 0.13671,-3.75979 z m -7.39832,1.9414 c 0.0373,-0.22558 0.0683,-0.49628 0.069,-0.60156 0.001,-0.16742 -0.11566,-0.1914 -0.93119,-0.1914 -0.90986,0 -0.93508,0.007 -1.04348,0.29216 -0.0611,0.16069 -0.0962,0.36987 -0.0781,0.46484 0.0223,0.11638 0.24658,0.21337 0.688,0.29748 0.36024,0.0686 0.78389,0.13016 0.94145,0.13672 0.2491,0.0104 0.29532,-0.0416 0.35427,-0.39824 z m -142.406003,-2.17502 0.507453,-0.0695 v -3.15701 -3.15701 H 36.09375 34.125 v 3.22656 3.22657 h 1.461297 c 0.803713,0 1.689651,-0.0313 1.96875,-0.0696 z"
         id="path1041"
         inkscape:label="Outline" /></g></g></svg>
