<?xml version="1.0" encoding="UTF-8" standalone="no"?>
<!-- Created with Inkscape (http://www.inkscape.org/) -->

<svg
   width="608.38031mm"
   height="61.658035mm"
   viewBox="0 0 608.38031 61.658035"
   version="1.1"
   id="svg1"
   xml:space="preserve"
   inkscape:version="1.3 (0e150ed6c4, 2023-07-21)"
   sodipodi:docname="TOrp.svg"
   xmlns:inkscape="http://www.inkscape.org/namespaces/inkscape"
   xmlns:sodipodi="http://sodipodi.sourceforge.net/DTD/sodipodi-0.dtd"
   xmlns="http://www.w3.org/2000/svg"
   xmlns:svg="http://www.w3.org/2000/svg"><sodipodi:namedview
     id="namedview1"
     pagecolor="#505050"
     bordercolor="#ffffff"
     borderopacity="1"
     inkscape:showpageshadow="0"
     inkscape:pageopacity="0"
     inkscape:pagecheckerboard="1"
     inkscape:deskcolor="#505050"
     inkscape:document-units="mm"
     inkscape:zoom="0.27496365"
     inkscape:cx="558.25561"
     inkscape:cy="787.3768"
     inkscape:window-width="1912"
     inkscape:window-height="1055"
     inkscape:window-x="0"
     inkscape:window-y="17"
     inkscape:window-maximized="1"
     inkscape:current-layer="g5" /><defs
     id="defs1" /><g
     inkscape:label="Torpedo"
     inkscape:groupmode="layer"
     id="layer1"
     transform="translate(195.94095,-98.56637)"><g
       id="g5"
       transform="translate(-117.84492,38.251479)"
       inkscape:label="TorpOutline"><path
         style="fill:#005b00"
         d="m -22.339391,121.83834 c -12.658235,-0.13755 -19.639254,-3.58037 -21.12175,-3.85093 -14.008212,-2.55654 -22.542476,-6.26554 -28.271546,-12.28686 -3.973958,-4.17667 -3.432562,-5.55789 -3.432562,-13.941868 0,-8.383977 0.644441,-12.934466 4.618399,-17.11114 5.627895,-5.914982 12.661728,-8.344058 26.077662,-10.855279 4.991595,-0.934337 39.3365091,-3.567486 221.096458,-3.422569 139.76706,0.111436 179.51214,0.917651 199.1162,1.336345 13.48493,0.288004 26.74588,1.157666 29.07422,1.358215 7.00601,0.603456 20.9919,1.871534 23.8746,2.304039 2.28928,0.343471 2.88059,0.322399 3.88056,-0.138286 2.45895,-1.132835 7.2978,-1.799181 10.70473,-1.474121 4.80732,0.458671 15.12271,0.08909 18.12668,-0.428931 3.12702,-0.539245 23.24281,-0.997561 27.25934,-0.621074 2.52462,0.236645 2.88251,0.373022 4.52805,1.72548 4.88202,4.012505 4.26537,4.430709 8.79557,4.447088 7.87404,0.02847 10.45128,-0.471077 18.08832,2.488035 2.71412,1.051636 3.5939,1.593099 5.05937,3.113829 1.95551,2.029242 3.47243,5.142833 3.14369,6.452654 -0.12641,0.503666 0.082,1.378416 0.53605,2.249447 0.62182,1.192984 0.75163,2.1093 0.79644,5.622008 0.046,3.606432 -0.35723,2.939184 -0.90752,3.548464 -0.35804,0.396427 -0.49232,0.800493 -0.30458,0.916521 1.10998,0.686005 1.32475,6.623271 -0.33493,10.331753 -0.81333,1.81736 -3.90221,4.91239 -5.50614,5.51712 -7.30409,2.75382 -9.02506,3.85532 -12.46251,4.40102 -1.26118,0.20021 -2.92193,0.68474 -3.69056,1.07672 -1.75062,0.89279 -2.50732,0.89406 -4.24694,0.007 -0.76115,-0.38805 -2.02503,-0.7017 -2.80862,-0.697 -1.4713,0.009 -1.94883,0.30026 -6.14982,3.75303 -1.64554,1.35246 -2.00343,1.48883 -4.52805,1.72548 -4.01653,0.37648 -24.09633,0.12459 -27.22335,-0.41469 -2.51451,-0.43362 -8.50749,-0.50525 -19.40278,-0.2319 -4.35985,0.10938 -8.21438,-0.50214 -9.93393,-1.57602 -0.41084,-0.25657 -1.42154,-0.24171 -3.35279,0.0493 -2.9274,0.44113 -21.74965,0.75118 -26.51834,1.10346 -1.55222,0.11467 -13.6966,0.43949 -26.9875,0.72182 -19.22993,0.4085 -59.99257,2.82222 -200.91852,2.9074 -97.401938,0.0589 -185.90506,0.0113 -196.673601,-0.10571 z"
         id="path7"
         sodipodi:nodetypes="cssssssssssssssssssssssssssscssssssssscc"
         inkscape:label="LightTorp" /><path
         id="rect8"
         style="fill:#165016;fill-opacity:1;stroke:none;stroke-width:5.16901;stroke-linecap:square;stroke-linejoin:round;stroke-dasharray:none"
         inkscape:label="Bands"
         d="m -15.524717,63.71594 v 55.14651 h 4.779553 V 63.71594 Z m 182.929917,0 v 55.14651 h 4.77956 V 63.71594 Z m 184.82593,0 v 55.14651 h 4.77955 V 63.71594 Z" /><path
         style="fill:#023600"
         d="m -22.339391,121.83834 c -12.658235,-0.13755 -19.85149,-2.39368 -21.333986,-2.66424 -14.008212,-2.55654 -21.295309,-5.52941 -27.024379,-11.55073 -3.973958,-4.17667 -4.489335,-10.117906 -4.489335,-18.501882 0,-8.383977 -0.394542,-11.093094 3.579416,-15.269768 5.627895,-5.914982 13.973668,-9.607684 27.389602,-12.118905 4.991595,-0.934337 39.0853941,-1.508038 220.845343,-1.363121 139.76706,0.111436 179.51214,0.917651 199.1162,1.336345 13.48493,0.288004 26.74588,1.157666 29.07422,1.358215 7.00601,0.603456 20.98478,2.067901 23.86748,2.500406 2.28928,0.343471 2.88771,0.126032 3.88768,-0.334653 2.45895,-1.132835 7.2978,-1.799181 10.70473,-1.474121 4.80732,0.458671 15.12271,0.08909 18.12668,-0.428931 3.12702,-0.539245 23.0386,-1.182928 27.05513,-0.806441 2.52462,0.236645 2.88251,0.373022 4.52805,1.72548 4.88202,4.012505 4.25185,3.742761 8.78205,3.75914 7.87404,0.02847 10.77804,0.724871 18.41508,3.683983 2.71412,1.051636 3.45243,1.52342 4.9179,3.04415 1.95551,2.029242 3.88416,5.014687 3.55542,6.324508 -0.12641,0.503666 0.082,1.378416 0.53605,2.249447 0.62182,1.192984 0.37234,1.984492 0.41715,5.4972 0.046,3.606432 -0.0681,4.265041 -0.6184,4.874321 -0.35804,0.396427 -0.49232,0.800493 -0.30458,0.916521 1.10998,0.686005 0.73381,6.181636 -0.92587,9.890116 -0.81333,1.81736 -3.88209,5.15841 -5.48602,5.76314 -7.30409,2.75382 -8.85777,2.77718 -12.29522,3.32288 -1.26118,0.20021 -2.96946,0.9134 -3.73809,1.30538 -1.75062,0.89279 -2.50732,0.89406 -4.24694,0.007 -0.76115,-0.38805 -2.04414,-0.79708 -2.82773,-0.79238 -1.4713,0.009 -1.94883,0.30026 -6.14982,3.75303 -1.64554,1.35246 -1.82238,1.30345 -4.347,1.5401 -4.01653,0.37648 -24.22547,0.82973 -27.35249,0.29045 -2.51451,-0.43362 -8.37835,-1.21039 -19.27364,-0.93704 -4.35985,0.10938 -7.98712,-0.92057 -9.70667,-1.99445 -0.41084,-0.25657 -2.34771,0.20143 -4.27896,0.49244 -2.9274,0.44113 -20.78446,2.45089 -25.55315,2.80317 -1.55222,0.11467 -13.62168,1.00209 -26.91258,1.28442 -19.22993,0.4085 -60.33377,0.5352 -201.25972,0.62038 -97.401938,0.0589 -185.90506,0.0113 -196.673601,-0.10571 z m 397.051381,-7.55465 c 13.58194,-0.29562 25.88506,-0.62764 27.34027,-0.73783 4.48417,-0.33954 23.3394,-2.27355 25.53418,-2.61907 1.33987,-0.21094 2.30674,-0.20227 2.73043,0.0245 0.48028,0.25703 0.89559,0.19407 1.55057,-0.23509 0.60093,-0.39375 4.92454,-1.19159 13.17117,-2.43049 6.75212,-1.01438 17.86054,-2.93337 24.68539,-4.26441 10.90696,-2.12719 12.40882,-2.49822 12.40882,-3.06558 0,-2.232259 2.37323,-3.756801 7.09413,-4.557205 l 2.60725,-0.442045 -1.5875,-0.248897 c -0.87312,-0.136893 -12.96563,-0.260664 -26.87223,-0.275046 l -25.28474,-0.02615 -1.0233,-0.86105 c -1.17488,-0.988591 -1.99766,-3.321923 -1.68053,-4.765802 0.11927,-0.543026 0.61818,-1.364444 1.1087,-1.825373 l 0.89184,-0.838053 21.57944,-0.183033 c 11.86869,-0.100668 19.03944,-0.231876 15.93499,-0.291574 -7.53828,-0.144961 -8.22423,-0.28647 -5.89884,-1.216906 0.7493,-0.299812 2.20632,-1.042724 3.23781,-1.650915 1.0315,-0.608192 2.08681,-1.024697 2.34514,-0.925567 0.25833,0.09913 0.56421,0.0273 0.67973,-0.159626 0.11553,-0.186924 -0.0422,-0.436655 -0.35048,-0.554958 -0.44289,-0.169952 -0.47263,-0.321014 -0.1417,-0.719762 0.28044,-0.337909 0.496,-0.379825 0.65234,-0.126853 0.14882,0.240799 0.4678,0.11892 0.87957,-0.336079 0.38727,-0.427928 0.48285,-0.731558 0.23861,-0.757991 -0.2241,-0.02425 -0.52652,-0.07382 -0.67204,-0.110158 -4.23603,-1.05765 -11.60077,-2.066406 -29.7809,-4.079117 -26.20378,-2.901007 -34.63265,-3.433752 -67.32118,-4.255023 -25.32428,-0.636251 -34.34409,-0.698695 -75.67083,-0.523869 -66.66619,0.28202 -347.208747,0.410927 -347.460265,0.159655 -0.115367,-0.115254 0.02098,-0.863531 0.30299,-1.662838 l 0.512748,-1.453284 -1.126343,0.19437 c -9.418993,1.62541 -17.197885,4.85022 -21.508321,8.916467 -3.899614,3.678698 -4.64802,5.899756 -4.64802,13.794006 0,7.920208 0.74378,10.110946 4.699812,13.842866 4.202451,3.96438 11.682407,7.05099 21.741297,8.97157 4.821234,0.92053 25.950471,1.00816 220.838882,0.91588 142.46276,-0.0675 177.99201,-0.1785 198.26111,-0.61966 z m 100.30519,-1.19384 c 0.34007,-0.21558 0.0222,-0.55927 -1.15573,-1.24958 l -1.62481,-0.95221 -3.78316,0.74842 c -5.36947,1.06223 -5.60329,1.20342 -2.37205,1.43228 4.63935,0.32859 8.43656,0.33756 8.93575,0.0211 z m 42.55089,-8.30658 c 4.0963,-1.68037 4.46727,-2.12475 5.34372,-6.401087 0.31556,-1.539684 0.82367,-3.22763 1.12914,-3.75099 0.45628,-0.781743 0.47918,-1.118842 0.12833,-1.888873 -0.23489,-0.51552 -0.52828,-2.934413 -0.652,-5.375318 -0.20774,-4.098983 -0.30885,-4.587997 -1.32358,-6.401405 -1.08512,-1.939223 -1.14413,-1.981777 -4.79295,-3.456414 -2.03187,-0.82116 -3.94157,-1.495848 -4.24377,-1.499306 -0.30298,-0.0035 -0.82173,0.610801 -1.15638,1.369303 -0.76887,1.742672 -2.30075,2.503675 -5.05025,2.508848 -1.13484,0.0021 -2.6606,0.102597 -3.39057,0.223247 -1.07128,0.17706 -1.25003,0.312374 -0.92695,0.701673 0.22016,0.26527 0.77772,0.482309 1.23903,0.482309 0.51037,0 0.83875,0.207175 0.83875,0.529167 0,0.291041 0.20843,0.529166 0.46317,0.529166 0.96201,0 2.46307,2.067082 2.74484,3.779867 0.36102,2.194618 0.35637,7.91166 -0.008,10.133491 -0.3622,2.207077 -1.88431,3.725531 -3.73449,3.725531 -0.9765,0 -1.22916,0.139101 -1.22916,0.676701 0,0.37219 -0.0964,0.92781 -0.21413,1.23472 -0.1857,0.48394 0.21702,0.55802 3.03349,0.55802 3.84125,0 5.32669,0.55208 6.14922,2.28544 0.30603,0.64492 0.55642,1.33217 0.55642,1.52721 0,0.48328 0.98672,0.19454 5.09637,-1.4913 z m -25.21492,-0.89646 c 0.74113,-0.4687 0.35385,-0.68915 -0.81597,-0.46446 -0.72213,0.1387 -0.87015,0.27649 -0.52916,0.49261 0.59526,0.37728 0.70779,0.37492 1.34513,-0.0281 z m -2.45922,-17.251896 1.94027,-0.235009 -3.07154,-0.446769 c -2.62666,-0.38206 -3.25258,-0.371124 -4.32153,0.07551 -0.68749,0.287253 -1.24998,0.609753 -1.24998,0.716667 0,0.256653 4.25032,0.186649 6.70278,-0.110397 z m 2.82222,-7.82047 c 0,-0.359055 -1.46324,-1.077935 -1.71928,-0.844671 -0.0725,0.06603 -0.0378,0.365026 0.0771,0.664436 0.23131,0.6028 1.64215,0.757647 1.64215,0.180235 z m -18.59497,-8.510987 1.48525,-0.761244 -1.00348,-0.337598 c -1.10873,-0.373012 -9.75624,0.0019 -9.75624,0.423034 0,0.288761 4.85318,1.301746 6.62863,1.383567 0.63832,0.02942 1.82895,-0.289074 2.64584,-0.707759 z"
         id="path6"
         sodipodi:nodetypes="cssssssssssssssssssssssssssscsssssssssccssssssssscsscssscssssssssssscssssscssssscsssscsssscssssssssssssssscssssssccsssssccsssscsssssscssss"
         inkscape:label="DarkTorp" /><path
         style="fill:#1a1a1a;fill-opacity:1;stroke:none;stroke-width:5.16901;stroke-linecap:square;stroke-linejoin:round;stroke-dasharray:none"
         d="m -43.431889,65.495721 v 51.953339 l -20.57027,-5.67079 -8.40439,-9.48486 -1.8192,-13.261699 4.82002,-14.71379 12.82359,-5.39249 z"
         id="path8"
         inkscape:label="Sonar" /><rect
         style="fill:#ffff00;fill-opacity:1;stroke:none;stroke-width:5.16901;stroke-linecap:square;stroke-linejoin:round;stroke-dasharray:none"
         id="rect10"
         width="7.9489245"
         height="52.638176"
         x="66.763672"
         y="65.728615"
         inkscape:label="YellowBand" /><rect
         style="fill:#808000;fill-opacity:1;stroke:none;stroke-width:5.16901;stroke-linecap:square;stroke-linejoin:round;stroke-dasharray:none"
         id="rect11"
         width="7.9639435"
         height="7.344192"
         x="66.73912"
         y="64.120163"
         inkscape:label="YellowBandDark" /><path
         style="fill:#000000"
         d="m -20.92828,121.8278 c -21.762542,-0.24364 -23.058455,-0.33432 -30.162499,-2.11068 -9.500081,-2.37548 -17.32234,-6.37777 -21.65796,-11.08136 -1.737146,-1.88458 -4.074581,-6.51137 -4.605098,-9.115466 -0.989585,-4.857482 -0.989585,-11.837036 0,-16.694519 0.530517,-2.604097 2.867952,-7.230886 4.605098,-9.115466 5.302455,-5.752486 15.340195,-10.211911 27.831571,-12.364617 5.694761,-0.981409 39.5879015,-1.131185 221.897218,-0.980576 135.47419,0.111918 176.79098,0.25048 196.14444,0.657802 28.76879,0.605482 27.756,0.554258 43.39166,2.194613 6.69396,0.70227 12.96458,1.271484 13.93472,1.264918 0.97014,-0.0066 2.87514,-0.366167 4.23334,-0.799114 2.06874,-0.659446 3.15636,-0.774944 6.70277,-0.711784 11.98958,0.213528 17.52439,0.121852 20.81389,-0.344749 2.4641,-0.349522 7.25066,-0.509074 15.875,-0.529167 13.84247,-0.03225 13.0046,-0.171096 16.24988,2.692827 2.99822,2.645892 2.8889,2.613583 9.73426,2.876978 7.68998,0.295894 10.4742,0.946341 18.81864,4.396406 3.18159,1.315451 6.17361,5.41477 6.17361,8.458371 0,0.690709 0.32446,1.926077 0.72102,2.745262 0.94533,1.952795 0.28909,8.50788 0.29085,10.047562 9.7e-4,0.84714 0.0261,1.209521 -0.0661,2.161987 -0.11733,1.211561 0.38491,1.773474 -0.076,4.083204 -1.0986,5.505358 -3.40453,9.092258 -6.80525,10.585638 -4.84522,2.12771 -9.43055,3.59977 -13.42906,4.31123 -1.24013,0.22066 -2.64171,0.65472 -3.11462,0.96458 -1.12043,0.73414 -3.68293,0.72108 -4.82093,-0.0246 -1.16126,-0.76089 -3.50848,-0.75259 -4.72695,0.0167 -0.52675,0.33258 -1.74153,1.29638 -2.69951,2.14179 -3.24992,2.86802 -2.38299,2.72653 -16.42627,2.68092 -7.98394,-0.0259 -13.54663,-0.19879 -15.34583,-0.47688 -4.11649,-0.63624 -13.75114,-0.85277 -17.73423,-0.39856 -4.05025,0.46186 -7.93981,0.1077 -11.4414,-1.04179 -2.32677,-0.76382 -2.40937,-0.76633 -6.87444,-0.20855 -5.64623,0.70534 -21.09785,2.22943 -25.33326,2.49879 -1.74625,0.11106 -14.2875,0.43262 -27.86945,0.71458 -19.5427,0.40571 -61.08783,0.53582 -199.14304,0.62369 -95.946738,0.0611 -183.7354855,0.007 -195.08611,-0.12001 z m 354.01249,-7.16037 c 54.77962,-0.16848 65.18347,-0.44915 81.84444,-2.20795 6.59695,-0.6964 13.0277,-1.29966 14.29057,-1.34057 1.26287,-0.0409 2.61343,-0.2442 3.00125,-0.45175 0.38782,-0.20756 6.18082,-1.19546 12.87332,-2.19534 10.46974,-1.56421 25.83756,-4.32992 34.42928,-6.19616 2.47181,-0.53691 2.51125,-0.56329 2.92964,-1.95975 0.62469,-2.085056 1.9866,-2.813185 7.21435,-3.857083 1.1364,-0.226922 1.93015,-0.542425 1.76389,-0.701118 -0.16627,-0.158693 -12.24519,-0.342352 -26.84206,-0.408131 l -26.53977,-0.119599 -1.12225,-1.122277 c -0.91389,-0.913902 -1.15035,-1.470658 -1.27357,-2.998611 -0.14006,-1.736911 -0.0687,-1.954875 0.96087,-2.93332 l 1.11216,-1.056986 26.52477,-0.108898 c 14.58863,-0.05989 26.74593,-0.183299 27.01624,-0.274235 0.7998,-0.269067 0.31906,-0.459547 -2.54082,-1.006734 -1.49009,-0.2851 -3.41407,-0.830141 -4.27552,-1.211202 -1.34349,-0.594286 -1.6288,-0.910383 -2.00585,-2.222232 -0.24176,-0.841166 -0.46747,-1.572697 -0.50158,-1.625622 -0.25225,-0.391459 -26.26256,-5.116326 -37.55798,-6.822542 -18.8747,-2.851098 -19.82724,-2.975903 -31.92638,-4.183093 -20.29739,-2.025168 -30.34347,-2.110312 -253.64722,-2.149742 -182.013668,-0.03214 -198.550203,0.0123 -201.788881,0.54232 -11.604745,1.899142 -20.019791,5.400662 -24.400406,10.153068 -2.844222,3.085617 -3.634997,5.905687 -3.634997,12.963162 0,7.057475 0.790775,9.877545 3.634997,12.963165 4.124669,4.47473 9.74248,6.95157 22.770613,10.03935 1.006749,0.23861 8.777449,0.46726 20.327015,0.59813 19.3356264,0.21909 276.433829,0.14265 357.363879,-0.10625 z m 143.05138,-1.40901 c 0,-0.41383 -3.54739,-2.32983 -4.31358,-2.32983 -1.03137,0 -7.59043,1.29693 -8.38642,1.65825 -0.32776,0.14878 0.075,0.3287 1.05834,0.47271 1.73867,0.25466 11.64166,0.42382 11.64166,0.19887 z m 41.25644,-8.23914 c 4.41918,-1.77483 4.84694,-2.28701 5.80604,-6.951961 0.31743,-1.543908 0.8167,-3.172713 1.10949,-3.619567 0.43329,-0.661289 0.45204,-0.959486 0.10075,-1.602618 -0.24474,-0.44807 -0.49706,-2.668465 -0.58281,-5.128711 -0.1377,-3.95088 -0.24138,-4.505031 -1.16028,-6.201597 -1.3513,-2.49491 -1.75867,-2.810838 -5.44017,-4.219071 -4.94324,-1.890866 -4.5668,-1.882423 -5.24081,-0.117539 -0.76186,1.994899 -1.46603,2.287865 -6.18848,2.574687 l -3.84714,0.233658 0.5465,1.146015 c 0.4286,0.89878 0.82489,1.190532 1.83693,1.352364 0.77368,0.123717 1.6861,0.619348 2.27853,1.237707 0.87672,0.915096 1.01807,1.393163 1.25396,4.240873 0.14623,1.765233 0.14623,4.653796 0,6.419029 -0.23354,2.819433 -0.38231,3.331068 -1.22404,4.209641 -0.56844,0.593329 -1.50047,1.091746 -2.29142,1.225377 -1.27324,0.215113 -1.73342,0.781143 -1.75034,2.152953 -0.003,0.24402 1.32706,0.48227 3.54517,0.63504 4.40864,0.30364 5.09173,0.60211 5.83556,2.54981 0.68316,1.78882 0.61544,1.79053 5.41256,-0.13609 z m -24.67588,-1.32263 c 0.36597,-0.44097 0.31918,-0.52917 -0.28073,-0.52917 -1.03638,0 -1.86365,0.37531 -1.6367,0.74252 0.30615,0.49536 1.43334,0.36993 1.91743,-0.21335 z m -0.30367,-25.235352 c -0.93346,-0.777656 -1.31733,-0.857647 -1.63661,-0.341041 -0.38217,0.618364 0.18318,1.058697 1.34374,1.046597 l 1.12571,-0.01174 z m -17.95788,-8.190347 1.85738,-1.146527 -3.70416,-0.112006 c -4.10387,-0.124092 -9.70148,0.227232 -9.34836,0.586732 0.28269,0.28779 7.06211,1.729607 8.37292,1.780712 0.53066,0.02069 1.80066,-0.47832 2.82222,-1.108911 z"
         id="path5"
         sodipodi:nodetypes="cssssssssssssssssssssssssssssssssssssccsssssssssscssscsssssssssssssssssssssssssssssscsssssssssssssssssscsscssss"
         inkscape:label="Outline" /></g><circle
       style="fill:none;stroke:#000000;stroke-width:5.169;stroke-linecap:square;stroke-linejoin:round;stroke-dasharray:none"
       id="path4"
       cx="83.525429"
       cy="129.39691"
       r="8.1106853"
       inkscape:label="FrontCircle" /><circle
       style="fill:none;stroke:#000000;stroke-width:5.169;stroke-linecap:square;stroke-linejoin:round;stroke-dasharray:none"
       id="circle4"
       cx="104.9158"
       cy="129.39691"
       r="8.1106853"
       inkscape:label="MiddleCircle" /><circle
       style="fill:#005b00;fill-opacity:1;stroke:#000000;stroke-width:5.169;stroke-linecap:square;stroke-linejoin:round;stroke-dasharray:none"
       id="circle5"
       cx="258.00641"
       cy="130.48521"
       r="8.1106853"
       inkscape:label="BackCircle" /></g></svg>
